<?xml version="1.0" encoding="UTF-8" standalone="no"?>
<!-- Created with Inkscape (http://www.inkscape.org/) -->

<svg
   version="1.1"
   id="svg2"
   width="2666.6667"
   height="2666.6667"
   viewBox="0 0 2666.6667 2666.6667"
   sodipodi:docname="back_squat.svg"
   inkscape:version="1.2.2 (b0a8486541, 2022-12-01)"
   xmlns:inkscape="http://www.inkscape.org/namespaces/inkscape"
   xmlns:sodipodi="http://sodipodi.sourceforge.net/DTD/sodipodi-0.dtd"
   xmlns="http://www.w3.org/2000/svg"
   xmlns:svg="http://www.w3.org/2000/svg">
  <defs
     id="defs6" />
  <sodipodi:namedview
     id="namedview4"
     pagecolor="#ffffff"
     bordercolor="#000000"
     borderopacity="0.25"
     inkscape:showpageshadow="2"
     inkscape:pageopacity="0.0"
     inkscape:pagecheckerboard="0"
     inkscape:deskcolor="#d1d1d1"
     showgrid="false"
     inkscape:zoom="0.31574998"
     inkscape:cx="573.23835"
     inkscape:cy="1334.9169"
     inkscape:window-width="1854"
     inkscape:window-height="1011"
     inkscape:window-x="66"
     inkscape:window-y="32"
     inkscape:window-maximized="1"
     inkscape:current-layer="g12">
    <inkscape:page
       x="0"
       y="0"
       id="page8"
       width="2666.6667"
       height="2666.6667" />
  </sodipodi:namedview>
  <g
     id="g10"
     inkscape:groupmode="layer"
     inkscape:label="Page 1"
     transform="matrix(1.3333333,0,0,-1.3333333,0,2666.6667)">
    <g
       id="g12"
       transform="scale(0.1)">
      <path
         d="m 6386.67,4890.6 c 0,0 200.8,-121.4 219.48,-200.8 18.67,-79.4 42.02,-546.3 28.02,-583.7 -14.01,-37.4 -761.15,-126.1 -1045.99,-102.7 -284.85,23.3 -504.32,196.1 -508.99,303.5 -4.67,107.4 158.77,130.7 382.91,172.8 224.14,42 363.73,322.2 396.66,359.5 32.94,37.4 131,23.4 131,23.4 0,0 144.76,51.3 200.8,65.3 56.03,14.1 196.11,-37.3 196.11,-37.3"
         style="fill:#3970c0;fill-opacity:1;fill-rule:nonzero;stroke:none"
         id="path16" />
      <path
         d="m 5195.93,5138.1 c 0,0 196.13,-121.4 224.14,-154.1 28.02,-32.7 32.69,-593.1 32.69,-593.1 0,0 -621.06,-60.7 -1153.38,-51.3 -532.34,9.3 -630.4,177.4 -644.41,252.1 -14.01,74.8 74.71,116.8 424.93,168.1 350.22,51.4 518.33,312.9 541.67,378.3 23.35,65.4 270.84,144.7 270.84,144.7 l 303.52,-144.7"
         style="fill:#3970c0;fill-opacity:1;fill-rule:nonzero;stroke:none"
         id="path18" />
      <path
         d="m 6592.14,8334.4 c 0,0 4.67,-147.1 -452.95,-161.1 -457.62,-14 -18.68,513.7 42.03,471.6 60.7,-42 410.92,-310.5 410.92,-310.5"
         style="fill:#100f0d;fill-opacity:1;fill-rule:nonzero;stroke:none"
         id="path20" />
      <path
         d="m 4710.3,8350.8 c 4.67,-14.1 32.68,-345.6 74.71,-607.1 42.03,-261.5 51.37,-415.6 51.37,-438.9 0,-23.4 9.33,-849.9 0,-1382.2 -9.34,-532.4 -60.97,-863.9 -60.97,-863.9 0,0 46.96,-56 149.69,-102.7 102.73,-46.7 373.56,-42.1 373.56,-28.1 0,14.1 79.39,719.2 196.13,1134.8 116.73,415.6 55.95,1078.6 72.33,1186 16.39,107.4 53.74,462.3 53.74,462.3 0,0 -112.07,910.6 -182.11,933.9 -70.04,23.4 -728.45,-294.1 -728.45,-294.1"
         style="fill:#f1b68e;fill-opacity:1;fill-rule:nonzero;stroke:none"
         id="path22" />
      <path
         d="m 5448.09,7174 c -14.01,401.6 -135.42,835.9 -182.11,901.3 -46.7,65.3 -158.77,154.9 -158.77,154.9 l -82.55,265.9 c 180.09,80.1 377.47,161 414.09,148.8 70.04,-23.3 182.11,-933.9 182.11,-933.9 0,0 -37.35,-354.9 -53.74,-462.3 -16.38,-107.4 44.4,-770.4 -72.33,-1186 -116.74,-415.6 -196.13,-1120.7 -196.13,-1134.8 0,0 4.67,728.5 98.06,1120.8 93.4,392.2 65.38,723.7 51.37,1125.3"
         style="fill:#dc9b70;fill-opacity:1;fill-rule:nonzero;stroke:none"
         id="path24" />
      <path
         d="m 5298.66,4927.9 c 0,-1 -1.84,-2.1 -4.98,-3 l 4.98,3"
         style="fill:#df8259;fill-opacity:1;fill-rule:nonzero;stroke:none"
         id="path26" />
      <path
         d="m 6241.92,8602.9 c 0,0 -28.02,-597.7 0,-835.8 28.02,-238.2 203.13,-588.4 245.16,-1001.7 42.02,-413.2 -21.02,-1538.6 0,-1767.4 21.01,-228.8 14.79,-434.3 14.79,-434.3 0,0 -194.58,23.4 -227.27,46.7 -32.68,23.4 -102.72,154.1 -140.08,177.5 -37.36,23.3 -144.76,74.7 -144.76,74.7 0,0 0,527.6 -79.38,985.3 -79.38,457.6 -219.47,1377.5 -219.47,1377.5 0,0 -140.09,359.5 -200.79,560.3 -60.71,200.8 -144.76,523 -126.08,551 18.67,28.1 350.22,308.2 466.96,308.2 116.73,0 410.92,-42 410.92,-42"
         style="fill:#fbc398;fill-opacity:1;fill-rule:nonzero;stroke:none"
         id="path28" />
      <path
         d="m 3078.66,14747.1 c 3.59,1.4 7.07,3 10.71,4.2 2.75,1 5.47,1.8 8.22,2.7 25.35,8.7 51.19,16.3 77.49,22.8 328.75,86.6 580.23,26.9 580.23,26.9 0,0 29.63,-48.4 70.26,-114.4 329.63,-176.2 584,-542.9 645.48,-993.1 64.4,-471.6 -99.58,-911.6 -394.73,-1165.4 -40.17,-101.3 -96.73,-170.1 -174.64,-189.2 -458.31,-111.8 -736.74,24.3 -736.74,24.3 l -0.54,0.5 c -386.29,145.2 -695.93,543.8 -764.64,1046.9 -82.87,606.8 212.51,1161.1 678.9,1333.8"
         style="fill:#1e1c1b;fill-opacity:1;fill-rule:nonzero;stroke:none"
         id="path30" />
      <path
         d="m 2623.11,13426.6 c 93.5,-684.7 632.97,-1176.4 1204.94,-1098.3 571.97,78.1 959.86,696.5 866.36,1381.1 -93.5,684.7 -632.97,1176.4 -1204.94,1098.3 -571.97,-78.1 -959.86,-696.5 -866.36,-1381.1"
         style="fill:#343434;fill-opacity:1;fill-rule:nonzero;stroke:none"
         id="path32" />
      <path
         d="m 3501.6,13585.3 c 18.24,-127.6 120.99,-218.6 229.49,-203 108.5,15.5 181.67,131.5 163.43,259.2 -18.24,127.6 -120.99,218.5 -229.49,203 -108.51,-15.5 -181.68,-131.6 -163.43,-259.2"
         style="fill:#d4d3d1;fill-opacity:1;fill-rule:nonzero;stroke:none"
         id="path34" />
      <path
         d="M 7951.74,14722.1 3654.97,13717.3 c 0,0 -88.72,-119.1 32.69,-234.7 l 4285.36,918 -21.28,321.5"
         style="fill:#9d9d9c;fill-opacity:1;fill-rule:nonzero;stroke:none"
         id="path36" />
      <path
         d="m 6059.8,12516 18.68,213.3 c 0,0 303.53,-404.7 368.9,-498.1 65.37,-93.4 392.25,-331.6 476.3,-340.9 84.05,-9.3 266.16,74.7 284.85,158.8 18.67,84 18.67,260.3 18.67,260.3 0,0 70.05,211.3 -112.07,468.1 -182.11,256.9 -528.57,869.7 -626.63,1047.2 -98.06,177.4 -87.82,190.3 -87.82,190.3 l -340.88,4.6 c 0,0 -121.4,18.7 -191.45,32.7 0,0 -112.82,85 -305.86,123.8 0,0 -235.81,-590.7 -249.82,-628.1 -14.01,-37.3 22.86,-938.6 22.86,-938.6 0,0 411.41,-322.2 434.76,-308.2 23.35,14 168.11,93.4 168.11,93.4 l 121.4,121.4"
         style="fill:#fbc398;fill-opacity:1;fill-rule:nonzero;stroke:none"
         id="path38" />
      <path
         d="m 4588.54,13440.1 c 0,0 29.96,78.5 38.48,91.9 8.51,13.4 147.21,113.1 185.23,135.9 38.01,22.8 74.77,65.1 61.26,99.6 l -193.23,-48.6 c 0,0 -97.12,-3.3 -165.44,-31.1 -68.33,-27.7 -259.14,-75.7 -259.14,-75.7 l 99.52,-244.4 c 0,0 176.89,-132.5 196.96,-93.6 20.08,38.9 36.36,166 36.36,166"
         style="fill:#fbc398;fill-opacity:1;fill-rule:nonzero;stroke:none"
         id="path40" />
      <path
         d="m 6325.97,11017.1 c 0,0 126.08,-182.1 168.11,-462.3 42.02,-280.2 14.01,-427.3 42.02,-679.4 28.02,-252.2 56.04,-1541 56.04,-1541 0,0 -392.25,70.1 -721.45,0 -329.21,-70 -546.34,-91 -546.34,-91 0,0 -434.28,-49.1 -700.44,42 0,0 -105.07,785.3 -77.05,1338.2 28.02,553 49.03,1190.4 49.03,1190.4 0,0 553.35,287.1 665.42,329.2 112.07,42 1064.66,-126.1 1064.66,-126.1"
         style="fill:#1e1c1b;fill-opacity:1;fill-rule:nonzero;stroke:none"
         id="path42" />
      <path
         d="m 5830.99,12404 c 0,0 -275.5,233.4 -336.21,284.8 -60.7,51.4 -77.25,388.8 21.26,427.4 98.51,38.6 193.54,189 193.54,189 0,0 0,-93.4 70.05,-189 70.04,-95.6 298.85,-386.9 298.85,-386.9 l -18.68,-213.3 -228.81,-112"
         style="fill:#eaac82;fill-opacity:1;fill-rule:nonzero;stroke:none"
         id="path44" />
      <path
         d="m 5410.73,14220.4 151.77,-44.3 c 0,0 -106.52,-497.9 -79.67,-841.1 26.85,-343.2 364.51,-549.7 595.66,-605.7 0,0 -46.7,-752.6 -18.69,-969.7 28.02,-217.2 266.17,-742.5 266.17,-742.5 0,0 -301.18,-28 -644.4,-133.1 -343.22,-105.1 -1085.68,-70 -1085.68,-70 0,0 -259.16,763.4 -329.21,1078.6 -70.04,315.2 -98.06,539.4 -98.06,539.4 0,0 -107.39,182.1 -88.72,448.3 18.68,266.1 602.59,1120.6 602.59,1120.6 0,0 263.62,154.2 305.64,161.2 42.03,7 422.6,58.3 422.6,58.3"
         style="fill:#3970c0;fill-opacity:1;fill-rule:nonzero;stroke:none"
         id="path46" />
      <path
         d="m 4691.11,13912.6 c 0,0 -112.45,93.1 -157.59,102.5 -45.14,9.5 -145.83,-22.6 -208.76,-59.4 -62.93,-36.8 -102.26,-102.9 -98.45,-159.4 3.81,-56.6 4.01,-67.4 34.57,-69.2 0,0 11.86,-25.4 42.5,-27.3 30.65,-1.9 41.67,26.4 41.67,26.4 0,0 89.99,11 113.53,31.2 23.55,20.2 80.25,73.8 102.29,100.9 l 130.24,54.3"
         style="fill:#fbc398;fill-opacity:1;fill-rule:nonzero;stroke:none"
         id="path48" />
      <path
         d="m 5187.36,14625.1 c 0,0 14.41,-98.8 59.94,-196.9 45.53,-98 86.77,-150.6 86.77,-150.6 l 76.66,-57.2 c 0,0 -296.52,-380.5 -436.6,-611.7 -140.09,-231.1 -200.8,-309.2 -232.71,-371.2 -68.48,-133.1 -397.54,-341.7 -398.25,-63.1 -0.46,182.2 301.75,630.4 301.75,686.5 0,56 -129.22,414.4 -129.22,414.4 l 227.28,818.3 h 199.63 c 0,0 115.57,-343.2 129.58,-336.2 14.01,7 73.54,-70 73.54,-70 l 41.63,-62.3"
         style="fill:#fbc398;fill-opacity:1;fill-rule:nonzero;stroke:none"
         id="path50" />
      <path
         d="m 4785.01,9574.2 c 0,0 252.16,-119.1 273.17,-140.1 21.01,-21 266.17,-1190.7 266.17,-1190.7 l -217.14,-13.2 c 0,0 -140.09,1112.8 -147.09,1133.9 -7,21 -175.11,210.1 -175.11,210.1"
         style="fill:#100f0d;fill-opacity:1;fill-rule:nonzero;stroke:none"
         id="path52" />
      <path
         d="m 5541.26,13128.5 c 0,0 -212.09,-173.5 -339.41,-229.6 -127.33,-56 -496.22,-141.2 -496.22,-141.2 0,0 205.46,-36.2 438.94,-26.9 233.48,9.4 543.79,207.7 543.79,207.7 0,0 -95.51,94.3 -147.1,190"
         style="fill:#3268a6;fill-opacity:1;fill-rule:nonzero;stroke:none"
         id="path54" />
      <path
         d="m 6482.8,5195.1 c -0.5,-87.7 0.55,-156.6 4.27,-197.1 21.02,-228.8 14.8,-434.3 14.8,-434.3 0,0 -194.58,23.4 -227.27,46.7 -32.68,23.4 -102.72,154.1 -140.08,177.5 -37.36,23.3 -144.76,74.7 -144.76,74.7 0,0 -0.02,136.1 -10.41,330 158.79,-3.3 348.84,-0.9 503.45,2.5"
         style="fill:#f4f3f3;fill-opacity:1;fill-rule:nonzero;stroke:none"
         id="path56" />
      <path
         d="m 5364.22,5418.2 c -41.32,-264 -65.56,-482.5 -65.56,-490.3 0,-14 -270.83,-18.6 -373.56,28.1 -102.73,46.7 -149.69,102.7 -149.69,102.7 0,0 24.22,155.6 42.49,424.8 235.29,-40.7 436.69,-58.1 546.32,-65.3"
         style="fill:#f4f3f3;fill-opacity:1;fill-rule:nonzero;stroke:none"
         id="path58" />
      <path
         d="m 6170.74,13582.1 -12.94,49.3 c 4.25,-15.5 8.56,-31.9 12.94,-49.3 z m -363.36,507.4 c 0,0 49.49,-268.5 114.86,-343.3 65.33,-74.7 248.65,-165.6 248.88,-165.7 57.47,-228.9 126.21,-613.2 201.55,-851.2 98.06,-309.7 270.84,-479.4 270.84,-479.4 -168.11,247.5 -219.48,583.7 -317.54,901.2 -98.06,317.5 -135.42,569.7 -144.75,593 -9.34,23.4 -169.04,283.1 -169.04,283.1 l -78.12,13 c 0,0 122.89,-163 188.27,-303.1 11,-23.5 22.62,-59.2 34.78,-103.2 l -132.32,201.3 -154.2,185.6 -63.21,68.7"
         style="fill:#dc9b70;fill-opacity:1;fill-rule:nonzero;stroke:none"
         id="path60" />
      <path
         d="m 6543.53,13778.2 c 13.73,-50.6 5.67,33.9 -14.05,193.1 -4.61,37.3 -11.73,88.6 -38.29,192.8 0,0 -107.23,-0.3 -182.63,-30.7 -75.39,-30.3 -78.96,-27.2 -150.97,-47.6 -81.15,-23.1 -191.34,-36.4 -191.34,-36.4 l -158.87,40.1 c 0,0 73.15,-272.1 209.32,-360.9 150.12,-97.9 322.11,-222.4 363.06,-263 40.95,-40.6 -26.53,91.5 22.34,112.2 48.88,20.7 141.43,200.4 141.43,200.4"
         style="fill:#fbc398;fill-opacity:1;fill-rule:nonzero;stroke:none"
         id="path62" />
      <path
         d="m 6399.51,14360.6 -140.04,-53.3 c 0,0 -92.06,-178.5 -110.96,-198.3 -18.9,-19.8 -48.19,-23.8 -48.19,-23.8 0,0 -24.65,-34.5 -58.91,-33.8 -34.27,0.7 -39.43,16.4 -39.43,16.4 0,0 -18.94,-30.2 -60.7,-14.4 0,0 -59.16,-29.3 -68.15,10.6 -9,39.9 6.23,183.1 40.89,223.7 34.67,40.6 236.84,138.1 312.19,154.5 75.33,16.4 173.3,-81.6 173.3,-81.6"
         style="fill:#fbc398;fill-opacity:1;fill-rule:nonzero;stroke:none"
         id="path64" />
      <path
         d="m 5966.25,14049.4 c 0,0 36.84,-40.5 114.01,-59.7 77.18,-19.2 172.61,-81.6 172.61,-81.6 0,0 -19.19,46.9 -25.67,100.6 -6.47,53.8 0.88,96.1 0.88,96.1 l -134.4,-29.5 c 0,0 -13.58,-14.1 -36.03,-21.7 -22.44,-7.7 -50.31,2.4 -50.31,2.4 l -41.09,-6.6"
         style="fill:#dc9b70;fill-opacity:1;fill-rule:nonzero;stroke:none"
         id="path66" />
      <path
         d="m 7275.12,15938.4 c 4.39,1.4 8.68,3.1 13.11,4.3 3.36,0.9 6.66,1.7 10.02,2.6 30.94,8.6 62.38,15.9 94.29,21.7 399.32,80.3 695.83,-9 695.83,-9 0,0 32,-60 75.89,-141.8 381.68,-234.1 659.81,-690.8 701.33,-1233.6 43.48,-568.5 -183.9,-1083.1 -554.93,-1365.7 -55.23,-118.2 -127.77,-196.5 -222.29,-213.7 -556.06,-101.3 -879.36,81.3 -879.36,81.3 l -0.61,0.7 c -451.65,201.1 -793.62,699.8 -840.02,1306.4 -55.96,731.5 336.7,1373.5 906.74,1546.8"
         style="fill:#1e1c1b;fill-opacity:1;fill-rule:nonzero;stroke:none"
         id="path68" />
      <path
         d="m 6636.44,14391.6 c 63.14,-825.5 673.34,-1451.8 1362.92,-1399.1 689.59,52.7 1197.42,764.6 1134.29,1590.1 -63.14,825.4 -673.34,1451.8 -1362.93,1399 -689.58,-52.7 -1197.42,-764.6 -1134.28,-1590"
         style="fill:#343434;fill-opacity:1;fill-rule:nonzero;stroke:none"
         id="path70" />
      <path
         d="m 7618.56,14523.5 c 18.47,-188.7 163.38,-328.9 323.68,-313.2 160.29,15.6 275.27,181.3 256.8,370 -18.46,188.7 -163.38,329 -323.67,313.3 -160.3,-15.7 -275.27,-181.4 -256.81,-370.1"
         style="fill:#d4d3d1;fill-opacity:1;fill-rule:nonzero;stroke:none"
         id="path72" />
      <path
         d="m 7951.74,14722.1 1239.03,245.4 21,-301.1 19.27,-77.1 -1235.83,-184.1 v 0 c -7.1,-2.5 -14.52,-4.1 -22.19,-4.6 -62.25,-4.2 -117.47,64.5 -123.35,153.2 -5.88,88.8 39.82,164.1 102.07,168.3"
         style="fill:#9d9d9c;fill-opacity:1;fill-rule:nonzero;stroke:none"
         id="path74" />
      <path
         d="m 9078.69,14781.9 c 0,-106.3 68.21,-192.6 152.35,-192.6 84.14,0 152.34,86.3 152.34,192.6 0,106.4 -68.2,192.7 -152.34,192.7 -84.14,0 -152.35,-86.3 -152.35,-192.7"
         style="fill:#b9b8b7;fill-opacity:1;fill-rule:nonzero;stroke:none"
         id="path76" />
      <path
         d="m 4040.63,15295.6 c 0,0 -30.5,156.2 14.67,272 45.18,115.7 195.04,204.8 329.36,206.1 134.32,1.3 248.88,59 379.35,45.2 130.47,-13.9 213.85,-112.2 213.85,-112.2 0,0 206.97,8.5 277.55,-296.1 96.7,-417.3 -43.31,-752.2 -46.12,-759.9 -22.09,-60.4 -64.54,-3.7 -134.68,39.3 -70.14,43.1 -246.73,229.6 -246.73,229.6 0,0 -319.65,-115.7 -330.81,-102.4 -11.16,13.3 -387.58,423.9 -387.58,423.9 l -60.32,42.1 c 0,0 -5.39,2.2 -13.49,7 3.16,3.4 4.95,5.4 4.95,5.4"
         style="fill:#252323;fill-opacity:1;fill-rule:nonzero;stroke:none"
         id="path78" />
      <path
         d="m 4040.63,15295.6 c 0,0 -19.42,-203.4 -16.85,-248.6 2.57,-45.2 63.5,-168 66.74,-189.3 3.24,-21.2 -54.13,-267 -47.26,-279.3 6.86,-12.1 95.58,-1.2 100.68,-7.6 5.11,-6.4 36.06,-82.7 36.21,-91 0.16,-8.3 7.26,-24 7.26,-24 0,0 3.32,-34.7 14.83,-49 11.51,-14.4 22.27,-42.1 27.74,-52.4 5.48,-10.2 39.23,-129.7 59.04,-142.7 19.82,-13.1 270.35,45.2 306.53,67.2 36.17,22.1 202.01,297.5 209.62,345.8 7.6,48.4 -28.17,177.2 -28.17,177.2 0,0 98.96,50.5 114.18,147.2 15.21,96.6 -41.69,242.8 -134.51,240.1 -92.8,-2.6 -99.22,-128.3 -100.17,-161.9 -0.95,-33.7 -5.07,-77.7 -8.56,-82 -3.48,-4.2 -83.07,70.1 -115.02,112.8 -31.95,42.7 -18.42,181.7 -47.33,230.1 -28.91,48.3 -114.38,84.4 -149.88,86.3 -35.5,2 -295.08,-78.9 -295.08,-78.9"
         style="fill:#fbc398;fill-opacity:1;fill-rule:nonzero;stroke:none"
         id="path80" />
      <path
         d="m 4548.34,14309.1 c -45.81,-31.9 -112.32,-64.6 -163.68,-87.8 0,0 130.43,-23.2 154.28,-11.5 122.32,59.6 258.62,366.6 266.23,414.9 7.6,48.4 -28.17,177.2 -28.17,177.2 0,0 -0.75,-128.8 -16.97,-193.2 -16.23,-64.4 -127.14,-240.7 -211.69,-299.6"
         style="fill:#dc9b70;fill-opacity:1;fill-rule:nonzero;stroke:none"
         id="path82" />
      <path
         d="m 14726.5,4993.3 c 0,0 252.9,-112 292.2,-177.4 39.4,-65.4 128.1,-639.8 109.4,-672.4 -18.7,-32.7 -261.5,-23.4 -350.2,-56.1 -88.7,-32.7 -798.5,-84 -994.6,-65.3 -196.2,18.6 -253.8,205.4 -250.7,270.8 3.2,65.4 147.9,70 311.4,126.1 163.4,56 271.6,289.5 345.9,364.2 74.3,74.7 130.4,112.1 130.4,112.1 0,0 121.4,168.1 144.7,168.1 23.4,0 261.5,-70.1 261.5,-70.1"
         style="fill:#3970c0;fill-opacity:1;fill-rule:nonzero;stroke:none"
         id="path84" />
      <path
         d="m 13675.9,5152.1 c 0,0 65.3,-28 126,-65.4 60.7,-37.3 212.6,-597.7 216,-611.7 3.5,-14 -398.1,-56 -874.4,-74.7 -476.3,-18.7 -873.2,-14 -957.2,37.3 -84.1,51.4 -126.1,233.5 -51.4,282.6 74.7,49 331.5,67.7 597.7,165.7 266.2,98.1 270.8,294.2 434.3,350.2 163.4,56.1 509,-84 509,-84"
         style="fill:#3970c0;fill-opacity:1;fill-rule:nonzero;stroke:none"
         id="path86" />
      <path
         d="m 13341.7,6440.9 c 0,0 -100.1,-32.7 -170.2,32.7 -70,65.4 -149,187.2 -149,187.2 l 90.8,64.9 291.7,23.4 c 0,0 186.8,26.8 108.4,-95.7 -78.4,-122.6 -171.7,-212.5 -171.7,-212.5"
         style="fill:#100f0d;fill-opacity:1;fill-rule:nonzero;stroke:none"
         id="path88" />
      <path
         d="m 13435,6530.8 c 0,0 -207.4,8.2 -342.8,92.2 -135.5,84.1 -350.3,140.1 -350.3,140.1 0,0 219.5,-163.4 415.6,-565 196.2,-401.6 401.6,-756.5 490.3,-919.9 88.8,-163.5 111.3,-229.9 111.3,-229.9 0,0 -117.9,-179 -206.6,-160.3 -88.7,18.6 -161.5,105.3 -289.9,170.7 -128.4,65.4 -149.3,79.4 -149.3,79.4 0,0 -165.9,317.5 -371.4,555.7 -205.4,238.1 -733.1,713.4 -933.9,1001.1 -200.8,287.7 -312.8,530.5 -247.5,838.7 65.4,308.2 898.4,310.4 1270.2,286 371.8,-24.5 583.7,-444.8 611.7,-542.9 28,-98 168.1,-471.6 168.1,-471.6 L 13435,6530.8"
         style="fill:#f1b68e;fill-opacity:1;fill-rule:nonzero;stroke:none"
         id="path90" />
      <path
         d="m 13241.6,7819.6 h -410.9 c 0,0 149.4,-127.3 256.8,-356.1 107.4,-228.8 242.2,-707 254.2,-797.1 12,-90.1 0,-225.5 0,-225.5 h 264.1 l 177.5,574.4 -126.1,602.3 c 0,0 -196.1,317.6 -214.8,322.2 -18.7,4.7 -200.8,-120.2 -200.8,-120.2"
         style="fill:#1e1c1b;fill-opacity:1;fill-rule:nonzero;stroke:none"
         id="path92" />
      <path
         d="m 11321,11425.4 c 3.7,0.9 7.4,2.1 11.1,2.8 2.9,0.6 5.7,1 8.5,1.6 26.3,5.5 52.9,9.8 79.8,12.9 337,44.7 579,-46.2 579,-46.2 0,0 23.3,-51.7 55.3,-122.3 304.9,-216.1 511.3,-611.9 515.7,-1066.3 4.7,-475.9 -213.2,-891.8 -537.9,-1106.6 -52.5,-95.4 -117.3,-156.6 -197,-165.7 -468.7,-53.5 -727.8,116.5 -727.8,116.5 l -0.5,0.6 c -365,192.6 -622.2,626.9 -627.2,1134.6 -6,612.4 356.6,1125.3 841,1238.1"
         style="fill:#1e1c1b;fill-opacity:1;fill-rule:nonzero;stroke:none"
         id="path94" />
      <path
         d="m 10703.3,10172.4 c 6.8,-690.9 480.3,-1246.4 1057.5,-1240.8 577.3,5.7 1039.7,570.5 1032.9,1261.5 -6.8,690.9 -480.3,1246.5 -1057.5,1240.8 -577.3,-5.7 -1039.7,-570.5 -1032.9,-1261.5"
         style="fill:#343434;fill-opacity:1;fill-rule:nonzero;stroke:none"
         id="path96" />
      <path
         d="m 12559.8,9721.3 c 0,0 19.1,98.8 32.1,154.9 13,56 40.7,188.4 47.7,222.8 l -404.2,-30.6 c 0,0 60.6,-321.4 72.3,-328.4 11.6,-7.1 176.5,-56.1 176.5,-56.1 l 75.6,37.4"
         style="fill:#e8946e;fill-opacity:1;fill-rule:nonzero;stroke:none"
         id="path98" />
      <path
         d="m 12467.7,9847.7 c 0,0 125,-296.5 110.2,-179 -2,15.8 35.9,77.6 55.1,390.6 6.3,104 -39.7,240.5 -57.4,273.1 l -51.8,-196.7 c 0,0 -88.2,-35.8 -160.2,-51.5 -83.6,-18.2 -287.3,-12.8 -287.3,-12.8 l 236.5,-387.5 c 0,0 124.6,-46.7 139.7,-5.5 15,41.1 15.2,169.3 15.2,169.3"
         style="fill:#fbc398;fill-opacity:1;fill-rule:nonzero;stroke:none"
         id="path100" />
      <path
         d="m 12140.4,10038.2 c 0,0 46.2,-120.6 95,-215.4 48.8,-94.7 73.2,10.9 100.2,52.4 27.1,41.5 84.1,157.4 84.1,157.4 l -56.8,121.6 c 0,0 -154.5,-31.3 -164.5,-34.6 -10,-3.4 -58,-81.4 -58,-81.4"
         style="fill:#fbc398;fill-opacity:1;fill-rule:nonzero;stroke:none"
         id="path102" />
      <path
         d="m 13236,8077.9 c 0,0 -110.8,-139.4 -169.2,-139.2 -58.4,0.1 -150.4,-8.7 -230,110.7 -79.6,119.3 -200.8,180.5 -288.5,400.3 -87.8,219.9 -248.5,1275.9 -248.5,1275.9 0,0 -40.7,151.6 -33.4,207.6 l 294.9,-71 353.9,-780.3 585.2,-729.6 -264.4,-274.4"
         style="fill:#fbc398;fill-opacity:1;fill-rule:nonzero;stroke:none"
         id="path104" />
      <path
         d="m 11601.6,10178.1 c -4.8,-128.9 80.1,-236.7 189.6,-240.8 109.5,-4.1 202.2,97 207.1,225.8 4.8,128.9 -80,236.7 -189.6,240.8 -109.5,4.1 -202.2,-97 -207.1,-225.8"
         style="fill:#d4d3d1;fill-opacity:1;fill-rule:nonzero;stroke:none"
         id="path106" />
      <path
         d="m 12698.4,10240.3 c 0,0 -25.2,70.5 -58.9,78.9 -33.6,8.4 -33.6,8.4 -33.6,8.4 0,0 -35.8,23.2 -69.4,27.4 -33.7,4.2 -56.8,-8.4 -56.8,-8.4 0,0 -46.3,16.4 -90.5,9.2 -44.1,-7.1 -33.6,-0.8 -44.1,-7.1 -10.5,-6.3 -37.9,0.8 -79.9,-20.6 -42.1,-21.5 -69.5,-82.9 -69.5,-82.9 l 502.7,-4.9"
         style="fill:#e28b65;fill-opacity:1;fill-rule:nonzero;stroke:none"
         id="path108" />
      <path
         d="m 14616.2,10235.6 -2803.5,48.4 c 0,0 -102.7,-97.6 0,-207.6 l 2843.8,-53.8 70,92.8 -110.3,120.2"
         style="fill:#9d9d9c;fill-opacity:1;fill-rule:nonzero;stroke:none"
         id="path110" />
      <path
         d="m 12614,8827.1 c 0.4,-1.5 -0.5,1.4 0,0"
         style="fill:#e41d25;fill-opacity:1;fill-rule:nonzero;stroke:none"
         id="path112" />
      <path
         d="m 12658.1,9560.6 111.7,497.7 141,95 -22.9,-54.3 28,-38 -10.5,192 42,-62.9 154.1,-13.5 507.6,76.4 238.4,-86.9 c 0,0 -140.1,-248.7 -92.8,-753 47.2,-504.3 397.5,-728.5 607.6,-763.5 210.1,-35 567.3,-357.2 574.3,-385.2 7.1,-28 259.2,-392.3 259.2,-392.3 0,0 -308.2,-28 -651.4,-175.1 -343.2,-147.1 -1016.1,-108.1 -1016.1,-108.1 L 13307,7753 c 0,0 -275.5,397 -392.3,546.4 -98.8,126.5 -277.8,358.1 -329.8,539.3 -85.9,289.6 73.2,721.9 73.2,721.9"
         style="fill:#3970c0;fill-opacity:1;fill-rule:nonzero;stroke:none"
         id="path114" />
      <path
         d="m 15272.9,8049.7 c 0,0 448.2,-390 551,-763.6 102.7,-373.6 -144.8,-723.8 -439,-870.9 -294.2,-147.1 -630.4,-196.1 -889.5,-84 l -133.1,42 c 0,0 189.1,273.2 224.1,588.4 35,315.1 -218.7,651.4 -396.5,791.4 0,0 648.7,79 886.8,116.6 238.2,37.5 196.2,180.1 196.2,180.1"
         style="fill:#1e1c1b;fill-opacity:1;fill-rule:nonzero;stroke:none"
         id="path116" />
      <path
         d="m 13386.4,10609.3 c 0,0 21.3,-109.2 66.8,-207.2 45.6,-98.1 33.9,-69.4 33.9,-69.4 l 194.8,-104.6 c 0,0 -216.2,-287.3 -356.3,-518.5 -140.1,-231.1 -197.7,-445.9 -227.3,-509 -90.9,-193 -291.2,-255 -360.8,-51.3 -30.8,90.1 115,817.3 115,873.3 0,56 -203.8,318.9 -203.8,318.9 l 300.2,726 h 199.7 c 0,0 115.5,-343.2 129.5,-336.2 14,7 73.6,-70.1 73.6,-70.1 l 34.7,-51.9"
         style="fill:#fbc398;fill-opacity:1;fill-rule:nonzero;stroke:none"
         id="path118" />
      <path
         d="m 13847.5,10166.1 c 0,0 155.2,-54.9 272,-125 l 494.9,-810.1 581.4,-1358.9 c 0,0 -105.1,-35 -273.2,154.1 -168.1,189.1 -560.3,623.4 -560.3,623.4 0,0 -451.9,78.9 -576.2,585.8 -124.3,506.9 32.2,836.1 61.4,930.7"
         style="fill:#fbc398;fill-opacity:1;fill-rule:nonzero;stroke:none"
         id="path120" />
      <path
         d="m 13973,10115.4 c 0,0 -40.3,-213.1 29.7,-351.5 70.1,-138.3 145.6,-196.5 187.2,-277.2 41.6,-80.6 311.3,-631.6 426.3,-888.5 115,-256.8 253.6,-470 366.4,-538.5 112.8,-68.5 173.5,230.3 98.8,403.1 -74.7,172.8 -681.8,1396.2 -681.8,1396.2 l -303.3,192.2 -123.3,64.2"
         style="fill:#dc9b70;fill-opacity:1;fill-rule:nonzero;stroke:none"
         id="path122" />
      <path
         d="m 14278.2,9635.7 c 0,0 288.3,-778.8 319.4,-835.8 31.1,-56.9 184.9,-402.3 269.1,-563.5 84.2,-161.2 220.3,-305.2 304.9,-370.6 84.6,-65.4 294.9,-62 413.8,14 118.9,76.1 32.8,292.3 30.7,381.1 -2.2,88.8 -17.6,184.2 -66.6,269.6 -49,85.5 -834.1,966.8 -937.6,1105.2 h -333.7"
         style="fill:#fbc398;fill-opacity:1;fill-rule:nonzero;stroke:none"
         id="path124" />
      <path
         d="m 14611.9,9635.7 c 0.8,-52.4 13.8,31.4 34.1,190.6 4.7,37.3 10.5,88.8 10.5,196.3 0,0 -104,26.2 -184.6,15.4 -80.5,-10.8 -83.2,-6.9 -158.1,-8.9 -84.3,-2.3 -194.3,12 -194.3,12 l -146.5,74.3 c 0,0 6.1,-278 116.1,-397.6 121.3,-131.9 257.2,-295.1 286.9,-344.5 29.6,-49.5 -3.1,95.2 49.3,103.2 52.5,7.9 186.6,159.2 186.6,159.2"
         style="fill:#fbc398;fill-opacity:1;fill-rule:nonzero;stroke:none"
         id="path126" />
      <path
         d="m 14616.2,10235.6 -148.9,-17 c 0,0 -133.3,-150.2 -156.5,-164.7 -23.2,-14.5 -52.6,-11.2 -52.6,-11.2 0,0 -32.4,-27.4 -65.4,-18.2 -33,9.1 -34.2,25.6 -34.2,25.6 0,0 -25.8,-24.6 -62.3,1.1 0,0 -64.6,-13.8 -63.5,27.1 1.2,40.9 51.3,175.8 94.9,206.6 43.6,30.8 263.6,75.3 340.7,72.6 77,-2.7 147.8,-121.9 147.8,-121.9"
         style="fill:#fbc398;fill-opacity:1;fill-rule:nonzero;stroke:none"
         id="path128" />
      <path
         d="m 12741.9,6763.1 c -39,32.1 -144.7,74.8 -294.1,126.1 -149.5,51.3 -382.9,154.1 -382.9,154.1 0,0 242.8,-224.2 452.9,-317.6 210.1,-93.3 562.7,-383.1 562.7,-383.1 0,0 -179.8,289.8 -338.6,420.5"
         style="fill:#dc9b70;fill-opacity:1;fill-rule:nonzero;stroke:none"
         id="path130" />
      <path
         d="m 12577.9,10289.1 c 0,0 -91.6,113.7 -133.9,132 -42.3,18.3 -147.4,7 -216.4,-16.5 -69.1,-23.4 -120.8,-80.3 -128.4,-136.5 -7.6,-56.2 -9.5,-66.7 20,-74.7 0,0 6.6,-27.2 36.2,-35.2 29.6,-8 46.1,17.5 46.1,17.5 0,0 90.4,-7.3 117.5,7.9 27.1,15.1 93.4,56.2 120.4,78.3 l 138.5,27.2"
         style="fill:#fbc398;fill-opacity:1;fill-rule:nonzero;stroke:none"
         id="path132" />
      <path
         d="m 12620.7,9984.1 c 0,0 27.9,162.1 15.1,234.5 -12.9,72.4 -43.8,178.2 -83,200.8 -39.1,22.6 -50.4,-154.2 -47.3,-248 0.5,-16.1 -14.9,-31 -42.2,-136.7 -27.2,-105.6 -21.7,-145.3 0,-133.6 21.8,11.6 157.4,83 157.4,83"
         style="fill:#fbc398;fill-opacity:1;fill-rule:nonzero;stroke:none"
         id="path134" />
      <path
         d="m 13896.2,8976.5 c 0,0 -71.1,-116.8 -157.4,-177.5 -86.3,-60.7 -315.1,-182.1 -315.1,-182.1 0,0 200.8,44 373.6,110.7 172.7,66.8 220.6,107.4 220.6,107.4 0,0 -97.4,76.2 -121.7,141.5"
         style="fill:#3268a6;fill-opacity:1;fill-rule:nonzero;stroke:none"
         id="path136" />
      <path
         d="m 14277.1,8674.4 c -19.3,6.5 -40.3,14.1 -61.1,22.9 -38.6,18.3 -78.2,41.5 -117.4,70.1 66.4,-46.3 130.2,-75.4 178.5,-93"
         style="fill:#edc9b0;fill-opacity:1;fill-rule:nonzero;stroke:none"
         id="path138" />
      <path
         d="m 14216,8697.3 c -33.5,14.1 -66.6,31 -91.9,50.4 -41.1,18.3 -79.7,49 -113,82.2 2.3,1.6 4,2.8 5.1,3.7 27.3,-25.2 55.1,-47.2 82.4,-66.2 39.2,-28.6 78.8,-51.8 117.4,-70.1 m -223.9,159.6 c -10.5,9.4 -23.3,21.3 -36.1,34.7 -27.9,34.9 -47.6,65.3 -55.7,78.3 28.5,-43.1 59.7,-80.5 91.8,-113"
         style="fill:#858c98;fill-opacity:1;fill-rule:nonzero;stroke:none"
         id="path140" />
      <path
         d="m 14362.3,8649.6 c 0,0 -37.5,8.8 -85.2,24.8 -48.3,17.6 -112.1,46.7 -178.5,93 -27.3,19 -55.1,41 -82.4,66.2 1.2,0.9 1.7,1.4 1.7,1.4 0,0 -10.6,8.3 -25.8,21.9 -32.1,32.5 -63.3,69.9 -91.8,113 -2.7,4.3 -4.1,6.6 -4.1,6.6 v 0 c 14.9,98.2 0,140.1 0,140.1 0,0 189.2,-98.8 209.1,-98.8 0,0 0.1,0 0.2,0 v 0 c 19.1,0 256.8,-368.2 256.8,-368.2"
         style="fill:#eaac82;fill-opacity:1;fill-rule:nonzero;stroke:none"
         id="path142" />
      <path
         d="m 14011.1,8829.9 c -20.6,20.4 -39.2,41.8 -55.1,61.7 12.8,-13.4 25.6,-25.3 36.1,-34.7 15.2,-13.6 25.8,-21.9 25.8,-21.9 0,0 -0.5,-0.5 -1.7,-1.4 -1.1,-0.9 -2.8,-2.1 -5.1,-3.7 m -114.9,146.6 v 0 0 0"
         style="fill:#83898a;fill-opacity:1;fill-rule:nonzero;stroke:none"
         id="path144" />
      <path
         d="m 15529.6,11544.6 c 4.4,1.1 8.8,2.7 13.3,3.7 3.4,0.7 6.7,1.4 10.1,2.1 31.3,7.2 63,13.1 95.2,17.5 402.5,62.3 694.7,-40.2 694.7,-40.2 0,0 29.3,-61.3 69.5,-145.1 370.8,-250.9 628.2,-719.6 645.3,-1263.7 18,-569.9 -232.2,-1073.8 -615.5,-1339.4 -60.5,-115.7 -136.4,-190.7 -231.6,-203.7 -560.1,-76.2 -874.9,120.7 -874.9,120.7 l -0.5,0.7 c -442.2,221.1 -761.5,734.6 -780.7,1342.7 -23.2,733.3 397.9,1357 975.1,1504.7"
         style="fill:#1e1c1b;fill-opacity:1;fill-rule:nonzero;stroke:none"
         id="path146" />
      <path
         d="m 14822.3,10027.9 c 26.1,-827.5 607.6,-1480.5 1298.9,-1458.7 691.2,21.8 1230.4,710.2 1204.3,1537.7 -26.1,827.4 -607.6,1480.5 -1298.9,1458.7 -691.2,-21.9 -1230.4,-710.3 -1204.3,-1537.7"
         style="fill:#343434;fill-opacity:1;fill-rule:nonzero;stroke:none"
         id="path148" />
      <path
         d="m 15866,10130.3 c -10.9,-187 109.1,-346.2 268,-355.4 158.9,-9.3 296.5,134.8 307.4,321.9 10.9,187 -109.1,346.2 -268,355.4 -158.9,9.3 -296.5,-134.9 -307.4,-321.9"
         style="fill:#d4d3d1;fill-opacity:1;fill-rule:nonzero;stroke:none"
         id="path150" />
      <path
         d="m 16197.4,10258.5 1263,-16.5 -41.8,-299 2.8,-79.3 -1247.1,75.8 v 0 c -7.5,-1 -15.1,-1 -22.7,0 -61.7,8.9 -101.6,87.5 -88.9,175.6 12.6,88 72.9,152.2 134.7,143.4"
         style="fill:#9d9d9c;fill-opacity:1;fill-rule:nonzero;stroke:none"
         id="path152" />
      <path
         d="m 17309.7,10067.2 c -10.5,-105.9 48.9,-198.5 132.6,-206.8 83.8,-8.3 160.1,70.8 170.6,176.7 10.5,105.8 -48.8,198.4 -132.5,206.7 -83.8,8.3 -160.2,-70.8 -170.7,-176.6"
         style="fill:#b9b8b7;fill-opacity:1;fill-rule:nonzero;stroke:none"
         id="path154" />
      <path
         d="m 14436.9,6500.5 c 0,0 52.5,-113.3 101,-414.5 48.5,-301.2 384.7,-1337.8 384.7,-1337.8 0,0 -156.5,-63.1 -242.9,0 -86.3,63 -182.3,133.1 -242.8,147.1 -60.6,14 -116.6,0 -116.6,0 0,0 -105.1,343.2 -280.2,658.4 -175.1,315.2 -406.3,630.4 -511.3,826.5 -105.1,196.1 -319.9,424.9 -394.6,681.8 -74.7,256.8 56,499.6 308.2,593 252.1,93.4 747.5,98 747.5,98 0,0 287.3,-201.4 383.9,-593.3 96.7,-391.9 -136.9,-659.2 -136.9,-659.2"
         style="fill:#fbc398;fill-opacity:1;fill-rule:nonzero;stroke:none"
         id="path156" />
      <path
         d="m 14082.1,6889.2 c 0,0 223.9,-114.2 354.8,-388.7 l 85.3,138.4 c 0,0 -131.9,254.9 -440.1,250.3"
         style="fill:#dc9b70;fill-opacity:1;fill-rule:nonzero;stroke:none"
         id="path158" />
      <path
         d="m 14119.5,10041.1 c 0,0 25.6,-48.4 95.7,-86 70,-37.7 147.1,-121.8 147.1,-121.8 0,0 -7,50.2 0,103.9 7,53.7 24.6,93 24.6,93 l -137.6,4.5 c 0,0 -16.6,-10.3 -40.2,-12.1 -23.7,-1.9 -48.2,14.8 -48.2,14.8 l -41.4,3.7"
         style="fill:#dc9b70;fill-opacity:1;fill-rule:nonzero;stroke:none"
         id="path160" />
      <path
         d="m 14764.7,5250.8 c 83.7,-273.8 157.9,-502.6 157.9,-502.6 0,0 -156.5,-63.1 -242.9,0 -86.3,63 -182.3,133.1 -242.8,147.1 -60.6,14 -116.6,0 -116.6,0 0,0 -49.5,161.4 -137,364.6 205.7,-16.2 410.4,-15.6 581.4,-9.1"
         style="fill:#f4f3f3;fill-opacity:1;fill-rule:nonzero;stroke:none"
         id="path162" />
      <path
         d="m 13535.7,5480.6 c 46,-82.9 84.7,-151.9 112.1,-202.4 88.8,-163.5 111.3,-229.9 111.3,-229.9 0,0 -117.9,-179 -206.6,-160.3 -88.7,18.7 -161.5,105.3 -289.9,170.7 -128.4,65.4 -149.3,79.4 -149.3,79.4 0,0 -74.8,143.1 -186.1,309.2 218.7,2.9 441.9,18.6 608.5,33.3"
         style="fill:#f4f3f3;fill-opacity:1;fill-rule:nonzero;stroke:none"
         id="path164" />
      <path
         d="m 12442.1,10021 63.4,40.8 c 0,0 -28,15.1 -141.9,22.4 -114,7.2 -243.4,-20.3 -243.4,-20.3 l 185.5,-79.8 136.4,36.9"
         style="fill:#fbc398;fill-opacity:1;fill-rule:nonzero;stroke:none"
         id="path166" />
      <path
         d="m 12471.7,10069.8 c 0,0 -58.2,-13.2 -103.9,-47.2 -45.7,-34.1 -62.1,-38.5 -62.1,-38.5 0,0 -79.1,66.1 -144.2,87.3 0,0 103,51.7 310.2,-1.6"
         style="fill:#dc9b70;fill-opacity:1;fill-rule:nonzero;stroke:none"
         id="path168" />
      <path
         d="m 13436,10630.6 123.1,-377.6 -53.7,-43.7 c 0,0 -315.2,187.2 -310.5,257 4.7,69.8 -62.3,370.4 -62.3,370.4 l 303.4,-206.1"
         style="fill:#fbc398;fill-opacity:1;fill-rule:nonzero;stroke:none"
         id="path170" />
      <path
         d="m 13973,10115.4 c 0,0 -0.8,57.6 34.4,93.9 35.2,36.2 58.4,-30.7 86.4,-123.9 28,-93.3 58.4,-156.3 42,-148.2 -16.3,8.2 -67.1,5.9 -79.1,8.2 -11.9,2.4 -83.7,170 -83.7,170"
         style="fill:#fbc398;fill-opacity:1;fill-rule:nonzero;stroke:none"
         id="path172" />
      <path
         d="m 12273.4,11248.6 c 0,0 -34.5,155.3 7.7,272.2 42.2,116.9 189.7,209.8 323.9,214.5 134.3,4.8 247.3,65.4 378.1,55 130.8,-10.5 216.7,-106.6 216.7,-106.6 0,0 206.7,13.7 285,-288.9 107.4,-414.7 -26.4,-752.7 -26.5,-760.9 -0.9,-68.9 -64.5,-5.4 -135.7,35.9 -71.2,41.2 -252.5,223.1 -252.5,223.1 0,0 -316.6,-123.8 -328.1,-110.8 -11.5,13 -398.3,413.8 -398.3,413.8 l -61.4,40.5 c 0,0 8.9,-16 0.7,-11.4 3,3.5 -9.6,23.6 -9.6,23.6"
         style="fill:#252323;fill-opacity:1;fill-rule:nonzero;stroke:none"
         id="path174" />
      <path
         d="m 12273.4,11248.6 c 0,0 -14.2,-203.8 -10.4,-249 3.7,-45.2 67.8,-166.3 71.5,-187.5 3.8,-21.1 -47.2,-268.3 -40,-280.4 7.2,-12 95.6,1.2 100.8,-5 5.3,-6.3 38.2,-81.8 38.6,-90.1 0.3,-8.2 7.8,-23.7 7.8,-23.7 0,0 4.2,-34.6 16.1,-48.7 11.9,-14.1 23.4,-41.5 29.1,-51.6 5.7,-10.1 42.5,-128.7 62.7,-141.2 20.1,-12.6 269.1,52.1 304.7,75.1 35.6,23 194.3,302.6 200.6,351.1 6.4,48.5 -32.7,176.3 -32.7,176.3 0,0 97.7,53.1 110.4,150.1 12.7,97 -47.9,241.7 -140.6,236.6 -92.8,-5 -95.9,-130.8 -96,-164.5 -0.1,-33.6 -3.1,-77.8 -6.5,-82.1 -3.3,-4.3 -84.8,67.9 -117.8,109.8 -33.1,41.9 -23.1,181.1 -53.3,228.8 -30.1,47.6 -116.5,81.4 -152,82.5 -35.6,1 -293,-86.5 -293,-86.5"
         style="fill:#fbc398;fill-opacity:1;fill-rule:nonzero;stroke:none"
         id="path176" />
      <path
         d="m 12806.3,10275.4 c -45,-33 -110.6,-67.4 -161.4,-91.9 0,0 131,-19.8 154.6,-7.6 120.7,62.8 249.1,373.2 255.4,421.7 6.4,48.5 -32.7,176.3 -32.7,176.3 0,0 2.6,-128.7 -12,-193.5 -14.5,-64.8 -120.9,-243.9 -203.9,-305"
         style="fill:#dc9b70;fill-opacity:1;fill-rule:nonzero;stroke:none"
         id="path178" />
    </g>
  </g>
</svg>
