<?xml version="1.0" encoding="UTF-8" standalone="no"?>
<!-- Created with Inkscape (http://www.inkscape.org/) -->

<svg
   version="1.1"
   id="svg2"
   width="2666.6667"
   height="2666.6667"
   viewBox="0 0 2666.6667 2666.6667"
   sodipodi:docname="benchinky.svg"
   inkscape:version="1.2.2 (b0a8486541, 2022-12-01)"
   xmlns:inkscape="http://www.inkscape.org/namespaces/inkscape"
   xmlns:sodipodi="http://sodipodi.sourceforge.net/DTD/sodipodi-0.dtd"
   xmlns="http://www.w3.org/2000/svg"
   xmlns:svg="http://www.w3.org/2000/svg">
  <defs
     id="defs6" />
  <sodipodi:namedview
     id="namedview4"
     pagecolor="#ffffff"
     bordercolor="#000000"
     borderopacity="0.25"
     inkscape:showpageshadow="2"
     inkscape:pageopacity="0.0"
     inkscape:pagecheckerboard="0"
     inkscape:deskcolor="#d1d1d1"
     showgrid="false"
     inkscape:zoom="0.31574998"
     inkscape:cx="1333.3334"
     inkscape:cy="1334.9169"
     inkscape:window-width="1854"
     inkscape:window-height="1011"
     inkscape:window-x="66"
     inkscape:window-y="32"
     inkscape:window-maximized="1"
     inkscape:current-layer="g12">
    <inkscape:page
       x="0"
       y="0"
       id="page8"
       width="2666.6667"
       height="2666.6667" />
  </sodipodi:namedview>
  <g
     id="g10"
     inkscape:groupmode="layer"
     inkscape:label="Page 1"
     transform="matrix(1.3333333,0,0,-1.3333333,0,2666.6667)">
    <g
       id="g12"
       transform="scale(0.1)">
      <path
         d="m 9670,14302.3 c 3.61,-70.6 -13.3,-128.8 -37.75,-130 -24.46,-1.3 -47.21,54.9 -50.8,125.4 -3.61,70.6 13.3,128.8 37.75,130 24.46,1.3 47.2,-54.9 50.8,-125.4"
         style="fill:#dfdfdd;fill-opacity:1;fill-rule:nonzero;stroke:none"
         id="path16" />
      <path
         d="m 9124.18,7707.5 92.39,226 c 0,0 -182.1,34.7 -184.99,0 -2.89,-34.7 92.6,-226 92.6,-226"
         style="fill:#100f0d;fill-opacity:1;fill-rule:nonzero;stroke:none"
         id="path18" />
      <path
         d="m 9154.56,10455.9 -780.69,-160.5 61.92,-188.6 753.96,163.1 c 0,0 74.66,107.4 -35.19,186"
         style="fill:#bbbab8;fill-opacity:1;fill-rule:nonzero;stroke:none"
         id="path20" />
      <path
         d="m 6902.47,12066.7 -34.4,66.6 h 263.64 c 0,0 -16.39,-154.8 -16.39,-183.8 0,-29 -82.73,-115 -89.74,-124.7 -7.02,-9.7 -58.61,-18.3 -71.51,0 -12.9,18.3 -27.95,-9.7 -19.35,33.3 8.6,43 -32.25,208.6 -32.25,208.6"
         style="fill:#4e4f51;fill-opacity:1;fill-rule:nonzero;stroke:none"
         id="path22" />
      <path
         d="m 7181.96,12064.5 c -2.15,10.8 -50.25,68.8 -50.25,68.8 l -61.54,-47.3 -44.59,-202.1 -22.06,-34.4 h -36.55 l -23.65,51.6 -12.9,180.6 -62.35,51.6 10.75,-227.9 40.63,-139.7 h 130.56 l 81.7,118.2 50.25,180.6"
         style="fill:#8e8e8e;fill-opacity:1;fill-rule:nonzero;stroke:none"
         id="path24" />
      <path
         d="m 6663.01,8650.7 -77.39,41.2 -63.07,-97.1 94.6,-83.2 105.87,20.1 9.11,70.1 -69.12,48.9"
         style="fill:#4e4f51;fill-opacity:1;fill-rule:nonzero;stroke:none"
         id="path26" />
      <path
         d="m 6777.68,8580.4 -93.17,14.4 -67.36,-83.2 834.19,-730.9 28.66,157.6 -702.32,642.1"
         style="fill:#656769;fill-opacity:1;fill-rule:nonzero;stroke:none"
         id="path28" />
      <path
         d="m 6425.08,7961.2 665.06,123.3 v 179.8 l -665.06,-128.2 v -174.9"
         style="fill:#656769;fill-opacity:1;fill-rule:nonzero;stroke:none"
         id="path30" />
      <path
         d="M 7090.14,8084.5 8118.55,8284 v 164.6 l -783.04,-140.3 -245.37,-223.8"
         style="fill:#656769;fill-opacity:1;fill-rule:nonzero;stroke:none"
         id="path32" />
      <path
         d="m 6278.88,8290.9 660.7,105.7 150.56,-132.3 -665.06,-128.2 -146.2,154.8"
         style="fill:#b0b0ae;fill-opacity:1;fill-rule:nonzero;stroke:none"
         id="path34" />
      <path
         d="m 6919.45,8354 20.13,42.6 991.92,181 187.05,-129 -1028.41,-184.3 -170.69,89.7"
         style="fill:#b0b0ae;fill-opacity:1;fill-rule:nonzero;stroke:none"
         id="path36" />
      <path
         d="m 6219.16,8067.3 -29.14,33 -147.82,164 236.68,26.6 146.2,-154.8 -205.92,-68.8"
         style="fill:#3e3d3f;fill-opacity:1;fill-rule:nonzero;stroke:none"
         id="path38" />
      <path
         d="m 6684.51,8594.8 276.63,-215 129,-115.5 389.86,-326 255.14,60.2 -814.13,631.1 -236.5,-34.8"
         style="fill:#b0b0ae;fill-opacity:1;fill-rule:nonzero;stroke:none"
         id="path40" />
      <path
         d="m 6921.01,8629.6 -126.13,77 -209.26,-14.7 98.89,-97.1 236.5,34.8"
         style="fill:#3e3d3f;fill-opacity:1;fill-rule:nonzero;stroke:none"
         id="path42" />
      <path
         d="m 7451.34,7780.7 143.33,-134.3 v 197.3 l -114.67,94.6 -28.66,-157.6"
         style="fill:#4e4f51;fill-opacity:1;fill-rule:nonzero;stroke:none"
         id="path44" />
      <path
         d="m 7735.14,7998.5 114.66,-94.6 -255.13,-60.2 -114.67,94.6 255.14,60.2"
         style="fill:#3e3d3f;fill-opacity:1;fill-rule:nonzero;stroke:none"
         id="path46" />
      <path
         d="m 7594.67,7646.4 306.73,91.2 -51.6,166.3 -255.13,-60.2 v -197.3"
         style="fill:#252323;fill-opacity:1;fill-rule:nonzero;stroke:none"
         id="path48" />
      <path
         d="m 7931.5,8577.6 178.45,24.2 184.9,-112.4 -176.3,-40.8 -187.05,129"
         style="fill:#3e3d3f;fill-opacity:1;fill-rule:nonzero;stroke:none"
         id="path50" />
      <path
         d="m 8118.55,8284 245.1,50.6 -68.8,154.8 -176.3,-40.8 V 8284"
         style="fill:#252323;fill-opacity:1;fill-rule:nonzero;stroke:none"
         id="path52" />
      <path
         d="m 7050.01,10903.9 v 861.8 h -130.56 v -883.6 l 38.83,-2449.3 131.86,-119 41.57,40.2 -81.7,2549.9"
         style="fill:#8e8e8e;fill-opacity:1;fill-rule:nonzero;stroke:none"
         id="path54" />
      <path
         d="m 7342.41,10903.9 -19.05,861.8 h -273.35 v -861.8 l 40.13,-2590.1 263.73,20.1 -11.46,2570"
         style="fill:#656769;fill-opacity:1;fill-rule:nonzero;stroke:none"
         id="path56" />
      <path
         d="m 7407.71,11883.9 -84.35,-118.2 h -273.35 l 81.7,118.2 h 276"
         style="fill:#4e4f51;fill-opacity:1;fill-rule:nonzero;stroke:none"
         id="path58" />
      <path
         d="m 7407.71,11883.9 h -276 v 249.4 h 276 v -249.4"
         style="fill:#656769;fill-opacity:1;fill-rule:nonzero;stroke:none"
         id="path60" />
      <path
         d="m 7259.99,8499.1 c 0,-35.4 -28.72,-64.1 -64.14,-64.1 -35.43,0 -64.14,28.7 -64.14,64.1 0,35.4 28.71,64.1 64.14,64.1 35.42,0 64.14,-28.7 64.14,-64.1"
         style="fill:#b0b0ae;fill-opacity:1;fill-rule:nonzero;stroke:none"
         id="path62" />
      <path
         d="m 6190.02,8100.3 -21.5,-176.3 256.56,37.2 v 174.9 l -235.06,-35.8"
         style="fill:#252323;fill-opacity:1;fill-rule:nonzero;stroke:none"
         id="path64" />
      <path
         d="m 6042.2,8264.3 -42,-151.5 168.32,-188.8 21.5,176.3 -147.82,164"
         style="fill:#4e4f51;fill-opacity:1;fill-rule:nonzero;stroke:none"
         id="path66" />
      <path
         d="m 8652.39,10209.6 c -61.53,439.5 -315.1,787 -619.85,898 -354.3,137.3 -605.97,-50.7 -605.97,-50.7 l 68.99,-15.5 c -272.48,-185.4 -428.17,-596.5 -365.39,-1044.9 53.44,-381.8 251.8,-694.1 502.71,-842.3 31.9,-59.3 74.16,-97 129.18,-105.6 434.39,-67.9 656,232.4 656,232.4 v 0 c 188.96,213.3 286.18,558.2 234.33,928.6"
         style="fill:#295a9b;fill-opacity:1;fill-rule:nonzero;stroke:none"
         id="path68" />
      <path
         d="m 8529.76,10192.4 c 80.13,-572.3 -195.68,-1084 -616.03,-1142.9 -420.35,-58.8 -826.07,357.5 -906.2,929.8 -80.12,572.4 195.68,1084.1 616.03,1142.9 420.36,58.9 826.07,-357.4 906.2,-929.8"
         style="fill:#3777b3;fill-opacity:1;fill-rule:nonzero;stroke:none"
         id="path70" />
      <path
         d="m 8410.45,10151.6 c 67.22,-480.2 -164.15,-909.4 -516.77,-958.8 -352.63,-49.4 -692.98,299.8 -760.2,780 -67.22,480.1 164.15,909.4 516.78,958.8 352.62,49.3 692.97,-299.9 760.19,-780"
         style="fill:#408dbf;fill-opacity:1;fill-rule:nonzero;stroke:none"
         id="path72" />
      <path
         d="m 7996.72,10087.5 c -10.58,115.6 -69.13,210.7 -144.65,250.1 -99,53.4 -205.1,-3.2 -205.1,-3.2 l 25.77,-14.4 c -66,-53 -105.44,-156.4 -94.95,-270.9 7.79,-85 41.53,-159 88.89,-207.9 3.82,-43.5 16.91,-72.8 44.58,-75.3 118.68,-10.4 183.43,45.3 183.43,45.3 v 0 c 70.23,51.2 112.89,157.7 102.03,276.3"
         style="fill:#252323;fill-opacity:1;fill-rule:nonzero;stroke:none"
         id="path74" />
      <path
         d="m 7920.73,10073.6 c 14.59,-159.2 -67.37,-296.9 -183.05,-307.5 -115.69,-10.6 -221.3,109.9 -235.88,269.2 -14.59,159.2 67.37,296.9 183.05,307.5 115.69,10.6 221.3,-109.9 235.88,-269.2"
         style="fill:#3e3d3f;fill-opacity:1;fill-rule:nonzero;stroke:none"
         id="path76" />
      <path
         d="m 7796.98,10059.8 c 12.25,-74.2 -22.3,-141.7 -77.18,-150.8 -54.88,-9 -109.3,43.8 -121.55,118 -12.25,74.2 22.3,141.7 77.18,150.7 54.88,9.1 109.3,-43.7 121.55,-117.9"
         style="fill:#252323;fill-opacity:1;fill-rule:nonzero;stroke:none"
         id="path78" />
      <path
         d="m 1535.43,11078.5 -43.7,84.7 h 334.98 c 0,0 -20.83,-196.7 -20.83,-233.6 0,-36.9 -105.11,-146.1 -114.02,-158.4 -8.91,-12.3 -74.47,-23.3 -90.86,0 -16.4,23.2 -35.52,-12.3 -24.59,42.3 10.93,54.6 -40.98,265 -40.98,265"
         style="fill:#4e4f51;fill-opacity:1;fill-rule:nonzero;stroke:none"
         id="path80" />
      <path
         d="m 1890.56,11075.8 c -2.73,13.6 -63.85,87.4 -63.85,87.4 l -78.2,-60.1 -56.65,-256.8 -28.03,-43.7 h -46.44 l -30.05,65.5 -16.39,229.5 -79.22,65.6 13.66,-289.6 51.62,-177.6 h 165.89 l 103.81,150.3 63.85,229.5"
         style="fill:#8e8e8e;fill-opacity:1;fill-rule:nonzero;stroke:none"
         id="path82" />
      <path
         d="m 1231.19,6738.2 -98.34,52.4 -80.14,-123.5 120.2,-105.6 134.52,25.5 11.58,89.1 -87.82,62.1"
         style="fill:#4e4f51;fill-opacity:1;fill-rule:nonzero;stroke:none"
         id="path84" />
      <path
         d="m 1376.88,6648.9 -118.37,18.2 -85.6,-105.6 1059.91,-928.8 36.43,200.4 -892.37,815.8"
         style="fill:#656769;fill-opacity:1;fill-rule:nonzero;stroke:none"
         id="path86" />
      <path
         d="m 928.879,5862.2 845.011,156.6 v 228.5 L 928.879,6084.4 v -222.2"
         style="fill:#656769;fill-opacity:1;fill-rule:nonzero;stroke:none"
         id="path88" />
      <path
         d="m 1773.89,6018.8 1306.68,253.4 v 209.2 l -994.91,-178.3 -311.77,-284.3"
         style="fill:#656769;fill-opacity:1;fill-rule:nonzero;stroke:none"
         id="path90" />
      <path
         d="m 743.121,6281.1 839.479,134.2 191.29,-168 -845.011,-162.9 -185.758,196.7"
         style="fill:#b0b0ae;fill-opacity:1;fill-rule:nonzero;stroke:none"
         id="path92" />
      <path
         d="m 1557.01,6361.2 25.59,54.1 1260.31,230 237.66,-163.9 -1306.68,-234.1 -216.88,113.9"
         style="fill:#b0b0ae;fill-opacity:1;fill-rule:nonzero;stroke:none"
         id="path94" />
      <path
         d="m 667.234,5997 -37.023,41.8 -187.816,208.5 300.726,33.8 185.758,-196.7 -261.645,-87.4"
         style="fill:#3e3d3f;fill-opacity:1;fill-rule:nonzero;stroke:none"
         id="path96" />
      <path
         d="m 1258.51,6667.1 351.48,-273 163.9,-146.8 495.36,-414.2 324.16,76.5 -1034.41,801.8 -300.49,-44.3"
         style="fill:#b0b0ae;fill-opacity:1;fill-rule:nonzero;stroke:none"
         id="path98" />
      <path
         d="m 1559,6711.4 -160.26,97.8 -265.89,-18.6 125.66,-123.5 300.49,44.3"
         style="fill:#3e3d3f;fill-opacity:1;fill-rule:nonzero;stroke:none"
         id="path100" />
      <path
         d="m 2232.82,5632.7 182.12,-170.5 v 250.7 l -145.69,120.2 -36.43,-200.4"
         style="fill:#4e4f51;fill-opacity:1;fill-rule:nonzero;stroke:none"
         id="path102" />
      <path
         d="m 2593.41,5909.6 145.7,-120.2 -324.17,-76.5 -145.69,120.2 324.16,76.5"
         style="fill:#3e3d3f;fill-opacity:1;fill-rule:nonzero;stroke:none"
         id="path104" />
      <path
         d="m 2414.94,5462.2 389.73,115.9 -65.56,211.3 -324.17,-76.5 v -250.7"
         style="fill:#252323;fill-opacity:1;fill-rule:nonzero;stroke:none"
         id="path106" />
      <path
         d="m 2842.91,6645.3 226.73,30.8 234.94,-142.8 -224.01,-51.9 -237.66,163.9"
         style="fill:#3e3d3f;fill-opacity:1;fill-rule:nonzero;stroke:none"
         id="path108" />
      <path
         d="m 3080.57,6272.2 311.42,64.4 -87.41,196.7 -224.01,-51.9 v -209.2"
         style="fill:#252323;fill-opacity:1;fill-rule:nonzero;stroke:none"
         id="path110" />
      <path
         d="m 1722.9,9601 v 1095 H 1557.01 V 9573.3 l 49.34,-3111.9 167.54,-151.2 52.82,51 L 1722.9,9601"
         style="fill:#8e8e8e;fill-opacity:1;fill-rule:nonzero;stroke:none"
         id="path112" />
      <path
         d="m 2094.41,9601 -24.2,1095 H 1722.9 V 9601 l 50.99,-3290.8 335.09,25.5 -14.57,3265.3"
         style="fill:#656769;fill-opacity:1;fill-rule:nonzero;stroke:none"
         id="path114" />
      <path
         d="M 2177.39,10846.3 2070.21,10696 H 1722.9 l 103.81,150.3 h 350.68"
         style="fill:#4e4f51;fill-opacity:1;fill-rule:nonzero;stroke:none"
         id="path116" />
      <path
         d="m 2177.39,10846.3 h -350.68 v 316.9 h 350.68 v -316.9"
         style="fill:#656769;fill-opacity:1;fill-rule:nonzero;stroke:none"
         id="path118" />
      <path
         d="m 1989.7,6545.6 c 0,-45 -36.49,-81.5 -81.5,-81.5 -45.01,0 -81.49,36.5 -81.49,81.5 0,45 36.48,81.5 81.49,81.5 45.01,0 81.5,-36.5 81.5,-81.5"
         style="fill:#b0b0ae;fill-opacity:1;fill-rule:nonzero;stroke:none"
         id="path120" />
      <path
         d="m 630.211,6038.8 -27.32,-224 325.988,47.4 v 222.2 l -298.668,-45.6"
         style="fill:#252323;fill-opacity:1;fill-rule:nonzero;stroke:none"
         id="path122" />
      <path
         d="m 442.395,6247.3 -53.368,-192.6 213.864,-239.9 27.32,224 -187.816,208.5"
         style="fill:#4e4f51;fill-opacity:1;fill-rule:nonzero;stroke:none"
         id="path124" />
      <path
         d="m 9843.54,6179.6 -152.98,109.2 c 0,0 -94.7,-17.1 -116.55,-75.9 -21.86,-58.8 -40.06,-179 -87.42,-277.4 -47.35,-98.3 -123.84,-302.3 87.42,-375.1 211.25,-72.9 407.94,43.7 637.39,-47.4 229.5,-91 852.3,-50.9 856,142.1 3.6,193 -196.7,171.2 -371.6,254.9 -174.8,83.8 -458.9,291.4 -473.5,320.6 -14.5,29.1 -93.8,168.4 -186.1,145 -92.29,-23.3 -192.66,-196 -192.66,-196"
         style="fill:#3970c0;fill-opacity:1;fill-rule:nonzero;stroke:none"
         id="path126" />
      <path
         d="m 9053.16,7740.3 h 366.05 c 0,0 -114.73,-273.2 0,-601 114.74,-327.8 278.64,-868.7 234.93,-1098.1 0,0 136.59,-27.3 196.69,0 60.09,27.3 277.37,92.9 250.67,109.2 -26.7,16.4 38.9,792.2 55.3,1092.7 16.4,300.5 38.2,945.2 -27.3,1076.3 -65.6,131.2 -502.68,338.8 -726.68,398.9 -224,60.1 -469.86,-163.9 -497.18,-306 -27.31,-142 0,-416.7 0,-416.7 l 147.52,-255.3"
         style="fill:#fbc295;fill-opacity:1;fill-rule:nonzero;stroke:none"
         id="path128" />
      <path
         d="m 7364.95,5177.9 c 0,0 -185.76,-76.4 -202.15,-142 -16.39,-65.6 -21.85,-218.5 -65.56,-300.5 -43.71,-81.9 -38.25,-153 0,-245.8 38.24,-92.9 76.49,-120.2 71.03,-289.6 -5.47,-169.4 87.41,-344.2 311.41,-366.1 224,-21.8 464.4,0 491.71,185.8 27.32,185.7 -138.4,458.9 -174.83,601 -36.42,142 -21.85,280.4 -36.42,316.9 -14.57,36.4 -126.87,138.8 -174.83,168 -200.05,121.5 7.28,43.2 7.28,43.2 l -227.64,29.1"
         style="fill:#3970c0;fill-opacity:1;fill-rule:nonzero;stroke:none"
         id="path130" />
      <path
         d="m 4722.46,6784.2 -179.39,25.5 22.76,-229.5 193.05,-160.2 1027.13,174.8 -262.25,284.1 -626.47,-72.8 -174.83,-21.9"
         style="fill:#656769;fill-opacity:1;fill-rule:nonzero;stroke:none"
         id="path132" />
      <path
         d="m 4543.07,6809.7 201.24,-163.9 779.45,109.3 -229.46,211.2 -751.23,-156.6"
         style="fill:#8e8e8e;fill-opacity:1;fill-rule:nonzero;stroke:none"
         id="path134" />
      <path
         d="m 4795.3,7931.5 54.64,-1147.3 513.56,65.6 v 1081.7 h -568.2"
         style="fill:#494a4b;fill-opacity:1;fill-rule:nonzero;stroke:none"
         id="path136" />
      <path
         d="m 7650.87,5309.1 622.84,233.1 -311.42,145.7 -311.42,-80.2 c 0,0 -61.92,-104 -65.56,-141.2 -3.64,-37.2 65.56,-157.4 65.56,-157.4"
         style="fill:#8e8e8e;fill-opacity:1;fill-rule:nonzero;stroke:none"
         id="path138" />
      <path
         d="m 7666.38,5037.1 607.33,236.5 v 268.6 l -622.84,-233.1 15.51,-272"
         style="fill:#656769;fill-opacity:1;fill-rule:nonzero;stroke:none"
         id="path140" />
      <path
         d="m 5057.55,7163 -43.71,80.1 178.47,32.8 1985.06,-717.5 -36.42,-182.1 -2083.4,786.7"
         style="fill:#8e8e8e;fill-opacity:1;fill-rule:nonzero;stroke:none"
         id="path142" />
      <path
         d="m 5013.84,7243.1 3.84,-334.4 2323.59,-1086.1 V 6369 l -2327.43,874.1"
         style="fill:#656769;fill-opacity:1;fill-rule:nonzero;stroke:none"
         id="path144" />
      <path
         d="m 7639.94,5392.8 c 54.42,20.4 462.57,171.2 462.57,171.2 v 1548 l -404.9,-61.9 -112.3,-313.2 54.63,-1344.1"
         style="fill:#494a4b;fill-opacity:1;fill-rule:nonzero;stroke:none"
         id="path146" />
      <path
         d="m 5185.03,8341.7 c 0,0 -21.86,-153.6 0,-235.2 21.85,-81.6 1796.6,-859.5 1848.94,-850.5 52.34,9 827.7,-236.9 830.66,-225.9 2.96,10.9 1057.41,557.2 1057.41,557.2 0,0 -125.66,338.8 -142.05,338.8 -16.4,0 -1628.11,344 -1628.11,344 0,0 -639.23,251.5 -912.4,191.4 -273.18,-60.1 -835.92,92.9 -994.35,54.6 -158.45,-38.2 -60.1,-174.4 -60.1,-174.4"
         style="fill:#8e8e8e;fill-opacity:1;fill-rule:nonzero;stroke:none"
         id="path148" />
      <path
         d="m 4148.67,8024.9 140.35,43.2 3422.24,-1147.3 c 0,0 118.09,-27.3 232.82,0 114.73,27.3 890.54,371.5 890.54,371.5 0,0 76.49,38.2 87.42,114.7 10.92,76.5 0,180.3 0,180.3 L 7904.06,7226.7 c 0,0 -114.18,-49.1 -206.45,-27.3 -92.27,21.9 -1657.21,572 -1657.21,572 l -1002.89,392.9 c 0,0 -595.51,187.9 -639.22,177 -43.71,-10.9 -249.62,-316.4 -249.62,-316.4"
         style="fill:#656769;fill-opacity:1;fill-rule:nonzero;stroke:none"
         id="path150" />
      <path
         d="m 6824.29,9195.4 c -3.2,1.5 56.1,289.9 61.7,437.1 0,0 -124.1,30.4 -156.75,113.5 l 41.97,8.7 c 0,0 -18.17,120 -12.7,141.9 5.46,21.8 13.97,39.3 13.97,39.3 l -70.39,-14.1 c 0,0 30.92,102.7 65.52,121.6 34.6,18.9 103.81,11 103.81,11 0,0 56.45,22.5 76.49,18.8 20.03,-3.6 32.77,-10.6 32.77,-10.6 0,0 54.64,16.9 72.85,11 18.21,-5.9 21.86,-19.2 21.86,-19.2 0,0 43.7,10.4 67.38,0 23.68,-10.3 38.24,-123.2 25.5,-146.9 -12.75,-23.7 -40.07,-20 -40.07,-20 0,0 -9.11,-27.4 -29.14,-34.6 -20.03,-7.3 -20.03,-7.3 -20.03,-7.3 0,0 2.76,-25.5 -45.06,-21.9 l -82.65,-31.7 221.67,46 c 0,0 13.83,-89 0,-161.8 0,0 60.84,-553.6 44.45,-712.1 -16.4,-158.4 -308.69,-10.9 -344.2,19.2 -35.52,30 -48.95,212.1 -48.95,212.1"
         style="fill:#fbc295;fill-opacity:1;fill-rule:nonzero;stroke:none"
         id="path152" />
      <path
         d="m 5936.25,8024.9 c 0,0 98.34,-366.5 352.4,-563.2 254.05,-196.7 786.74,-262.3 786.74,-262.3 l 751.52,65.6 c 0,0 100.78,41 158.14,237.6 57.37,196.7 57.37,196.7 57.37,196.7 0,0 338.16,-26.1 652.59,-25.3 314.44,0.7 429.17,33.5 429.17,33.5 0,0 -40.57,468.1 90.35,668.4 130.92,200.3 298.18,305.2 298.18,305.2 0,0 -265.6,151.6 -617.99,215.9 -352.4,64.4 -895.4,78 -964,67.1 -68.6,-10.9 -748.8,67.6 -748.8,67.6 0,0 -401.56,115.4 -622.83,47.2 -221.27,-68.3 -581.86,-27.5 -712.98,-297.9 -131.12,-270.3 -163.91,-318.6 -131.12,-405.1 32.77,-86.5 221.26,-351 221.26,-351"
         style="fill:#252323;fill-opacity:1;fill-rule:nonzero;stroke:none"
         id="path154" />
      <path
         d="m 4354.58,9483.2 v 75.5 c 0,0 -8.19,41.9 -169.37,28.3 -161.17,-13.7 -224,-175.8 -243.12,-242.3 -19.12,-66.4 -49.17,-224.9 -21.86,-317.7 27.32,-92.9 164.58,-204.9 228.44,-213.1 63.86,-8.2 345.23,-60.1 356.16,103.8 10.92,163.9 -150.25,565.5 -150.25,565.5"
         style="fill:#252323;fill-opacity:1;fill-rule:nonzero;stroke:none"
         id="path156" />
      <path
         d="m 4253.51,9559.6 c 0,0 -62.83,-58.6 -79.22,-109.8 -16.39,-51.3 -20,-181.4 -10.93,-207.5 9.07,-26.1 120.19,-87 128.39,-100.6 8.2,-13.7 0,-36.6 0,-36.6 0,0 -105.33,4.7 -133.25,-36.7 -27.92,-41.4 6.37,-87.9 68.45,-74.2 62.07,13.6 168.44,32.8 168.44,32.8 l 232.36,19.1 c 0,0 132.44,129.2 142.05,212.5 9.62,83.4 -13.65,246.4 -13.65,246.4 0,0 -80.51,-18.1 -90.15,-5.5 -9.64,12.7 -163.91,65.6 -412.49,60.1"
         style="fill:#eeaa7f;fill-opacity:1;fill-rule:nonzero;stroke:none"
         id="path158" />
      <path
         d="m 4709.71,8106.4 c 0,0 234.92,-75.5 497.17,-81.5 262.25,-6 622.84,30.6 729.37,0 0,0 -8.19,420.2 270.44,657.9 278.64,237.6 975.23,348.9 975.23,348.9 l -508.1,232.6 c 0,0 -434.34,276.2 -1032.59,273.5 -598.25,-2.7 -876.89,-171.3 -876.89,-171.3 0,0 -152.98,-200.2 -221.27,-222.1 -68.29,-21.8 -215.78,-143.6 -215.78,-143.6 l 382.42,-894.4"
         style="fill:#3970c0;fill-opacity:1;fill-rule:nonzero;stroke:none"
         id="path160" />
      <path
         d="m 2951.34,9001.1 c -64.33,499.5 -307.59,906.7 -605.39,1073.9 -264.44,152.7 -539.02,77.7 -539.02,77.7 l 25.02,-42.2 c -358.86,-159 -575.22,-705.2 -496.36,-1317.5 60.08,-466.5 276.21,-852.5 547.08,-1037.7 31.61,-62.8 71.99,-103.6 122.93,-115.3 437.36,-100.3 645.07,181.5 645.08,181.6 237.43,240.5 363.86,688.7 300.66,1179.5"
         style="fill:#295a9b;fill-opacity:1;fill-rule:nonzero;stroke:none"
         id="path162" />
      <path
         d="m 2776.51,9001.1 c 89.31,-693.5 -199.99,-1302.2 -646.17,-1359.7 -446.17,-57.4 -880.27,458.1 -969.58,1151.6 -89.31,693.5 199.99,1302.2 646.17,1359.7 446.18,57.4 880.27,-458.2 969.58,-1151.6"
         style="fill:#3777b3;fill-opacity:1;fill-rule:nonzero;stroke:none"
         id="path164" />
      <path
         d="m 2928.62,9166.3 4720.43,945.1 c 0,0 109.27,-81.9 0,-174.8 l -4693.11,-972.5 -27.32,202.2"
         style="fill:#bbbab8;fill-opacity:1;fill-rule:nonzero;stroke:none"
         id="path166" />
      <path
         d="m 2570.21,8963.4 c 78.96,-613.1 -153.31,-1148.4 -518.8,-1195.5 -365.49,-47 -725.8,411.9 -804.77,1025.1 -78.97,613.2 153.3,1148.4 518.79,1195.5 365.49,47.1 725.81,-411.9 804.78,-1025.1"
         style="fill:#408dbf;fill-opacity:1;fill-rule:nonzero;stroke:none"
         id="path168" />
      <path
         d="m 2065.81,8871.3 c -17.55,136.2 -83.88,247.3 -165.07,292.9 -72.11,41.6 -146.98,21.1 -146.98,21.1 l 6.83,-11.5 c -97.85,-43.3 -156.84,-192.3 -135.34,-359.2 16.38,-127.2 75.31,-232.5 149.16,-283 8.62,-17.1 19.63,-28.2 33.52,-31.4 119.26,-27.3 175.89,49.5 175.89,49.5 64.74,65.6 99.22,187.8 81.99,321.6"
         style="fill:#252323;fill-opacity:1;fill-rule:nonzero;stroke:none"
         id="path170" />
      <path
         d="m 2018.13,8871.3 c 24.36,-189.1 -54.53,-355 -176.18,-370.7 -121.66,-15.7 -240.02,124.9 -264.37,314 -24.35,189.1 54.53,355 176.18,370.7 121.66,15.7 240.02,-124.9 264.37,-314"
         style="fill:#3e3d3f;fill-opacity:1;fill-rule:nonzero;stroke:none"
         id="path172" />
      <path
         d="m 1765.43,8928.7 -656.14,-133.9 c 0,0 -39.73,-123.1 32.78,-196.7 l 655.79,132.3 c 40.24,125.1 -32.43,198.3 -32.43,198.3"
         style="fill:#bbbab8;fill-opacity:1;fill-rule:nonzero;stroke:none"
         id="path174" />
      <path
         d="m 1430.14,8859.4 -636.687,-130 c 0,0 -39,-123 33.516,-196.6 l 937.341,190.8 c 40.24,125.1 -334.17,135.8 -334.17,135.8"
         style="fill:#bbbab8;fill-opacity:1;fill-rule:nonzero;stroke:none"
         id="path176" />
      <path
         d="m 3234.57,8816.6 c 0,0 10.93,-311.4 0,-628.3 -10.92,-316.9 0,-519 49.18,-644.7 49.17,-125.6 109.26,-196.7 174.82,-213.1 65.57,-16.3 311.42,120.2 382.45,180.3 71.02,60.1 409.76,393.4 453.46,453.5 43.71,60.1 163.91,229.5 163.91,229.5 l 251.32,-87.4 c 0,0 120.19,10.9 180.29,142 60.1,131.1 -21.85,511.1 -131.12,629.8 -109.27,118.7 -278.64,167.9 -278.64,167.9 0,0 -114.73,-5.5 -300.49,-125.7 -185.76,-120.2 -300.49,-426.1 -300.49,-426.1 l -202.15,-174.9 c 0,0 -65.56,136.6 -76.48,267.7 -10.93,131.2 5.46,255.2 5.46,255.2 l -371.52,-25.7"
         style="fill:#fbc295;fill-opacity:1;fill-rule:nonzero;stroke:none"
         id="path178" />
      <path
         d="m 3780.92,7674.7 c -7.76,-14.4 60.1,180.3 0,371.6 -60.1,191.2 -103.81,273.1 -103.81,273.1 l 65.26,56.5 c 0,0 197.11,-406 38.55,-701.2"
         style="fill:#de966d;fill-opacity:1;fill-rule:nonzero;stroke:none"
         id="path180" />
      <path
         d="m 4458.39,8193.8 169.36,182.1 -84.68,-211.6 z"
         style="fill:#de966d;fill-opacity:1;fill-rule:nonzero;stroke:none"
         id="path182" />
      <path
         d="m 3162.38,9213.1 c 0,0 -4.76,104.3 68.32,131.6 73.07,27.4 116.79,0 116.79,0 0,0 3.64,36.5 40.06,51 36.42,14.6 60.1,0 60.1,0 0,0 34.6,29.2 52.81,29.2 18.21,0 36.42,-12.8 36.42,-12.8 0,0 36.43,45.6 76.49,36.5 40.07,-9.2 91.06,-145.7 96.52,-158.5 5.47,-12.7 34.61,-69.2 27.32,-85.6 -7.28,-16.4 -75.65,-94.2 -75.65,-94.2 l -177.49,-31.4 c 0,0 -16.46,5.4 -33.72,21.8 0,0 -51.87,-9.1 -75.55,9.1 -23.67,18.2 -81.27,129.5 -81.27,129.5 l -131.15,-26.2"
         style="fill:#efaf83;fill-opacity:1;fill-rule:nonzero;stroke:none"
         id="path184" />
      <path
         d="m 3347.49,9344.7 c 0,0 69.2,-103.8 87.41,-154.7 18.21,-51 15.45,-89.3 15.45,-89.3 l 33.72,-21.8 c 0,0 4.08,76.1 -20.03,132.9 -24.12,56.9 -116.55,132.9 -116.55,132.9"
         style="fill:#de966d;fill-opacity:1;fill-rule:nonzero;stroke:none"
         id="path186" />
      <path
         d="m 3447.65,9395.7 c 0,0 47.35,-61.9 74.66,-151.1 27.32,-89.3 18.37,-155.7 18.37,-155.7 l 40.1,7.1 c 0,0 -0.19,92.1 -25.68,159.5 -25.5,67.4 -107.45,140.2 -107.45,140.2"
         style="fill:#de966d;fill-opacity:1;fill-rule:nonzero;stroke:none"
         id="path188" />
      <path
         d="m 3536.88,9412.1 c 0,0 36.43,-41.9 65.57,-129.3 29.13,-87.4 29.64,-177.7 29.64,-177.7 l 29.47,5.2 c 0,0 0.98,79.7 -29.98,168.9 -30.95,89.2 -94.7,132.9 -94.7,132.9"
         style="fill:#de966d;fill-opacity:1;fill-rule:nonzero;stroke:none"
         id="path190" />
      <path
         d="m 7386.8,8770.2 c 0,0 557.28,-308.7 655.62,-1070.9 l 518.79,-24.2 c 0,0 -281.13,84.7 -412.25,349.2 -131.13,264.4 -418.2,592.9 -762.16,745.9"
         style="fill:#100f0d;fill-opacity:1;fill-rule:nonzero;stroke:none"
         id="path192" />
      <path
         d="m 10101.5,6150.4 c -9.4,5.8 -7.3,106 0,246.4 -156.96,-56.5 -341.15,-77.8 -456.2,-85.8 16.51,-107.9 21.69,-202.4 8.84,-269.8 0,0 136.59,-27.3 196.69,0 60.09,27.3 277.37,92.9 250.67,109.2"
         style="fill:#f2f2f2;fill-opacity:1;fill-rule:nonzero;stroke:none"
         id="path194" />
      <path
         d="m 3234.57,8816.6 v 78.2 l -52.01,116.3 479,99.2 c 0,0 40.14,105.1 40.14,113.3 0,8.2 -87.42,95.6 -79.22,117.5 8.19,21.9 55.41,37.1 92.88,13.7 37.47,-23.5 71.02,-62.9 95.61,-90.2 24.58,-27.3 38.24,-183 0,-218.5 -38.25,-35.5 -204.88,-203.8 -204.88,-203.8 l -303.22,-72.1 -68.3,46.4"
         style="fill:#fbc295;fill-opacity:1;fill-rule:nonzero;stroke:none"
         id="path196" />
      <path
         d="m 6758.51,9896.6 c -5.47,-21.9 12.7,-141.9 12.7,-141.9 l -41.97,-8.7 c 32.65,-83.1 156.75,-113.5 156.75,-113.5 -3.76,-98.8 -31.71,-261.2 -48.72,-357.8 h 372.21 c -13.94,196.3 -36.49,401.5 -36.49,401.5 13.83,72.8 0,161.8 0,161.8 l -221.67,-46 82.65,31.7 c 47.82,-3.6 45.06,21.9 45.06,21.9 0,0 0,0 20.03,7.3 20.03,7.2 29.14,34.6 29.14,34.6 0,0 27.32,-3.7 40.07,20 12.74,23.7 -1.82,136.6 -25.5,146.9 -23.68,10.4 -67.38,0 -67.38,0 0,0 -3.65,13.3 -21.86,19.2 -18.21,5.9 -72.85,-11 -72.85,-11 0,0 -12.74,7 -32.77,10.6 -20.04,3.7 -76.49,-18.8 -76.49,-18.8 0,0 -69.21,7.9 -103.81,-11 -34.6,-18.9 -65.52,-121.6 -65.52,-121.6 l 70.39,14.1 c 0,0 -8.51,-17.5 -13.97,-39.3"
         style="fill:#fbc295;fill-opacity:1;fill-rule:nonzero;stroke:none"
         id="path198" />
      <path
         d="m 6935.68,9968.6 c 0,0 11.9,-19.7 0,-41.5 -11.91,-21.9 -84.3,-56 -84.3,-56 0,0 45.08,-12.3 83.32,-66.3 l -30.05,67.6 c 0,0 51.57,19.1 56.52,45.1 4.95,25.9 -25.49,51.1 -25.49,51.1"
         style="fill:#de966d;fill-opacity:1;fill-rule:nonzero;stroke:none"
         id="path200" />
      <path
         d="m 7255.68,7978 c 0,0 -122.93,-23.8 -245.86,-302.9 -122.93,-279 65.57,-475.7 65.57,-475.7 l 36.55,-155.7 c 0,0 -118.51,-327.8 -44.75,-844.1 73.76,-516.3 180.3,-909.6 188.49,-1196.5 l 90.15,-65.5 c 0,0 24.59,139.3 122.92,139.3 98.35,0 158,-82 158,-82 l 70.86,8.2 c 0,0 -64.95,295 74.37,819.5 139.31,524.5 -24.59,967.1 0,1163.7 24.58,196.7 244.73,475.4 56.8,786.8 -187.93,311.4 -573.1,204.9 -573.1,204.9"
         style="fill:#fbc295;fill-opacity:1;fill-rule:nonzero;stroke:none"
         id="path202" />
      <path
         d="m 7683.97,5273.6 h -456.06 c 15.18,-99 25.44,-189.1 27.77,-270.5 l 90.15,-65.5 c 0,0 24.58,139.3 122.92,139.3 98.35,0 158,-82 158,-82 l 70.86,8.2 c 0,0 -20.69,94.1 -13.64,270.5"
         style="fill:#f2f2f2;fill-opacity:1;fill-rule:nonzero;stroke:none"
         id="path204" />
      <path
         d="m 865.645,8640.6 c 9.253,-54.3 -8.063,-102.6 -38.676,-107.8 -30.617,-5.2 -62.938,34.6 -72.196,88.9 -9.25,54.2 8.063,102.5 38.68,107.7 30.613,5.2 62.938,-34.6 72.192,-88.8"
         style="fill:#dfdfdd;fill-opacity:1;fill-rule:nonzero;stroke:none"
         id="path206" />
      <path
         d="m 16167.3,15189.3 1524.3,133 c 0,0 85.6,-60.1 18.3,-167 l -1542.6,-146.7 v 180.7"
         style="fill:#bbbab8;fill-opacity:1;fill-rule:nonzero;stroke:none"
         id="path208" />
      <path
         d="m 15726.9,15576.3 -34.4,66.6 h 263.6 c 0,0 -16.4,-154.7 -16.4,-183.8 0,-29 -82.7,-115 -89.7,-124.7 -7,-9.6 -58.6,-18.2 -71.5,0 -12.9,18.3 -28,-9.6 -19.4,33.4 8.6,43 -32.2,208.5 -32.2,208.5"
         style="fill:#4e4f51;fill-opacity:1;fill-rule:nonzero;stroke:none"
         id="path210" />
      <path
         d="m 16006.4,15574.2 c -2.2,10.7 -50.3,68.7 -50.3,68.7 l -61.5,-47.2 -44.6,-202.1 -22.1,-34.4 h -36.5 l -23.7,51.6 -12.9,180.6 -62.3,51.5 10.7,-227.8 40.7,-139.8 h 130.5 l 81.7,118.3 50.3,180.6"
         style="fill:#8e8e8e;fill-opacity:1;fill-rule:nonzero;stroke:none"
         id="path212" />
      <path
         d="m 15487.4,12160.3 -77.4,41.3 -63,-97.2 94.6,-83.1 105.8,20 9.1,70.1 -69.1,48.9"
         style="fill:#4e4f51;fill-opacity:1;fill-rule:nonzero;stroke:none"
         id="path214" />
      <path
         d="m 15602.1,12090.1 -93.2,14.3 -67.3,-83.1 834.1,-731 28.7,157.6 -702.3,642.2"
         style="fill:#656769;fill-opacity:1;fill-rule:nonzero;stroke:none"
         id="path216" />
      <path
         d="m 15249.5,11470.9 665.1,123.2 v 179.9 l -665.1,-128.2 v -174.9"
         style="fill:#656769;fill-opacity:1;fill-rule:nonzero;stroke:none"
         id="path218" />
      <path
         d="m 15914.6,11594.1 1028.4,199.5 v 164.6 l -783.1,-140.3 -245.3,-223.8"
         style="fill:#656769;fill-opacity:1;fill-rule:nonzero;stroke:none"
         id="path220" />
      <path
         d="m 15103.3,11800.5 660.7,105.7 150.6,-132.2 -665.1,-128.2 -146.2,154.7"
         style="fill:#b0b0ae;fill-opacity:1;fill-rule:nonzero;stroke:none"
         id="path222" />
      <path
         d="m 15743.9,11863.6 20.1,42.6 991.9,181 187.1,-129 -1028.4,-184.2 -170.7,89.6"
         style="fill:#b0b0ae;fill-opacity:1;fill-rule:nonzero;stroke:none"
         id="path224" />
      <path
         d="m 15043.6,11576.9 -29.2,33 -147.8,164.1 236.7,26.5 146.2,-154.7 -205.9,-68.9"
         style="fill:#3e3d3f;fill-opacity:1;fill-rule:nonzero;stroke:none"
         id="path226" />
      <path
         d="m 15508.9,12104.4 276.6,-214.9 129.1,-115.5 389.8,-326.1 255.1,60.2 -814.1,631.1 -236.5,-34.8"
         style="fill:#b0b0ae;fill-opacity:1;fill-rule:nonzero;stroke:none"
         id="path228" />
      <path
         d="m 15745.4,12139.2 -126.1,77 -209.3,-14.6 98.9,-97.2 236.5,34.8"
         style="fill:#3e3d3f;fill-opacity:1;fill-rule:nonzero;stroke:none"
         id="path230" />
      <path
         d="m 16275.7,11290.3 143.4,-134.2 v 197.3 l -114.7,94.5 -28.7,-157.6"
         style="fill:#4e4f51;fill-opacity:1;fill-rule:nonzero;stroke:none"
         id="path232" />
      <path
         d="m 16559.5,11508.1 114.7,-94.5 -255.1,-60.2 -114.7,94.5 255.1,60.2"
         style="fill:#3e3d3f;fill-opacity:1;fill-rule:nonzero;stroke:none"
         id="path234" />
      <path
         d="m 16419.1,11156.1 306.7,91.2 -51.6,166.3 -255.1,-60.2 v -197.3"
         style="fill:#252323;fill-opacity:1;fill-rule:nonzero;stroke:none"
         id="path236" />
      <path
         d="m 16755.9,12087.2 178.5,24.2 184.9,-112.3 -176.3,-40.9 -187.1,129"
         style="fill:#3e3d3f;fill-opacity:1;fill-rule:nonzero;stroke:none"
         id="path238" />
      <path
         d="m 16943,11793.6 245.1,50.7 -68.8,154.8 -176.3,-40.9 v -164.6"
         style="fill:#252323;fill-opacity:1;fill-rule:nonzero;stroke:none"
         id="path240" />
      <path
         d="m 15874.4,14413.5 v 861.8 h -130.5 v -883.6 l 38.8,-2449.3 131.9,-118.9 41.5,40.1 -81.7,2549.9"
         style="fill:#8e8e8e;fill-opacity:1;fill-rule:nonzero;stroke:none"
         id="path242" />
      <path
         d="m 16166.8,14413.5 -19,861.8 h -273.4 v -861.8 l 40.2,-2590 263.7,20 -11.5,2570"
         style="fill:#656769;fill-opacity:1;fill-rule:nonzero;stroke:none"
         id="path244" />
      <path
         d="m 16232.1,15393.6 -84.3,-118.3 h -273.4 l 81.7,118.3 h 276"
         style="fill:#4e4f51;fill-opacity:1;fill-rule:nonzero;stroke:none"
         id="path246" />
      <path
         d="m 16232.1,15393.6 h -276 v 249.3 h 276 v -249.3"
         style="fill:#656769;fill-opacity:1;fill-rule:nonzero;stroke:none"
         id="path248" />
      <path
         d="m 16084.4,12008.7 c 0,-35.4 -28.7,-64.1 -64.1,-64.1 -35.5,0 -64.2,28.7 -64.2,64.1 0,35.5 28.7,64.2 64.2,64.2 35.4,0 64.1,-28.7 64.1,-64.2"
         style="fill:#b0b0ae;fill-opacity:1;fill-rule:nonzero;stroke:none"
         id="path250" />
      <path
         d="m 15014.4,11609.9 -21.5,-176.3 256.6,37.3 v 174.9 l -235.1,-35.9"
         style="fill:#252323;fill-opacity:1;fill-rule:nonzero;stroke:none"
         id="path252" />
      <path
         d="m 14866.6,11774 -42,-151.6 168.3,-188.8 21.5,176.3 -147.8,164.1"
         style="fill:#4e4f51;fill-opacity:1;fill-rule:nonzero;stroke:none"
         id="path254" />
      <path
         d="m 10257.7,14923.9 -43.7,84.7 h 335 c 0,0 -20.8,-196.7 -20.8,-233.6 0,-36.8 -105.2,-146.1 -114.1,-158.4 -8.9,-12.3 -74.4,-23.2 -90.8,0 -16.4,23.2 -35.5,-12.3 -24.6,42.3 10.9,54.7 -41,265 -41,265"
         style="fill:#4e4f51;fill-opacity:1;fill-rule:nonzero;stroke:none"
         id="path256" />
      <path
         d="m 10612.8,14921.2 c -2.7,13.6 -63.8,87.4 -63.8,87.4 l -78.2,-60.1 -56.7,-256.8 -28,-43.7 h -46.4 l -30.1,65.6 -16.4,229.4 -79.2,65.6 13.7,-289.6 51.6,-177.5 h 165.9 l 103.8,150.2 63.8,229.5"
         style="fill:#8e8e8e;fill-opacity:1;fill-rule:nonzero;stroke:none"
         id="path258" />
      <path
         d="m 9953.47,10583.6 -98.34,52.4 -80.13,-123.4 120.2,-105.7 134.5,25.5 11.6,89.1 -87.83,62.1"
         style="fill:#4e4f51;fill-opacity:1;fill-rule:nonzero;stroke:none"
         id="path260" />
      <path
         d="m 10099.2,10494.4 -118.41,18.2 -85.59,-105.7 1059.9,-928.7 36.4,200.3 -892.3,815.9"
         style="fill:#656769;fill-opacity:1;fill-rule:nonzero;stroke:none"
         id="path262" />
      <path
         d="m 9651.16,9707.6 845.04,156.6 v 228.5 l -845.04,-162.9 v -222.2"
         style="fill:#656769;fill-opacity:1;fill-rule:nonzero;stroke:none"
         id="path264" />
      <path
         d="m 10496.2,9864.2 1306.7,253.5 v 209.1 l -995,-178.2 -311.7,-284.4"
         style="fill:#656769;fill-opacity:1;fill-rule:nonzero;stroke:none"
         id="path266" />
      <path
         d="m 9465.4,10126.5 839.5,134.3 191.3,-168.1 -845.04,-162.9 -185.76,196.7"
         style="fill:#b0b0ae;fill-opacity:1;fill-rule:nonzero;stroke:none"
         id="path268" />
      <path
         d="m 10279.3,10206.6 25.6,54.2 1260.3,229.9 237.7,-163.9 -1306.7,-234.1 -216.9,113.9"
         style="fill:#b0b0ae;fill-opacity:1;fill-rule:nonzero;stroke:none"
         id="path270" />
      <path
         d="m 9389.52,9842.4 -37.03,41.9 -187.82,208.4 300.73,33.8 185.76,-196.7 -261.64,-87.4"
         style="fill:#3e3d3f;fill-opacity:1;fill-rule:nonzero;stroke:none"
         id="path272" />
      <path
         d="m 9980.79,10512.6 351.51,-273.1 163.9,-146.8 495.3,-414.2 324.2,76.5 -1034.4,801.8 -300.51,-44.2"
         style="fill:#b0b0ae;fill-opacity:1;fill-rule:nonzero;stroke:none"
         id="path274" />
      <path
         d="m 10281.3,10556.8 -160.3,97.8 -265.87,-18.6 125.66,-123.4 300.51,44.2"
         style="fill:#3e3d3f;fill-opacity:1;fill-rule:nonzero;stroke:none"
         id="path276" />
      <path
         d="m 10955.1,9478.2 182.1,-170.6 v 250.7 l -145.7,120.2 -36.4,-200.3"
         style="fill:#4e4f51;fill-opacity:1;fill-rule:nonzero;stroke:none"
         id="path278" />
      <path
         d="m 11315.7,9755 145.7,-120.2 -324.2,-76.5 -145.7,120.2 324.2,76.5"
         style="fill:#3e3d3f;fill-opacity:1;fill-rule:nonzero;stroke:none"
         id="path280" />
      <path
         d="m 11137.2,9307.6 389.7,115.9 -65.5,211.3 -324.2,-76.5 v -250.7"
         style="fill:#252323;fill-opacity:1;fill-rule:nonzero;stroke:none"
         id="path282" />
      <path
         d="m 11565.2,10490.7 226.7,30.8 235,-142.8 -224,-51.9 -237.7,163.9"
         style="fill:#3e3d3f;fill-opacity:1;fill-rule:nonzero;stroke:none"
         id="path284" />
      <path
         d="m 11802.9,10117.7 311.4,64.3 -87.4,196.7 -224,-51.9 v -209.1"
         style="fill:#252323;fill-opacity:1;fill-rule:nonzero;stroke:none"
         id="path286" />
      <path
         d="m 10445.2,13446.5 v 1095 h -165.9 v -1122.7 l 49.3,-3112 167.6,-151.2 52.8,51 -103.8,3239.9"
         style="fill:#8e8e8e;fill-opacity:1;fill-rule:nonzero;stroke:none"
         id="path288" />
      <path
         d="m 10816.7,13446.5 -24.2,1095 h -347.3 v -1095 l 51,-3290.9 335.1,25.5 -14.6,3265.4"
         style="fill:#656769;fill-opacity:1;fill-rule:nonzero;stroke:none"
         id="path290" />
      <path
         d="m 10899.7,14691.7 -107.2,-150.2 h -347.3 l 103.8,150.2 h 350.7"
         style="fill:#4e4f51;fill-opacity:1;fill-rule:nonzero;stroke:none"
         id="path292" />
      <path
         d="M 10899.7,14691.7 H 10549 v 316.9 h 350.7 v -316.9"
         style="fill:#656769;fill-opacity:1;fill-rule:nonzero;stroke:none"
         id="path294" />
      <path
         d="m 10712,10391 c 0,-45 -36.5,-81.5 -81.5,-81.5 -45,0 -81.5,36.5 -81.5,81.5 0,45 36.5,81.5 81.5,81.5 45,0 81.5,-36.5 81.5,-81.5"
         style="fill:#b0b0ae;fill-opacity:1;fill-rule:nonzero;stroke:none"
         id="path296" />
      <path
         d="m 9352.49,9884.3 -27.32,-224 325.99,47.3 v 222.2 l -298.67,-45.5"
         style="fill:#252323;fill-opacity:1;fill-rule:nonzero;stroke:none"
         id="path298" />
      <path
         d="m 9164.67,10092.7 -53.36,-192.5 213.86,-239.9 27.32,224 -187.82,208.4"
         style="fill:#4e4f51;fill-opacity:1;fill-rule:nonzero;stroke:none"
         id="path300" />
      <path
         d="m 17667.8,11071.4 99,354.7 c 0,0 -231.2,23.1 -248.5,0 -17.4,-23.2 149.5,-354.7 149.5,-354.7"
         style="fill:#100f0d;fill-opacity:1;fill-rule:nonzero;stroke:none"
         id="path302" />
      <path
         d="m 17596.7,11104.1 h 366.1 c 0,0 -114.8,-273.1 0,-600.9 114.7,-327.8 278.6,-868.7 234.9,-1098.2 0,0 136.6,-27.3 196.7,0 60.1,27.3 277.3,92.9 250.7,109.3 -26.7,16.4 38.9,792.2 55.2,1092.7 16.4,300.5 38.3,945.2 -27.3,1076.3 -65.5,131.1 -502.6,338.7 -726.6,398.8 -224,60.1 -469.9,-163.9 -497.2,-305.9 -27.3,-142.1 0,-416.8 0,-416.8 l 147.5,-255.3"
         style="fill:#fbc295;fill-opacity:1;fill-rule:nonzero;stroke:none"
         id="path304" />
      <path
         d="m 18387.1,9543.4 -153,109.3 c 0,0 -94.7,-17.1 -116.5,-76 -21.9,-58.8 -40.1,-179 -87.4,-277.3 -47.4,-98.4 -123.9,-302.3 87.4,-375.2 211.2,-72.8 407.9,43.7 637.4,-47.3 229.4,-91.1 852.3,-51 855.9,142 3.7,193.1 -196.7,171.2 -371.5,255 -174.8,83.8 -458.9,291.4 -473.5,320.5 -14.6,29.1 -93.8,168.4 -186.1,145.1 -92.3,-23.4 -192.7,-196.1 -192.7,-196.1"
         style="fill:#3970c0;fill-opacity:1;fill-rule:nonzero;stroke:none"
         id="path306" />
      <path
         d="m 17168.4,15164.7 c -18.8,402.8 -213,745.5 -478.5,901.1 -235.3,141.4 -499.2,102.2 -499.2,102.2 l 20,-35.5 c -349.9,-99.8 -598.4,-518.9 -575.4,-1012.7 17.5,-376.3 188.1,-700 426.8,-867.9 24.5,-52.5 58.9,-87.9 105.8,-101.1 401.9,-112.6 620.2,96.4 620.2,96.4 242.8,173.9 398.7,521.7 380.3,917.5"
         style="fill:#295a9b;fill-opacity:1;fill-rule:nonzero;stroke:none"
         id="path308" />
      <path
         d="m 17004.4,15177.7 c 26,-559.3 -296.1,-1022.7 -719.4,-1035.1 -423.4,-12.4 -787.7,431 -813.7,990.3 -26,559.3 296.1,1022.7 719.4,1035.1 423.4,12.4 787.7,-431 813.7,-990.3"
         style="fill:#3777b3;fill-opacity:1;fill-rule:nonzero;stroke:none"
         id="path310" />
      <path
         d="m 16807.7,15163.2 c 23,-494.6 -239.4,-903.7 -586.2,-913.9 -346.8,-10.1 -646.6,382.6 -669.6,877.1 -23.1,494.6 239.4,903.7 586.2,913.9 346.8,10.1 646.6,-382.5 669.6,-877.1"
         style="fill:#408dbf;fill-opacity:1;fill-rule:nonzero;stroke:none"
         id="path312" />
      <path
         d="m 13728.6,11705.6 c 0,0 -21.9,-153.7 0,-235.2 21.8,-81.6 1796.6,-859.6 1848.9,-850.6 52.4,9 827.7,-236.8 830.7,-225.9 3,10.9 1057.4,557.3 1057.4,557.3 0,0 -125.7,338.7 -142,338.7 -16.4,0 -1628.2,344 -1628.2,344 0,0 -639.2,251.5 -912.4,191.4 -273.1,-60.1 -835.9,92.9 -994.3,54.7 -158.4,-38.3 -60.1,-174.4 -60.1,-174.4"
         style="fill:#8e8e8e;fill-opacity:1;fill-rule:nonzero;stroke:none"
         id="path314" />
      <path
         d="m 15908.5,8541.8 c 0,0 -185.7,-76.5 -202.1,-142.1 -16.4,-65.5 -21.9,-218.5 -65.6,-300.5 -43.7,-81.9 -38.2,-152.9 0,-245.8 38.3,-92.9 76.5,-120.2 71,-289.6 -5.4,-169.3 87.4,-344.2 311.5,-366 224,-21.9 464.3,0 491.7,185.7 27.3,185.8 -138.4,459 -174.9,601 -36.4,142.1 -21.8,280.5 -36.4,316.9 -14.6,36.4 -121.1,105.4 -280.8,276.6 -159.6,171.2 113.3,-65.4 113.3,-65.4 l -227.7,29.2"
         style="fill:#3970c0;fill-opacity:1;fill-rule:nonzero;stroke:none"
         id="path316" />
      <path
         d="m 14298.2,12829.1 c 22.5,38.2 219.2,262.2 219.2,262.2 0,0 81.9,289.6 147.5,420.7 65.5,131.1 142,240.4 142,240.4 0,0 49.2,245.9 180.3,401.6 131.1,155.7 289.6,374.9 322.4,489.3 l 272.4,-38.6 c 0,0 49.9,-311.4 -114,-622.8 -163.9,-311.4 -295,-535.4 -316.9,-595.5 -21.8,-60.1 24.1,-540.9 -53.5,-693.9 -77.6,-153 -345.3,-98.3 -383.5,-81.9 -38.3,16.3 -415.9,218.5 -415.9,218.5"
         style="fill:#fbc295;fill-opacity:1;fill-rule:nonzero;stroke:none"
         id="path318" />
      <path
         d="m 12825.5,12920.2 c 0,0 327.8,43.7 415.2,14.5 87.5,-29.1 138.5,-54.6 204,-76.5 65.6,-21.8 116.6,-80.1 112.9,-102 -3.6,-21.8 -58.3,-160.2 -120.2,-189.4 -61.9,-29.1 -335.1,-102.5 -335.1,-102.5 0,0 -138.7,-61.4 -231.4,51.6 -92.7,112.9 -45.4,404.3 -45.4,404.3"
         style="fill:#eeaa7f;fill-opacity:1;fill-rule:nonzero;stroke:none"
         id="path320" />
      <path
         d="m 13266,10148 -179.4,25.5 22.8,-229.4 193,-160.3 1027.2,174.8 -262.3,284.1 -626.5,-72.8 -174.8,-21.9"
         style="fill:#656769;fill-opacity:1;fill-rule:nonzero;stroke:none"
         id="path322" />
      <path
         d="m 13086.6,10173.5 201.3,-163.9 779.4,109.3 -229.4,211.3 -751.3,-156.7"
         style="fill:#8e8e8e;fill-opacity:1;fill-rule:nonzero;stroke:none"
         id="path324" />
      <path
         d="m 16194.4,8672.9 622.9,233.1 -311.4,145.7 -311.5,-80.1 c 0,0 -61.9,-104.1 -65.5,-141.3 -3.7,-37.2 65.5,-157.4 65.5,-157.4"
         style="fill:#8e8e8e;fill-opacity:1;fill-rule:nonzero;stroke:none"
         id="path326" />
      <path
         d="m 16210,8400.9 607.3,236.5 V 8906 l -622.9,-233.1 15.6,-272"
         style="fill:#656769;fill-opacity:1;fill-rule:nonzero;stroke:none"
         id="path328" />
      <path
         d="m 16183.5,8756.7 c 54.4,20.3 462.6,171.2 462.6,171.2 v 1547.9 l -404.9,-61.9 -112.3,-313.2 54.6,-1344"
         style="fill:#494a4b;fill-opacity:1;fill-rule:nonzero;stroke:none"
         id="path330" />
      <path
         d="m 13322.7,11633.9 70.8,-1485.9 513.6,65.6 v 1081.8 l -584.4,338.5"
         style="fill:#494a4b;fill-opacity:1;fill-rule:nonzero;stroke:none"
         id="path332" />
      <path
         d="m 13601.1,10526.8 -43.7,80.2 178.5,32.8 1985,-717.6 -36.4,-182.1 -2083.4,786.7"
         style="fill:#8e8e8e;fill-opacity:1;fill-rule:nonzero;stroke:none"
         id="path334" />
      <path
         d="m 12195.4,12163.5 732.1,300.8 1711.7,-724.6 -732.1,-444.3 -1711.7,868.1"
         style="fill:#8e8e8e;fill-opacity:1;fill-rule:nonzero;stroke:none"
         id="path336" />
      <path
         d="m 13557.4,10607 3.9,-334.5 2323.5,-1086 v 546.3 l -2327.4,874.2"
         style="fill:#656769;fill-opacity:1;fill-rule:nonzero;stroke:none"
         id="path338" />
      <path
         d="m 17465.6,10951.2 -1018,-360.6 c 0,0 -114.1,-49.2 -206.4,-27.3 -92.3,21.8 -1657.2,571.9 -1657.2,571.9 l -2388.6,1028.3 v -353.3 l 3830.9,-1537.7 c 0,0 144,-56.2 461.3,12.1 115.3,24.9 890.6,371.5 890.6,371.5 0,0 76.5,38.3 87.4,114.8 10.9,76.5 0,180.3 0,180.3"
         style="fill:#656769;fill-opacity:1;fill-rule:nonzero;stroke:none"
         id="path340" />
      <path
         d="m 14479.8,11388.8 c 0,0 98.4,-366.6 352.4,-563.3 254.1,-196.7 786.8,-262.2 786.8,-262.2 l 751.5,65.5 c 0,0 100.8,41 158.1,237.7 57.4,196.7 57.4,196.7 57.4,196.7 0,0 338.2,-26.1 652.6,-25.4 314.4,0.8 429.2,33.6 429.2,33.6 0,0 -40.6,468 90.3,668.3 130.9,200.4 300.1,306.7 300.1,306.7 0,0 -267.5,150.1 -619.9,214.5 -352.4,64.3 -895.4,78 -964,67.1 -68.6,-11 -748.8,67.5 -748.8,67.5 0,0 -401.6,115.5 -622.8,47.2 -221.3,-68.3 -581.9,-27.4 -713,-297.8 -131.1,-270.4 -163.9,-318.6 -131.1,-405.2 32.7,-86.5 221.2,-350.9 221.2,-350.9"
         style="fill:#252323;fill-opacity:1;fill-rule:nonzero;stroke:none"
         id="path342" />
      <path
         d="m 13253.3,11470.2 c 0,0 234.9,-75.4 497.1,-81.4 262.3,-6 622.9,30.6 729.4,0 0,0 -8.2,420.1 270.5,657.8 278.6,237.7 975.2,348.9 975.2,348.9 l -508.1,232.6 c 0,0 -434.4,276.3 -1032.6,273.5 -598.3,-2.7 -876.9,-171.2 -876.9,-171.2 0,0 -153,-200.3 -221.3,-222.1 -68.3,-21.9 -215.7,-143.6 -215.7,-143.6 l 382.4,-894.5"
         style="fill:#3970c0;fill-opacity:1;fill-rule:nonzero;stroke:none"
         id="path344" />
      <path
         d="m 15930.4,12134 c 0,0 557.2,-308.7 655.6,-1070.8 l 518.8,-24.2 c 0,0 -281.2,84.7 -412.3,349.1 -131.1,264.4 -418.2,592.9 -762.1,745.9"
         style="fill:#100f0d;fill-opacity:1;fill-rule:nonzero;stroke:none"
         id="path346" />
      <path
         d="m 15799.2,11341.8 c 0,0 -122.9,-23.8 -245.8,-302.8 -122.9,-279.1 65.6,-475.7 65.6,-475.7 l 36.5,-155.7 c 0,0 -118.5,-327.8 -44.7,-844.2 73.7,-516.3 180.3,-909.6 188.4,-1196.4 l 90.2,-65.6 c 0,0 24.6,139.3 122.9,139.3 98.4,0 158,-81.9 158,-81.9 l 70.9,8.2 c 0,0 -65,295 74.3,819.5 139.4,524.5 -24.5,967 0,1163.7 24.6,196.7 244.8,475.3 56.9,786.7 -188,311.4 -573.2,204.9 -573.2,204.9"
         style="fill:#fbc295;fill-opacity:1;fill-rule:nonzero;stroke:none"
         id="path348" />
      <path
         d="m 16462.5,15146.3 c -6.8,115.8 -62.3,212.8 -136.5,254.7 -97.2,56.5 -205.1,3.4 -205.1,3.4 l 25.3,-15.3 c -67.7,-50.8 -110.4,-152.8 -103.7,-267.6 5.1,-85.3 36.4,-160.3 82.1,-210.7 2.5,-43.6 14.6,-73.3 42.2,-76.7 118.2,-14.2 184.8,39.4 184.8,39.4 v 0 c 71.8,48.8 117.9,153.9 110.9,272.8"
         style="fill:#252323;fill-opacity:1;fill-rule:nonzero;stroke:none"
         id="path350" />
      <path
         d="m 16386.1,15134.9 c 9.4,-159.7 -77,-294.6 -192.9,-301.5 -116,-6.8 -217.7,117 -227.1,276.7 -9.4,159.6 77,294.6 193,301.4 115.9,6.9 217.6,-117 227,-276.6"
         style="fill:#3e3d3f;fill-opacity:1;fill-rule:nonzero;stroke:none"
         id="path352" />
      <path
         d="m 16262,15125 c 9.8,-74.5 -26.9,-140.9 -82.1,-148.1 -55.1,-7.3 -107.8,47.2 -117.6,121.8 -9.9,74.5 26.8,140.9 82,148.2 55.1,7.2 107.8,-47.3 117.7,-121.9"
         style="fill:#252323;fill-opacity:1;fill-rule:nonzero;stroke:none"
         id="path354" />
      <path
         d="m 16227.5,8637.4 h -456 c 15.2,-99 25.4,-189 27.7,-270.4 l 90.2,-65.6 c 0,0 24.6,139.3 122.9,139.3 98.4,0 158,-81.9 158,-81.9 l 70.9,8.2 c 0,0 -20.7,94.1 -13.7,270.4"
         style="fill:#f2f2f2;fill-opacity:1;fill-rule:nonzero;stroke:none"
         id="path356" />
      <path
         d="m 18645.1,9514.3 c -9.4,5.8 -7.4,105.9 -0.1,246.3 -156.9,-56.5 -341.1,-77.8 -456.1,-85.8 16.5,-107.9 21.7,-202.3 8.8,-269.8 0,0 136.6,-27.3 196.7,0 60.1,27.3 277.3,92.9 250.7,109.3"
         style="fill:#f2f2f2;fill-opacity:1;fill-rule:nonzero;stroke:none"
         id="path358" />
      <path
         d="m 13185.6,12587.1 c 0,0 138.9,-129.5 193.6,-508.3 54.6,-378.8 -125.9,-608.6 -125.9,-608.6 0,0 -177.1,49.3 -416.9,269.5 -239.7,220.2 -382.4,575.8 -386,586.7 -3.7,11 -211.3,531.8 -211.3,531.8 0,0 -134.8,105.7 -193,265.9 -58.3,160.3 -284.1,739.4 -364.3,1140.1 l 346.1,54.6 c 0,0 0,-102 83.7,-233.1 83.8,-131.1 306,-597.4 357,-666.6 51,-69.2 320.5,-389.7 426.1,-564.5 105.7,-174.8 123.9,-214.9 123.9,-214.9 0,0 104.6,-6.9 167,-52.6"
         style="fill:#fbc295;fill-opacity:1;fill-rule:nonzero;stroke:none"
         id="path360" />
      <path
         d="m 13113.3,12322.8 c -5.4,-26 -94.7,316.9 -94.7,316.9 l 94.7,-18.3 c 0,0 21.8,-193 0,-298.6"
         style="fill:#de966d;fill-opacity:1;fill-rule:nonzero;stroke:none"
         id="path362" />
      <path
         d="m 11173.7,14473.6 379.7,32.8 4613.9,502.2 c 0,0 65.6,120.6 0,180.7 l -4993.6,-497.6 v -218.1"
         style="fill:#bbbab8;fill-opacity:1;fill-rule:nonzero;stroke:none"
         id="path364" />
      <path
         d="m 15175.2,15090.4 c 0,0 43.3,82.5 94.3,98.9 51,16.4 91.1,0 91.1,0 0,0 54.6,29.1 81.9,16.4 27.3,-12.8 27.3,-12.8 27.3,-12.8 0,0 34.6,26.5 60.1,16 25.5,-10.5 38.3,-30.5 38.3,-30.5 0,0 45.5,9.1 60.1,0 14.5,-9.1 27.3,-149.4 12.7,-165.7 -14.5,-16.4 -30.9,0 -30.9,0 0,0 -11,-45.6 -34.6,-45.6 -23.7,0 -31,11 -31,11 0,0 -1.8,-18.3 -29.1,-21.9 -27.4,-3.6 -41.9,18.2 -41.9,18.2 0,0 -17.8,-37.8 -68.1,-28 -50.3,9.8 -114,46.2 -119.5,59 -5.5,12.7 9.3,97 9.3,97 l -120,-12"
         style="fill:#efaf83;fill-opacity:1;fill-rule:nonzero;stroke:none"
         id="path366" />
      <path
         d="m 11368.7,14570.1 c -29.5,502.8 -243.9,925.9 -529.3,1113.4 -253.2,170.6 -532.4,114.8 -532.4,114.8 l 22.1,-43.8 c -369.09,-133.7 -622.84,-663.5 -586.69,-1279.8 27.55,-469.6 216.35,-869.7 473.69,-1073.2 27.2,-64.9 64.7,-108.4 114.7,-123.5 429.3,-130.4 656.1,136.2 656.1,136.3 253.5,223.4 410.8,661.8 381.8,1155.8"
         style="fill:#295a9b;fill-opacity:1;fill-rule:nonzero;stroke:none"
         id="path368" />
      <path
         d="m 11569,14731.1 c 0,0 67.3,106.7 112.8,123.1 45.6,16.4 87.4,0 87.4,0 0,0 34.6,47.4 69.2,45.5 34.7,-1.8 56.5,-18.7 56.5,-18.7 0,0 20,36.9 49.2,33.3 29.1,-3.6 41.9,-21.8 41.9,-21.8 0,0 32.8,29.6 61.9,22.1 29.1,-7.6 67.4,-113.2 67.4,-113.2 l 49.1,-167.5 c 0,0 -65.5,-96.6 -87.4,-102 -21.8,-5.5 -120.2,-5.5 -125.6,0 -5.5,5.4 -76.4,5.4 -84.7,45.5 0,0 -41,-16.4 -72,16.4 -30.9,32.8 -74.7,152.4 -74.7,152.4 l -151,-15.1"
         style="fill:#efaf83;fill-opacity:1;fill-rule:nonzero;stroke:none"
         id="path370" />
      <path
         d="m 11769.2,14854.2 c 0,0 40.4,-22.7 71.2,-96 30.8,-73.4 26.3,-180.8 26.3,-180.8 0,0 28.2,52 13.6,144.4 -14.5,92.4 -85.5,159.2 -85.5,159.2 l -25.6,-26.8"
         style="fill:#de966d;fill-opacity:1;fill-rule:nonzero;stroke:none"
         id="path372" />
      <path
         d="m 11894.9,14881 c 0,0 58.3,-105.1 56.5,-349.1 0,0 49.7,206.5 -40.7,369.1 l -15.8,-20"
         style="fill:#de966d;fill-opacity:1;fill-rule:nonzero;stroke:none"
         id="path374" />
      <path
         d="m 11986,14892.5 c 0,0 44.7,-140.6 34.2,-335.3 0,0 48.8,151.2 -7.3,352.5 l -26.9,-17.2"
         style="fill:#de966d;fill-opacity:1;fill-rule:nonzero;stroke:none"
         id="path376" />
      <path
         d="m 11194.3,14582.2 c 41,-698 -289.9,-1285.2 -739,-1311.5 -449.1,-26.4 -846.35,518.1 -887.29,1216.1 -40.95,698 289.92,1285.2 738.99,1311.5 449.1,26.4 846.4,-518.1 887.3,-1216.1"
         style="fill:#3777b3;fill-opacity:1;fill-rule:nonzero;stroke:none"
         id="path378" />
      <path
         d="m 15469.8,15192.9 c 0,0 41.9,-10.9 74.7,-214.8 0,0 5.5,133.4 -51,233.3 l -23.7,-18.5"
         style="fill:#de966d;fill-opacity:1;fill-rule:nonzero;stroke:none"
         id="path380" />
      <path
         d="m 15568.2,15178.4 c 0,0 25.5,-72.9 41.9,-165.7 0,0 7.3,75.3 -20.9,168.7 l -21,-3"
         style="fill:#de966d;fill-opacity:1;fill-rule:nonzero;stroke:none"
         id="path382" />
      <path
         d="m 15360.6,15189.3 c 0,0 71,-54.6 112.9,-214.9 0,0 -11.9,130.2 -81.5,228.1 l -31.4,-13.2"
         style="fill:#de966d;fill-opacity:1;fill-rule:nonzero;stroke:none"
         id="path384" />
      <path
         d="m 10985.9,14559 c 36.2,-617.2 -232.7,-1135 -600.6,-1156.6 -367.8,-21.6 -695.42,461.2 -731.62,1078.4 -36.21,617.2 232.67,1135.1 600.52,1156.6 367.9,21.6 695.5,-461.2 731.7,-1078.4"
         style="fill:#408dbf;fill-opacity:1;fill-rule:nonzero;stroke:none"
         id="path386" />
      <path
         d="m 10476.3,14502.1 c -8,137.1 -66.5,252.5 -144.3,303.6 -69.1,46.5 -145.2,31.3 -145.2,31.3 l 6,-11.9 c -100.6,-36.5 -169.8,-181 -159.9,-349 7.5,-128 59,-237.1 129.1,-292.6 7.4,-17.7 17.7,-29.6 31.3,-33.7 117.1,-35.6 178.9,37.2 178.9,37.2 69.1,60.9 112,180.4 104.1,315.1"
         style="fill:#252323;fill-opacity:1;fill-rule:nonzero;stroke:none"
         id="path388" />
      <path
         d="m 10428.8,14505.4 c 11.1,-190.3 -79.1,-350.4 -201.6,-357.6 -122.4,-7.2 -230.72,141.3 -241.88,331.6 -11.16,190.3 79.08,350.4 201.48,357.6 122.5,7.2 230.8,-141.3 242,-331.6"
         style="fill:#3e3d3f;fill-opacity:1;fill-rule:nonzero;stroke:none"
         id="path390" />
      <path
         d="m 10210.8,14601.5 -885.41,-81.7 c 0,0 -83.91,-124.5 10.8,-255.6 l 891.61,95.8 c 30,107.1 5.5,192.6 -17,241.5"
         style="fill:#bbbab8;fill-opacity:1;fill-rule:nonzero;stroke:none"
         id="path392" />
      <path
         d="m 11681.8,14264.2 -38.2,54.6 c 0,0 -90.2,138.4 -90.2,187.6 l 466.8,50.8 c 0,0 74.1,25.7 79.6,33.9 5.5,8.2 27.3,100.6 27.3,100.6 0,0 -57.4,87.9 -60.1,128.8 -2.7,41 10.9,51.9 21.9,60.1 10.9,8.2 158.4,-128.4 172.1,-158.4 13.6,-30.1 8.2,-172.1 -24.6,-210.4 -32.8,-38.2 -208.5,-193 -208.5,-193 l -217.7,-164.8 -128.4,110.2"
         style="fill:#fbc295;fill-opacity:1;fill-rule:nonzero;stroke:none"
         id="path394" />
      <path
         d="m 15309.6,14643.3 c 0,0 21.8,37.9 -30.1,95.3 -51.9,57.3 -87.7,163.8 -87.7,163.8 l 41.1,4.5 c 0,0 -14.4,125.8 -10.7,140.4 3.6,14.5 127.4,96.5 174.8,98.3 47.3,1.8 21.8,-56.5 0,-83.8 -21.9,-27.3 -56.5,-49.1 -56.5,-49.1 l 83.3,-85 238.8,26 c 0,0 3.9,-103.1 -16.1,-196 -20,-92.9 -64.5,-153 -64.5,-153 l -165,-65.5 -107.4,104.1"
         style="fill:#fbc295;fill-opacity:1;fill-rule:nonzero;stroke:none"
         id="path396" />
    </g>
  </g>
</svg>
