<?xml version="1.0" encoding="UTF-8" standalone="no"?>
<!-- Created with Inkscape (http://www.inkscape.org/) -->

<svg
   version="1.1"
   id="svg1661"
   width="2666.6667"
   height="2666.6667"
   viewBox="0 0 2666.6667 2666.6667"
   sodipodi:docname="deadlift.svg"
   inkscape:version="1.2.2 (b0a8486541, 2022-12-01)"
   xmlns:inkscape="http://www.inkscape.org/namespaces/inkscape"
   xmlns:sodipodi="http://sodipodi.sourceforge.net/DTD/sodipodi-0.dtd"
   xmlns="http://www.w3.org/2000/svg"
   xmlns:svg="http://www.w3.org/2000/svg">
  <defs
     id="defs1665">
    <clipPath
       clipPathUnits="userSpaceOnUse"
       id="clipPath1793">
      <path
         d="m 7365.08,3032 c -303.39,0 -584.44,95.7 -814.67,258.4 -268.72,190 -468.21,471.4 -553.13,798.9 -29.46,113.7 -45.13,232.8 -45.13,355.7 0,780.3 632.6,1412.9 1412.93,1412.9 780.34,0 1412.93,-632.6 1412.93,-1412.9 0,-780.4 -632.59,-1413 -1412.93,-1413"
         id="path1791" />
    </clipPath>
  </defs>
  <sodipodi:namedview
     id="namedview1663"
     pagecolor="#ffffff"
     bordercolor="#000000"
     borderopacity="0.25"
     inkscape:showpageshadow="2"
     inkscape:pageopacity="0.0"
     inkscape:pagecheckerboard="0"
     inkscape:deskcolor="#d1d1d1"
     showgrid="false"
     inkscape:zoom="0.31574998"
     inkscape:cx="1333.3334"
     inkscape:cy="1334.9169"
     inkscape:window-width="1854"
     inkscape:window-height="1011"
     inkscape:window-x="66"
     inkscape:window-y="32"
     inkscape:window-maximized="1"
     inkscape:current-layer="g1671">
    <inkscape:page
       x="0"
       y="0"
       id="page1667"
       width="2666.6667"
       height="2666.6667" />
  </sodipodi:namedview>
  <g
     id="g1669"
     inkscape:groupmode="layer"
     inkscape:label="Page 1"
     transform="matrix(1.3333333,0,0,-1.3333333,0,2666.6667)">
    <g
       id="g1671"
       transform="scale(0.1)">
      <path
         d="m 14253.7,14990.8 c 0,0 -257.6,-346.7 -333.9,-669.7 -76.3,-323 -69.5,-681.2 -12.9,-875.5 56.7,-194.3 520.3,-165.2 510.1,-33.4 -10.2,131.9 117.5,743.7 65,856.4 -52.6,112.6 -228.3,722.2 -228.3,722.2"
         style="fill:#3970c0;fill-opacity:1;fill-rule:nonzero;stroke:none"
         id="path1675" />
      <path
         d="m 14985.2,4413.4 140.9,-73.2 c 0,0 225.3,-146.5 332.3,-208.5 107.1,-61.9 416.9,-197.1 529.6,-219.7 112.7,-22.5 309.9,-50.7 354.9,-118.3 45.1,-67.6 43.1,-182 -56.3,-252.8 -99.4,-70.9 -513.2,-130.3 -513.2,-130.3 l -996.6,247.9 c 0,0 -367.8,170.2 -225.4,449.8 142.5,279.6 433.8,305.1 433.8,305.1"
         style="fill:#2e61a1;fill-opacity:1;fill-rule:nonzero;stroke:none"
         id="path1677" />
      <path
         d="m 14545.8,4019.1 -197.2,-62 c 0,0 -78.9,-67.6 -90.1,-112.7 -11.3,-45.1 -129.6,-681.7 -84.5,-771.8 45,-90.1 861.9,-73.2 974.6,-90.1 112.7,-16.9 850.7,-16.9 1036.6,61.9 185.9,78.9 202.8,304.3 169,360.6 -33.8,56.3 -253.5,67.6 -366.2,123.9 -112.7,56.4 -655.3,366.2 -722,411.3 -66.7,45.1 -213.2,84.5 -213.2,84.5 0,0 -318.2,107 -373.2,78.9 -54.9,-28.2 -133.8,-84.5 -133.8,-84.5"
         style="fill:#3970c0;fill-opacity:1;fill-rule:nonzero;stroke:none"
         id="path1679" />
      <path
         d="m 14895.1,5410.6 c 23.6,-39.5 146.5,-890.1 231,-1070.4 0,0 -197.2,-146.5 -343.7,-152.1 -146.5,-5.7 -102.8,878.8 -102.8,878.8 l 215.5,343.7"
         style="fill:#e9ae86;fill-opacity:1;fill-rule:nonzero;stroke:none"
         id="path1681" />
      <path
         d="m 14675.8,4636.1 c 6.9,-224 32.2,-450.9 106.6,-448 146.5,5.6 343.7,152.1 343.7,152.1 -24.9,53.1 -71.8,254.7 -99.8,386.2 l -350.5,-90.3"
         style="fill:#e7e7e6;fill-opacity:1;fill-rule:nonzero;stroke:none"
         id="path1683" />
      <path
         d="m 14053.8,9273.4 c 0,0 58.2,-330.5 30,-617.8 -28.1,-287.4 45.1,-732.4 33.8,-1087.3 -11.2,-355 -61.9,-743.7 -140.8,-1245.1 -78.9,-501.4 56.3,-912.6 169,-1284.5 112.7,-371.8 202.8,-1081.6 202.8,-1081.6 0,0 78.9,-45.1 95.8,-90.1 16.9,-45.1 112.7,-157.8 191.5,-174.7 78.9,-16.9 422.6,309.9 416.9,332.4 -5.6,22.5 -73.2,140.8 -112.6,523.9 -39.5,383.1 -11.3,1633.8 -16.9,2112.6 0,0 112.6,247.9 197.1,585.9 84.5,338.1 272.3,1263.9 285.5,1958.7 13.1,694.8 -764.3,554 -764.3,554 l -587.8,-486.4"
         style="fill:#fbc398;fill-opacity:1;fill-rule:nonzero;stroke:none"
         id="path1685" />
      <path
         d="m 14276.6,4435.6 c 44.1,-258.9 72,-478.5 72,-478.5 0,0 78.9,-45.1 95.8,-90.1 16.9,-45.1 112.7,-157.8 191.5,-174.7 78.9,-16.9 422.6,309.9 416.9,332.4 -5,20.1 -68.5,188.9 -108.2,482.8 l -668,-71.9"
         style="fill:#f5f6f5;fill-opacity:1;fill-rule:nonzero;stroke:none"
         id="path1687" />
      <path
         d="m 14279.1,11504.3 c 0,0 -157.7,-240.4 -210.3,-277.9 -52.6,-37.6 -360.5,-383.1 -353,-781.2 7.5,-398.1 247.7,-788.7 281.6,-871.4 33.9,-82.6 56.4,-300.4 56.4,-300.4 0,0 845,-7.5 1098.5,-37.6 253.6,-30 253.6,-30 253.6,-30 l 367.5,1750.2 c 0,0 -577.9,593.4 -698,615.9 -120.2,22.5 -796.3,-67.6 -796.3,-67.6"
         style="fill:#1a1918;fill-opacity:1;fill-rule:nonzero;stroke:none"
         id="path1689" />
      <path
         d="m 14427.5,15108.9 -173.8,-118.1 -247.6,-457 226.1,-801.2 -325.3,-287 c 0,0 372.2,-1262.7 391.8,-1472.2 19.6,-209.4 -55,-540.8 -55,-540.8 0,0 542.7,5.6 937.7,-183.7 394.9,-189.4 574,-347.4 592,-292.9 18.1,54.5 -47.8,1732 -47.8,1732 0,0 254.3,265.3 240.3,656.3 -14,391 -372.8,641 -507.3,784.2 -134.4,143.3 -233.7,361 -409.4,586 -175.8,224.9 -412.1,332 -412.1,332 l -209.6,62.4"
         style="fill:#3970c0;fill-opacity:1;fill-rule:nonzero;stroke:none"
         id="path1691" />
      <path
         d="m 14561.7,16332.4 c 0,0 -262.3,-559.2 -269.4,-736.4 -10.6,-264.3 -38.6,-605.2 -38.6,-605.2 0,0 192.7,36.9 311.6,-23.7 118.8,-60.5 371.4,-261 556.8,-585.3 51.8,-90.5 336.5,-253.3 336.5,-253.3 0,0 -264.9,354 -285.5,412.4 -20.5,58.5 -121.9,151.1 -123.9,173.6 -2.2,22.4 115.8,770.6 115.8,770.6 l -91.6,419.9 c 0,0 -314.6,347.7 -325.5,339.2 -11,-8.6 -186.2,88.2 -186.2,88.2"
         style="fill:#fbc398;fill-opacity:1;fill-rule:nonzero;stroke:none"
         id="path1693" />
      <path
         d="m 14135.6,14793.9 -138.4,-232.2 c 0,0 -102.1,-204.7 -147.9,-406.4 -45.8,-201.8 14.2,-570.3 57.6,-709.7 24.9,-79.7 169.9,-184.8 353.4,-171.4 0,0 208.8,-752.5 221,-842.1 12.2,-89.7 48.9,-430 168.5,-844.9 119.5,-415 430.9,-1045.5 514.2,-1199.1 83.3,-153.6 111.3,-186 111.3,-186 l 301.1,139.9 c 0,0 -162,721.2 -191.6,997.9 -29.5,276.8 -39.6,539.5 -126,753.1 -86.4,213.6 -106.3,306.6 -116.4,355 -10.1,48.3 -109.6,1227.8 -109.6,1227.8 0,0 182.2,182.6 131.4,364.2 -50.9,181.6 -146.5,281.9 -146.5,281.9 0,0 -10.2,127.2 -115.1,296.6 -104.9,169.5 -275.8,201.2 -275.8,201.2 0,0 -245,230.8 -491.2,-25.8"
         style="fill:#fbc398;fill-opacity:1;fill-rule:nonzero;stroke:none"
         id="path1695" />
      <path
         d="m 14154.5,13607.1 c 0,0 -24.1,-175.7 -116.9,-287.1 68.2,-31.1 147,-51.3 222.7,-45.8 l -105.8,332.9"
         style="fill:#e4a479;fill-opacity:1;fill-rule:nonzero;stroke:none"
         id="path1697" />
      <path
         d="m 15032.8,13675.8 c 0,0 182.3,182.6 131.4,364.2 -50.9,181.6 -146.5,281.9 -146.5,281.9 0,0 53.5,-158.9 39.3,-317.6 -14.3,-158.7 -24.2,-328.5 -24.2,-328.5"
         style="fill:#e4a479;fill-opacity:1;fill-rule:nonzero;stroke:none"
         id="path1699" />
      <path
         d="m 14458.6,14871.7 c -36.3,-43.9 -98.7,-86 -107,-91.5 8.5,5.5 78.5,46 275.2,39.5 0,0 -58.3,54.7 -146.4,81.2 -7.7,-11 -15.1,-21 -21.8,-29.2"
         style="fill:#e4a479;fill-opacity:1;fill-rule:nonzero;stroke:none"
         id="path1701" />
      <path
         d="m 15277.1,10193.5 v -296.7 l 393.8,123.5 -85.9,297.2 c 0,0 -65.9,195.3 -117.4,202.8 -51.6,7.5 -190.5,-326.8 -190.5,-326.8"
         style="fill:#fbc398;fill-opacity:1;fill-rule:nonzero;stroke:none"
         id="path1703" />
      <path
         d="m 17082.7,8730.1 c 0,-779.7 -632.1,-1411.8 -1411.8,-1411.8 -779.7,0 -1411.8,632.1 -1411.8,1411.8 0,779.7 632.1,1411.8 1411.8,1411.8 779.7,0 1411.8,-632.1 1411.8,-1411.8"
         style="fill:#5e6061;fill-opacity:1;fill-rule:nonzero;stroke:none"
         id="path1705" />
      <path
         d="m 15670.9,7318.3 c -180.4,0 -352.8,33.8 -511.4,95.4 -526.9,204.9 -900.4,717 -900.4,1316.4 0,779.7 632.1,1411.8 1411.8,1411.8 779.7,0 1411.8,-632.1 1411.8,-1411.8 0,-779.7 -632.1,-1411.8 -1411.8,-1411.8"
         style="fill:#656769;fill-opacity:1;fill-rule:nonzero;stroke:none"
         id="path1707" />
      <path
         d="m 16961.1,8730.1 c 0,-712.6 -577.6,-1290.3 -1290.2,-1290.3 -712.6,0 -1290.3,577.7 -1290.3,1290.3 0,712.6 577.7,1290.2 1290.3,1290.2 712.6,0 1290.2,-577.6 1290.2,-1290.2"
         style="fill:#5e6061;fill-opacity:1;fill-rule:nonzero;stroke:none"
         id="path1709" />
      <path
         d="m 16280,8707.9 c 0,-336.5 -272.7,-609.2 -609.1,-609.2 -336.4,0 -609.2,272.7 -609.2,609.2 0,336.4 272.8,609.1 609.2,609.1 336.4,0 609.1,-272.7 609.1,-609.1"
         style="fill:#535456;fill-opacity:1;fill-rule:nonzero;stroke:none"
         id="path1711" />
      <path
         d="m 16052.7,8689.5 c 0,-210.8 -171,-381.8 -381.8,-381.8 -210.9,0 -381.8,171 -381.8,381.8 0,210.9 170.9,381.8 381.8,381.8 210.8,0 381.8,-170.9 381.8,-381.8"
         style="fill:#414042;fill-opacity:1;fill-rule:nonzero;stroke:none"
         id="path1713" />
      <path
         d="m 15900.2,8692.8 c 0,-119.5 -96.9,-216.3 -216.3,-216.3 -119.5,0 -216.3,96.8 -216.3,216.3 0,119.5 96.8,216.3 216.3,216.3 119.4,0 216.3,-96.8 216.3,-216.3"
         style="fill:#8d8d8d;fill-opacity:1;fill-rule:nonzero;stroke:none"
         id="path1715" />
      <path
         d="m 15757.4,8565.5 c 51,21.2 99.6,42.4 99.6,42.4 l -28.3,109.9 c -1.3,8 -3.3,15.7 -5.9,23.2 l -0.1,0.1 v 0 c -20,57.5 -74.5,98.8 -138.8,98.8 -81.3,0 -147.1,-65.8 -147.1,-147.1 0,-22.3 5.1,-43.3 13.9,-62.2 l 20.6,-91.8 c 0,0 49.7,-17.5 72.5,-15.7 8.6,0.6 40.6,12.7 77.3,27.5 12.9,3.4 25.1,8.4 36.3,14.9"
         style="fill:#767779;fill-opacity:1;fill-rule:nonzero;stroke:none"
         id="path1717" />
      <path
         d="m 15862.6,8567.9 c 0,-81.2 -65.9,-147.1 -147.1,-147.1 -81.3,0 -147.1,65.9 -147.1,147.1 0,81.3 65.8,147.1 147.1,147.1 81.2,0 147.1,-65.8 147.1,-147.1"
         style="fill:#8d8d8d;fill-opacity:1;fill-rule:nonzero;stroke:none"
         id="path1719" />
      <path
         d="m 14025.9,16756.5 c -4.5,-11.7 -400.1,0 -463.9,-602 -53.5,-504.8 179.8,-913.4 186.1,-1079.7 6.3,-166.4 -46.3,-287.7 -46.3,-287.7 0,0 343.9,28 361.6,368.1 17.7,340 -42.4,811.3 -65.9,877.5 -23.5,66.2 -14.8,517.9 -14.8,517.9 l 43.2,205.9"
         style="fill:#34231f;fill-opacity:1;fill-rule:nonzero;stroke:none"
         id="path1721" />
      <path
         d="m 14122.6,16776.3 c 0,0 -68.4,9.4 -96.7,-19.8 -28.3,-29.1 -93.4,-162.3 -88.1,-205.4 5.4,-43 63.5,-85.3 63.5,-85.3 0,0 80,29.9 79.4,75.9 -0.7,46 41.9,234.6 41.9,234.6"
         style="fill:#3a70c0;fill-opacity:1;fill-rule:nonzero;stroke:none"
         id="path1723" />
      <path
         d="m 14764.8,15636.8 c 0,0 126.5,-330.4 180.4,-391.4 54,-60.9 155.7,-167.8 155.7,-167.8 0,0 290.3,354.2 317.8,430.2 27.5,76.1 -425,193.1 -462.2,213.2 -37.1,20.1 -191.7,-84.2 -191.7,-84.2"
         style="fill:#df9866;fill-opacity:1;fill-rule:nonzero;stroke:none"
         id="path1725" />
      <path
         d="m 15374.3,16581.7 c 16.3,8.2 89.5,106.7 89.5,106.7 0,0 101.1,270.4 -377.7,325.6 -478.8,55.2 -821.9,-77.2 -1021.4,-294.9 -199.5,-217.6 -120.1,-794.1 9,-989.9 129,-195.8 219.2,-190.1 219.2,-190.1 l 367.7,233.6 c 0,0 479.9,13 496.1,51.3 16.2,38.2 102.2,322.2 107.5,365.8 5.3,43.7 110.1,391.9 110.1,391.9"
         style="fill:#523d38;fill-opacity:1;fill-rule:nonzero;stroke:none"
         id="path1727" />
      <path
         d="m 14073.3,15729.8 c -13.2,20.1 -26,43.3 -38,69.2 -0.1,1.3 -0.3,2.5 -0.4,3.8 12.1,-27.9 24.9,-52.5 38.4,-73"
         style="fill:#8d8681;fill-opacity:1;fill-rule:nonzero;stroke:none"
         id="path1729" />
      <path
         d="m 14660.7,15772.7 c 0,0 0.1,0 0.1,0 0,0 -0.1,0 -0.1,0 m 0.2,0 v 0 0 m 0.2,0 v 0 0 m 0.1,0 c 0,0 0,0 0.1,0 -0.1,0 -0.1,0 -0.1,0 m 0.1,0 v 0 0 m 0.1,0 v 0 0 m 0.2,0 v 0 0"
         style="fill:#8b6b55;fill-opacity:1;fill-rule:nonzero;stroke:none"
         id="path1731" />
      <path
         d="m 14035.3,15799 c -62.1,133.7 -104.5,338 -90,552.3 -9.7,-196.2 30.3,-411.9 89.6,-548.5 0.1,-1.3 0.3,-2.5 0.4,-3.8"
         style="fill:#362622;fill-opacity:1;fill-rule:nonzero;stroke:none"
         id="path1733" />
      <path
         d="m 14292.1,15539.1 c -9.2,0 -96.5,5 -218.4,190.1 v 0 0 c -0.2,0.2 -0.3,0.4 -0.4,0.6 -13.5,20.5 -26.3,45.1 -38.4,73 -59.3,136.6 -99.3,352.3 -89.6,548.5 0.8,11.8 1.8,23.7 2.9,35.6 44.1,-54.1 302.4,-351.7 733.5,-452.2 235.3,-54.8 329,-109.7 392.5,-134.6 -136.2,-19.3 -394.3,-26.8 -412.6,-27.4 v 0 c -0.1,0 -0.1,0 -0.2,0 v 0 c 0,0 0,0 -0.1,0 v 0 0 c -0.1,0 -0.1,0 -0.1,0 -0.1,0 -0.1,0 -0.1,0 v 0 c -0.1,0 -0.2,0 -0.2,0 v 0 c -0.1,0 -0.1,0 -0.1,0 0,0 -0.1,0 -0.1,0 -0.1,0 -0.1,0 -0.1,0 v 0 l -367.7,-233.6 c 0,0 -0.1,0 -0.2,0 -0.1,0 -0.3,0 -0.6,0"
         style="fill:#42322c;fill-opacity:1;fill-rule:nonzero;stroke:none"
         id="path1735" />
      <path
         d="m 15194.1,16646.3 c 0,0 -176.2,64.1 -356.1,43.2 0,0 188.4,-60.3 229.6,-133.7 41.3,-73.5 -77.2,-119 -77.2,-119 0,0 -307,51.9 -560.4,-2.4 0,0 397.3,-100 508.3,-245 111.1,-145 247.5,166.5 240,178.7 -7.6,12.2 15.8,278.2 15.8,278.2"
         style="fill:#372a23;fill-opacity:1;fill-rule:nonzero;stroke:none"
         id="path1737" />
      <path
         d="m 14812.5,15961.5 c 0,0 -33.6,204.4 -164.3,149.3 -130.6,-55.1 -25.5,-398.2 45.6,-436.1 71,-37.9 71,-37.9 71,-37.9 0,0 197.7,-293.6 290.7,-369.6 93.1,-76 476.3,-96.1 525.3,-75.4 49,20.6 47.1,462.7 47.1,462.7 0,0 142.8,73.9 146.8,90.3 4.1,16.4 -152.3,236.6 -164.7,261.1 -12.4,24.5 -1.3,302.7 -18.1,388.5 -16.7,85.9 -111.6,277.7 -128.1,294 -16.4,16.3 -228.9,-25.5 -269.7,-42.1 -40.9,-16.5 -171.5,-74.4 -208.1,-127.7 -36.6,-53.3 -31.4,-302.8 -63.7,-413.4 -32.2,-110.6 -52.5,-139.3 -109.8,-143.7"
         style="fill:#fbc398;fill-opacity:1;fill-rule:nonzero;stroke:none"
         id="path1739" />
      <path
         d="m 15127.3,16616.3 c 0,0 -12,-168.8 -171.2,-244 -159.1,-75.3 -8.9,-99.4 -8.9,-99.4 0,0 126.1,66.4 180.9,150.2 54.9,83.8 66,223.2 66,223.2 l -66.8,-30"
         style="fill:#372a23;fill-opacity:1;fill-rule:nonzero;stroke:none"
         id="path1741" />
      <path
         d="m 8461.46,5939.6 c 0,-618.1 -501.09,-1119.2 -1119.2,-1119.2 -618.12,0 -1119.19,501.1 -1119.19,1119.2 0,618.1 501.07,1119.2 1119.19,1119.2 618.11,0 1119.2,-501.1 1119.2,-1119.2"
         style="fill:#5e6061;fill-opacity:1;fill-rule:nonzero;stroke:none"
         id="path1743" />
      <path
         d="m 8351.93,5456.1 c -24.1,23.6 -49.04,46.2 -74.76,68 56.51,127 87.92,267.6 87.92,415.5 0,409.5 -240.57,762.7 -588.11,926.1 4.64,32.9 8.64,66.4 12.03,100.4 395.75,-172.5 672.45,-567.2 672.45,-1026.5 0,-173.2 -39.32,-337.1 -109.53,-483.5 M 6929.64,6875.8 c 5.03,50.6 7.45,79.6 7.45,79.6 0,0 1.86,10.6 4.9,29.7 49.37,18.9 100.47,34.4 152.92,46.3 2.34,-32.7 5.05,-65.1 8.15,-97.1 -60.03,-14.4 -118.03,-34.1 -173.42,-58.5"
         style="fill:#656769;fill-opacity:1;fill-rule:nonzero;stroke:none"
         id="path1745" />
      <path
         d="m 8365.09,5939.6 c 0,-564.9 -457.94,-1022.8 -1022.83,-1022.8 -564.9,0 -1022.83,457.9 -1022.83,1022.8 0,564.9 457.93,1022.8 1022.83,1022.8 564.89,0 1022.83,-457.9 1022.83,-1022.8"
         style="fill:#5e6061;fill-opacity:1;fill-rule:nonzero;stroke:none"
         id="path1747" />
      <path
         d="m 7825.16,5922 c 0,-266.7 -216.2,-482.9 -482.9,-482.9 -266.7,0 -482.9,216.2 -482.9,482.9 0,266.7 216.2,482.9 482.9,482.9 266.7,0 482.9,-216.2 482.9,-482.9"
         style="fill:#535456;fill-opacity:1;fill-rule:nonzero;stroke:none"
         id="path1749" />
      <path
         d="m 7644.91,5907.4 c 0,-167.1 -135.5,-302.6 -302.65,-302.6 -167.15,0 -302.66,135.5 -302.66,302.6 0,167.2 135.51,302.7 302.66,302.7 167.15,0 302.65,-135.5 302.65,-302.7"
         style="fill:#414042;fill-opacity:1;fill-rule:nonzero;stroke:none"
         id="path1751" />
      <path
         d="m 7524.03,5910.1 c 0,-94.7 -76.77,-171.5 -171.47,-171.5 -94.7,0 -171.47,76.8 -171.47,171.5 0,94.6 76.77,171.4 171.47,171.4 94.7,0 171.47,-76.8 171.47,-171.4"
         style="fill:#8d8d8d;fill-opacity:1;fill-rule:nonzero;stroke:none"
         id="path1753" />
      <path
         d="m 7270.13,6162.3 c -0.39,-7.5 -45.33,-84.1 -74.24,-153.1 -28.9,-69 -31.71,-245.3 -31.71,-245.3 0,0 105.56,18.8 154.42,33.8 48.87,15.1 131.56,60.2 131.56,60.2 0,0 -75.18,259.3 -86.45,278.1 -11.28,18.8 -93.58,26.3 -93.58,26.3"
         style="fill:#e9ae86;fill-opacity:1;fill-rule:nonzero;stroke:none"
         id="path1755" />
      <path
         d="m 5910.95,4955.8 c -26.31,-22.6 -154.08,-141.6 -156.94,-151.6 -2.86,-10.1 -61.3,-66.4 -79.98,-137.8 -18.68,-71.5 -97.61,-522.5 -90.1,-571.4 7.52,-48.8 327.02,-150.3 327.02,-150.3 l 319.49,676.6 -319.49,334.5"
         style="fill:#2e61a1;fill-opacity:1;fill-rule:nonzero;stroke:none"
         id="path1757" />
      <path
         d="m 5858.33,5579.7 c 0,0 -37.59,-593.8 -120.28,-826.9 l 353.32,-67.7 c 0,0 93.97,545.1 22.55,706.7 -71.41,161.6 -255.59,187.9 -255.59,187.9"
         style="fill:#e7e7e6;fill-opacity:1;fill-rule:nonzero;stroke:none"
         id="path1759" />
      <path
         d="m 5862.09,4136.4 c 0,0 -71.42,-60.2 -86.46,-120.3 -15.04,-60.2 -105.24,-556.3 -101.48,-586.4 3.76,-30.1 63.9,-105.2 187.94,-131.5 124.03,-26.3 1022.38,0 1022.38,0 0,0 -7.52,345.4 -90.21,413.2 -82.7,67.9 -578.85,349.8 -605.17,372.4 -26.31,22.5 -327,52.6 -327,52.6"
         style="fill:#3970c0;fill-opacity:1;fill-rule:nonzero;stroke:none"
         id="path1761" />
      <path
         d="m 6018.03,8941.5 c 0,0 1039.44,-708.1 1114.56,-903.5 75.13,-195.5 -273.64,-969.8 -268.4,-947.2 5.24,22.5 -949.48,1090 -949.48,1090 0,0 -556.99,630.2 -439.71,685 117.29,54.8 543.03,75.7 543.03,75.7"
         style="fill:#e9ae86;fill-opacity:1;fill-rule:nonzero;stroke:none"
         id="path1763" />
      <path
         d="m 4666.57,10232 -432.03,-11.8 c 0,0 -699.13,-54.8 -1088.16,-517.1 -389.03,-462.3 -197.33,-896.5 -45.11,-1116.4 152.24,-219.8 248.09,-253.7 248.09,-253.7 l 167.26,-114.6 c 0,0 556.3,240.5 714.16,345.8 157.87,105.2 669.06,526.2 699.13,541.2 30.07,15.1 285.67,-75.1 285.67,-75.1 0,0 195.46,270.6 142.83,488.6 -52.62,218 -691.84,713.1 -691.84,713.1"
         style="fill:#1a1918;fill-opacity:1;fill-rule:nonzero;stroke:none"
         id="path1765" />
      <path
         d="M 4623.49,9255.8 4929.91,9105.4 5475,8865.8 c 0,0 -76.75,398.6 -121.86,451.2 -45.1,52.6 -398.95,319.6 -398.95,319.6 0,0 -17.59,-276.2 -47.25,-309.7 -29.65,-33.5 -283.45,-71.1 -283.45,-71.1"
         style="fill:#100f0d;fill-opacity:1;fill-rule:nonzero;stroke:none"
         id="path1767" />
      <path
         d="m 8156.83,10493 -42.78,-244.7 c 0,0 -169.88,-356.8 -193.28,-394.1 -23.41,-37.3 -295.81,-842.2 -295.81,-842.2 0,0 -118.24,-135.4 -304.13,-149.2 -185.9,-13.7 -307.46,43.8 -324.98,47.1 -17.52,3.4 -743.83,-9.5 -1087.33,-77.9 -343.5,-68.4 -711.82,-97.4 -711.82,-97.4 0,0 70.38,590.3 -76.55,877.6 -146.94,287.4 -458.95,617.5 -453.58,619.8 5.37,2.4 701.07,159 1200.75,334.6 499.69,175.7 939.3,431 1248.65,527.5 309.35,96.5 611.8,103.8 737.53,99.7 125.73,-4.1 263.79,-99.6 308.62,-178.7 44.83,-79.1 82.29,-187.9 76.45,-256.9 -5.84,-69.1 -81.74,-265.2 -81.74,-265.2"
         style="fill:#3970c0;fill-opacity:1;fill-rule:nonzero;stroke:none"
         id="path1769" />
      <path
         d="m 8657.28,10833.9 c 0,0 -182.83,-165.2 -219.78,-200.6 -36.94,-35.3 -148.99,-160.4 -195.6,-208.5 -46.61,-48 -127.85,-176.5 -127.85,-176.5 l -10.57,78.2 c 0,0 -25.13,438.5 -42.93,598.2 -17.8,159.7 -207.05,269.1 -207.05,269.1 0,0 41.85,61.8 72.86,165.8 31.01,104 401.19,424 401.19,424 l 245.42,-103.9 c 0,0 145.18,-35.9 214.25,-266.3 69.07,-230.4 -129.94,-579.5 -129.94,-579.5"
         style="fill:#fbc398;fill-opacity:1;fill-rule:nonzero;stroke:none"
         id="path1771" />
      <path
         d="m 6937.09,7917.7 c -127.8,233 -1616.26,1120.1 -2007.18,1187.7 -30.06,-15 -541.26,-436 -699.13,-541.2 -157.87,-105.3 -714.17,-345.8 -714.17,-345.8 0,0 691.62,-481.1 1135.15,-575.1 443.54,-94 1217.84,-206.7 1413.3,-334.5 0,0 -225.53,-609 -240.57,-977.3 -15.03,-368.4 15.04,-774.3 30.08,-1195.3 15.03,-421 7.52,-999.8 7.52,-999.8 l 345.8,-120.3 c 0,0 330.77,1060 496.16,1593.7 165.38,533.7 233.04,1345.6 233.04,1345.6 0,0 127.8,729.2 0,962.3"
         style="fill:#fbc398;fill-opacity:1;fill-rule:nonzero;stroke:none"
         id="path1773" />
      <path
         d="m 5861.94,4814 c 4.47,-344.6 0.15,-677.6 0.15,-677.6 l 345.8,-120.3 c 0,0 118.27,379 248.73,797.9 h -594.68"
         style="fill:#f5f6f5;fill-opacity:1;fill-rule:nonzero;stroke:none"
         id="path1775" />
      <path
         d="m 6663.18,10612.1 c 0,0 -66.26,-81.1 -71.9,-165.2 -5.64,-84.1 107.13,-467.5 202.98,-608.5 95.84,-140.9 197.33,-236.8 197.33,-236.8 0,0 0,-535.6 45.11,-902.1 45.1,-366.5 78.93,-524.3 62.02,-761.1 -16.92,-236.8 -39.38,-817.6 33.87,-1223.5 73.25,-406 208.57,-947.2 208.57,-947.2 l 372.11,-56.4 c 0,0 16.91,834.4 62.02,1142.7 45.11,308.2 33.83,672.8 -18.79,996 -52.62,323.3 -26.32,1105.1 15.03,1240.4 41.35,135.3 195.46,357.1 199.22,650.3 3.76,293.2 -26.31,338.3 -26.31,338.3 0,0 64.54,176.2 26.64,392.5 -37.92,216.4 -139.4,285.7 -338.62,311.2 -199.21,25.5 -623,-39.8 -969.28,-170.6"
         style="fill:#fbc398;fill-opacity:1;fill-rule:nonzero;stroke:none"
         id="path1777" />
      <path
         d="m 6907.02,9917.3 c -38.58,-2.2 -106.39,15.6 -174.76,38.5 20.57,-46.6 41.66,-87.5 62,-117.4 95.85,-140.9 197.33,-236.8 197.33,-236.8 28.2,157.9 -84.57,315.7 -84.57,315.7"
         style="fill:#e4a479;fill-opacity:1;fill-rule:nonzero;stroke:none"
         id="path1779" />
      <path
         d="m 7873.49,10300.7 c 53.09,-73.3 70.95,-221.7 70.95,-221.7 0,0 64.55,176.2 26.63,392.5 -11.09,63.3 -27.81,113.8 -50.65,154.5 -0.47,-198.4 -91.94,-263.1 -46.93,-325.3"
         style="fill:#e4a479;fill-opacity:1;fill-rule:nonzero;stroke:none"
         id="path1781" />
      <path
         d="m 7455.8,7857.5 c 0,0 -18.79,-105.2 0,-127.8 18.79,-22.5 86.45,-86.4 97.73,-86.4 11.27,0 -22.56,86.4 -30.07,107.1 -7.52,20.7 -67.66,107.1 -67.66,107.1"
         style="fill:#e9ae86;fill-opacity:1;fill-rule:nonzero;stroke:none"
         id="path1783" />
      <path
         d="m 8778.01,4445 c 0,-780.4 -632.59,-1413 -1412.93,-1413 -780.33,0 -1412.93,632.6 -1412.93,1413 0,780.3 632.6,1412.9 1412.93,1412.9 780.34,0 1412.93,-632.6 1412.93,-1412.9"
         style="fill:#5e6061;fill-opacity:1;fill-rule:nonzero;stroke:none"
         id="path1785" />
      <g
         id="g1787">
        <g
           id="g1789"
           clip-path="url(#clipPath1793)">
          <path
             d="M 5952.15,3032 H 8778.01 V 5857.9 H 5952.15 Z"
             style="fill:#656769;fill-opacity:1;fill-rule:nonzero;stroke:none"
             id="path1795" />
        </g>
      </g>
      <path
         d="m 8656.36,4445 c 0,-713.2 -578.13,-1291.3 -1291.28,-1291.3 -713.15,0 -1291.27,578.1 -1291.27,1291.3 0,713.1 578.12,1291.2 1291.27,1291.2 713.15,0 1291.28,-578.1 1291.28,-1291.2"
         style="fill:#5e6061;fill-opacity:1;fill-rule:nonzero;stroke:none"
         id="path1797" />
      <path
         d="m 7974.72,4422.7 c 0,-336.7 -272.95,-609.6 -609.64,-609.6 -336.69,0 -609.63,272.9 -609.63,609.6 0,336.7 272.94,609.7 609.63,609.7 336.69,0 609.64,-273 609.64,-609.7"
         style="fill:#535456;fill-opacity:1;fill-rule:nonzero;stroke:none"
         id="path1799" />
      <path
         d="m 7747.17,4404.3 c 0,-211 -171.07,-382 -382.09,-382 -211.02,0 -382.08,171 -382.08,382 0,211.1 171.06,382.1 382.08,382.1 211.02,0 382.09,-171 382.09,-382.1"
         style="fill:#414042;fill-opacity:1;fill-rule:nonzero;stroke:none"
         id="path1801" />
      <path
         d="m 7594.56,4407.6 c 0,-119.5 -96.92,-216.4 -216.47,-216.4 -119.55,0 -216.47,96.9 -216.47,216.4 0,119.6 96.92,216.5 216.47,216.5 119.55,0 216.47,-96.9 216.47,-216.5"
         style="fill:#8d8d8d;fill-opacity:1;fill-rule:nonzero;stroke:none"
         id="path1803" />
      <path
         d="m 7451.68,4280.2 c 51.04,21.3 99.65,42.5 99.65,42.5 l -28.29,110 c -1.37,7.9 -3.38,15.7 -5.98,23.2 l -0.02,0.1 h -0.01 c -20.03,57.5 -74.59,98.9 -138.94,98.9 -81.32,0 -147.24,-66 -147.24,-147.3 0,-22.2 5.09,-43.3 13.94,-62.2 l 20.59,-91.9 c 0,0 49.78,-17.5 72.61,-15.7 8.55,0.7 40.59,12.7 77.34,27.5 12.89,3.4 25.09,8.4 36.35,14.9"
         style="fill:#767779;fill-opacity:1;fill-rule:nonzero;stroke:none"
         id="path1805" />
      <path
         d="m 7556.95,4282.6 c 0,-81.3 -65.92,-147.2 -147.23,-147.2 -81.32,0 -147.24,65.9 -147.24,147.2 0,81.3 65.92,147.3 147.24,147.3 81.31,0 147.23,-66 147.23,-147.3"
         style="fill:#8d8d8d;fill-opacity:1;fill-rule:nonzero;stroke:none"
         id="path1807" />
      <path
         d="m 8057.07,12672.3 c -1.39,-1.7 -13.77,1 -34.58,3.6 -98.98,12.7 -388.69,25.4 -594.13,-430.6 -208.49,-462.8 -114.48,-923.8 -160.44,-1083.8 -45.96,-160 -133.91,-258.9 -133.91,-258.9 0,0 335.47,-80.8 458.52,236.8 123.05,317.5 213.15,784 211.5,854.2 -1.65,70.2 147.66,496.6 147.66,496.6 l 105.38,182.1"
         style="fill:#34231f;fill-opacity:1;fill-rule:nonzero;stroke:none"
         id="path1809" />
      <path
         d="m 8155.15,12660.8 c 0,0 -62.06,30.3 -98.08,11.5 -36.03,-18.8 -139.38,-125 -147.79,-167.6 -8.4,-42.5 33.58,-100.9 33.58,-100.9 0,0 85.4,3.4 99.15,47.3 13.74,43.9 113.14,209.7 113.14,209.7"
         style="fill:#3a70c0;fill-opacity:1;fill-rule:nonzero;stroke:none"
         id="path1811" />
      <path
         d="m 8409.31,11377.8 c 0,0 16.91,-353.4 49.12,-428.1 32.21,-74.7 95.46,-208 95.46,-208 0,0 386.43,245.7 436.3,309.4 49.87,63.6 -343.49,316.2 -372.46,346.8 -28.97,30.7 -208.42,-20.1 -208.42,-20.1"
         style="fill:#df9866;fill-opacity:1;fill-rule:nonzero;stroke:none"
         id="path1813" />
      <path
         d="m 9283.41,12085 c 18.09,2.8 118.4,73.5 118.4,73.5 0,0 180.5,225.3 -257.16,427.3 -437.64,202 -804.86,183.3 -1062.35,38.9 -257.51,-144.5 -362.13,-716.9 -300.72,-943.2 61.41,-226.3 171.03,-273.7 171.03,-273.7 l 400.14,131.7 c 0,0 459.95,-137.6 487.28,-106.3 27.34,31.3 197.77,274.2 216.4,314 18.64,39.8 226.98,337.8 226.98,337.8"
         style="fill:#523d38;fill-opacity:1;fill-rule:nonzero;stroke:none"
         id="path1815" />
      <path
         d="m 8352.94,11539.4 h -0.01 0.01 m -0.06,0 c -0.04,0 -0.07,0.1 -0.09,0.1 0.02,0 0.05,-0.1 0.09,-0.1 m -0.1,0.1 c 0,0 -0.01,0 -0.01,0 0,0 0.01,0 0.01,0 m -0.02,0 v 0 0 m -0.01,0 c 0,0 0,0 0,0 0,0 0,0 0,0"
         style="fill:#8b6b55;fill-opacity:1;fill-rule:nonzero;stroke:none"
         id="path1817" />
      <path
         d="m 7781.39,11682.2 c -6.27,23.2 -11.13,49.2 -14.46,77.6 0.25,1.2 0.51,2.5 0.76,3.7 2.78,-30.3 7.34,-57.7 13.7,-81.3"
         style="fill:#8d8681;fill-opacity:1;fill-rule:nonzero;stroke:none"
         id="path1819" />
      <path
         d="m 7766.93,11759.8 c -17.25,146.4 6.31,353.8 87.06,552.9 -70.54,-183.4 -99.89,-400.8 -86.3,-549.2 -0.25,-1.2 -0.51,-2.5 -0.76,-3.7"
         style="fill:#362622;fill-opacity:1;fill-rule:nonzero;stroke:none"
         id="path1821" />
      <path
         d="m 7952.61,11407.8 c 0,0 -0.07,0 -0.21,0.1 -5.33,2.4 -110.97,53 -170.82,273.6 v 0 0 c -0.06,0.2 -0.12,0.4 -0.19,0.7 -6.36,23.6 -10.92,51 -13.7,81.3 -13.59,148.4 15.76,365.8 86.3,549.2 4.45,10.9 9.06,21.9 13.86,32.8 24.94,-65.2 177.39,-428.6 555.55,-658.7 206.33,-125.6 278.26,-207 330.79,-250.5 -138.25,24.7 -393.25,100.7 -401.25,103.1 h -0.01 c -0.02,0 -0.03,0 -0.05,0 -0.04,0 -0.07,0.1 -0.09,0.1 0,0 0,0 -0.01,0 0,0 -0.01,0 -0.01,0 h -0.01 v 0 h -0.01 c 0,0 0,0 0,0 v 0 0 l -400.14,-131.7"
         style="fill:#42322c;fill-opacity:1;fill-rule:nonzero;stroke:none"
         id="path1823" />
      <path
         d="m 9132.37,12202.8 c 0,0 -147.35,115.9 -324.78,152.2 0,0 160.18,-116.1 176.4,-198.8 16.22,-82.6 -110.49,-88.9 -110.49,-88.9 0,0 -275.47,145.2 -533.12,172.8 0,0 346.09,-219.1 406.32,-391.6 60.24,-172.4 287.15,80.9 283.76,94.9 -3.39,14 101.91,259.4 101.91,259.4"
         style="fill:#372a23;fill-opacity:1;fill-rule:nonzero;stroke:none"
         id="path1825" />
      <path
         d="m 8556.03,11671.4 c 0,0 31.9,204.7 -109.43,193.1 -141.34,-11.5 -148.66,-370.3 -92.98,-428.5 55.69,-58.2 55.69,-58.2 55.69,-58.2 0,0 96.01,-340.7 160.68,-441.9 64.67,-101.2 422.44,-240.1 475.44,-235.7 53,4.3 189.26,424.9 189.26,424.9 0,0 158.8,25.6 167.73,39.9 8.94,14.3 -70.85,272.3 -74.96,299.5 -4.11,27.1 93.29,287.9 104.21,374.7 10.9,86.8 -19.35,298.7 -29.86,319.3 -10.52,20.6 -225.49,47.2 -269.44,44.3 -43.96,-3 -186.14,-17.1 -237.55,-56.4 -51.42,-39.2 -124.43,-277.8 -189.6,-372.8 -65.18,-95 -93.46,-115.9 -149.19,-102.2"
         style="fill:#fbc398;fill-opacity:1;fill-rule:nonzero;stroke:none"
         id="path1827" />
      <path
         d="m 9059.56,12195.1 c 0,0 -64.15,-156.6 -238.81,-178.4 -174.66,-21.8 -39.51,-91.6 -39.51,-91.6 0,0 140.5,23.7 218.76,86.2 78.27,62.4 132.37,191.5 132.37,191.5 l -72.81,-7.7"
         style="fill:#372a23;fill-opacity:1;fill-rule:nonzero;stroke:none"
         id="path1829" />
    </g>
  </g>
</svg>
