<?xml version="1.0" encoding="UTF-8" standalone="no"?>
<!-- Created with Inkscape (http://www.inkscape.org/) -->

<svg
   version="1.1"
   id="svg769"
   width="2666.6667"
   height="2666.6667"
   viewBox="0 0 2666.6667 2666.6667"
   sodipodi:docname="strict_press.svg"
   inkscape:version="1.2.2 (b0a8486541, 2022-12-01)"
   xmlns:inkscape="http://www.inkscape.org/namespaces/inkscape"
   xmlns:sodipodi="http://sodipodi.sourceforge.net/DTD/sodipodi-0.dtd"
   xmlns="http://www.w3.org/2000/svg"
   xmlns:svg="http://www.w3.org/2000/svg">
  <defs
     id="defs773">
    <clipPath
       clipPathUnits="userSpaceOnUse"
       id="clipPath915">
      <path
         d="m 14433.4,10879.9 c -14.7,0 -23.4,4 -23.4,4 86.3,48.3 141.5,148.4 141.5,148.4 0,0 10.4,-77.6 -44.8,-122.5 -30,-24.3 -55.8,-29.9 -73.3,-29.9"
         id="path913" />
    </clipPath>
  </defs>
  <sodipodi:namedview
     id="namedview771"
     pagecolor="#ffffff"
     bordercolor="#000000"
     borderopacity="0.25"
     inkscape:showpageshadow="2"
     inkscape:pageopacity="0.0"
     inkscape:pagecheckerboard="0"
     inkscape:deskcolor="#d1d1d1"
     showgrid="false"
     inkscape:zoom="0.31574998"
     inkscape:cx="1333.3334"
     inkscape:cy="1334.9169"
     inkscape:window-width="1854"
     inkscape:window-height="1011"
     inkscape:window-x="66"
     inkscape:window-y="32"
     inkscape:window-maximized="1"
     inkscape:current-layer="g777">
    <inkscape:page
       x="0"
       y="0"
       id="page775"
       width="2666.6667"
       height="2666.6667" />
  </sodipodi:namedview>
  <g
     id="g777"
     inkscape:groupmode="layer"
     inkscape:label="Page 1"
     transform="matrix(1.3333333,0,0,-1.3333333,0,2666.6667)">
    <g
       id="g779"
       transform="scale(0.1)">
      <path
         d="m 6500.05,7416.7 c -9.29,121.3 -43.64,396.4 27.6,644.2 29.9,104 43.95,179.6 50.21,232.3 h -769.59 c 18.51,-94.9 44.01,-237.5 53.44,-346.9 15.48,-179.6 173.45,-591.6 176.55,-635 3.1,-43.3 -24.78,-198.2 -46.46,-408.8 -21.68,-210.6 37.16,-402.7 80.53,-539 43.36,-136.2 96.02,-492.4 102.22,-582.3 6.19,-89.8 9.29,-263.2 9.29,-263.2 0,0 40.26,-196.6 92.92,-201.4 52.65,-4.7 219.91,153.2 219.91,153.2 0,0 -9.29,317.6 0,463.2 9.3,145.6 102.63,627.4 93.34,884.5 -9.29,257.1 -80.66,477.8 -89.96,599.2"
         style="fill:#fbc398;fill-opacity:1;fill-rule:nonzero;stroke:none"
         id="path783" />
      <path
         d="m 6500.05,5968.3 c -1.52,-12.9 -2.71,-24.8 -3.38,-35.3 -9.29,-145.6 0,-463.2 0,-463.2 0,0 -167.26,-157.9 -219.91,-153.2 -52.66,4.8 -108.6,138.7 -108.6,138.7 0,0 3.72,198.9 -2.48,288.8 -2.29,33.1 -2.06,139.8 -14.21,221.1 136.59,-1.3 265.12,1 348.58,3.1"
         style="fill:#f7f7f7;fill-opacity:1;fill-rule:nonzero;stroke:none"
         id="path785" />
      <path
         d="m 6462.3,5663.4 c 0,0 26,-22.6 42.97,-59.4 9.77,-21.1 16.17,-122.9 16.17,-122.9 0,0 67.91,-261.9 106.71,-336.3 38.81,-74.3 77.61,-294.2 45.27,-329.8 -32.33,-35.6 -475.35,-32.3 -504.45,0 -29.1,32.3 -3.23,329.8 0,349.2 3.23,19.4 -3.23,276.5 -0.81,291.1 2.43,14.5 24.25,33.9 24.25,33.9 0,0 0,131 33.96,165 33.95,33.9 235.93,9.2 235.93,9.2"
         style="fill:#3970c0;fill-opacity:1;fill-rule:nonzero;stroke:none"
         id="path787" />
      <path
         d="m 6223.94,4880.5 c 68.37,-19.4 366.22,-21.8 412.3,0 14.93,7.1 31.36,22.6 46.79,40.3 4.75,-50.2 2.97,-92 -9.61,-105.8 -32.33,-35.6 -475.35,-32.3 -504.45,0 -10.64,11.8 -13.92,59.1 -13.65,115.3 20.87,-23 44.66,-43 68.62,-49.8"
         style="fill:#2d609f;fill-opacity:1;fill-rule:nonzero;stroke:none"
         id="path789" />
      <path
         d="m 5403.68,7946.3 c 9.44,109.4 34.93,252 53.44,346.9 h -769.59 c 6.26,-52.7 20.31,-128.3 50.21,-232.3 71.24,-247.8 36.89,-522.9 27.6,-644.2 -9.3,-121.4 -80.67,-342.1 -89.96,-599.2 -9.29,-257.1 84.05,-738.9 93.34,-884.5 9.29,-145.6 0,-463.2 0,-463.2 0,0 167.26,-157.9 219.91,-153.2 52.66,4.8 92.93,201.4 92.93,201.4 0,0 3.09,173.4 9.29,263.2 6.19,89.9 58.85,446.1 102.21,582.3 43.37,136.3 102.21,328.4 80.53,539 -21.68,210.6 -49.56,365.5 -46.46,408.8 3.1,43.4 161.07,455.4 176.55,635"
         style="fill:#fbc398;fill-opacity:1;fill-rule:nonzero;stroke:none"
         id="path791" />
      <path
         d="m 4765.34,5968.3 c 1.53,-12.9 2.71,-24.8 3.38,-35.3 9.29,-145.6 0,-463.2 0,-463.2 0,0 167.26,-157.9 219.91,-153.2 52.66,4.8 108.6,138.7 108.6,138.7 0,0 -3.71,198.9 2.48,288.8 2.29,33.1 2.06,139.8 14.21,221.1 -136.59,-1.3 -265.12,1 -348.58,3.1"
         style="fill:#f7f7f7;fill-opacity:1;fill-rule:nonzero;stroke:none"
         id="path793" />
      <path
         d="m 4803.09,5663.4 c 0,0 -26,-22.6 -42.97,-59.4 -9.77,-21.1 -16.17,-122.9 -16.17,-122.9 0,0 -67.91,-261.9 -106.71,-336.3 -38.81,-74.3 -77.61,-294.2 -45.27,-329.8 32.33,-35.6 475.35,-32.3 504.45,0 29.11,32.3 3.23,329.8 0,349.2 -3.23,19.4 3.23,276.5 0.81,291.1 -2.43,14.5 -24.25,33.9 -24.25,33.9 0,0 0,131 -33.96,165 -33.95,33.9 -235.93,9.2 -235.93,9.2"
         style="fill:#3970c0;fill-opacity:1;fill-rule:nonzero;stroke:none"
         id="path795" />
      <path
         d="m 5041.45,4880.5 c -68.37,-19.4 -366.22,-21.8 -412.29,0 -14.94,7.1 -31.37,22.6 -46.8,40.3 -4.75,-50.2 -2.97,-92 9.61,-105.8 32.33,-35.6 475.35,-32.3 504.45,0 10.64,11.8 13.92,59.1 13.65,115.3 -20.87,-23 -44.65,-43 -68.62,-49.8"
         style="fill:#2d609f;fill-opacity:1;fill-rule:nonzero;stroke:none"
         id="path797" />
      <path
         d="m 4897.54,9633.2 c 0,0 -119.08,-223.1 -156.89,-302.2 -37.81,-79.1 -51.56,-646.3 -89.38,-773.5 -37.81,-127.1 -88.17,-993.3 -77.86,-996.7 10.31,-3.4 53.8,-24.2 297.86,-51.7 244.07,-27.5 649.69,-27.5 663.44,0 13.75,27.5 27.5,450.3 34.38,470.9 6.87,20.7 27.5,168.5 34.37,144.4 6.88,-24 161.56,-622.2 161.56,-622.2 0,0 257.82,-24 481.26,0 223.44,24.1 419.37,110 419.37,110 0,0 -53.73,406.2 -60.61,585 -6.87,178.7 -121.57,838.2 -180.01,1082.2 -58.44,244.1 -110,340.3 -110,340.3 l -849.07,168.5 -568.42,-155"
         style="fill:#1a1918;fill-opacity:1;fill-rule:nonzero;stroke:none"
         id="path799" />
      <path
         d="m 5067.21,9592.2 -204.03,-23.6 c 0,0 293.41,-107 681.84,-107 388.44,0 770.01,158.1 770.01,158.1 0,0 -220,144.4 -316.26,144.4 -96.25,0 -931.56,-171.9 -931.56,-171.9"
         style="fill:#12110f;fill-opacity:1;fill-rule:nonzero;stroke:none"
         id="path801" />
      <path
         d="m 5754.72,8112.4 c 5.15,30.9 216.55,144.4 216.55,144.4 0,0 0,0 -92.8,-20.7 -92.82,-20.6 -242.35,0 -242.35,0 l -32.66,-111.7 c 6.88,-24 161.57,-622.2 161.57,-622.2 0,0 44.82,-4.1 113.18,-7.3 -43.83,202.9 -127.31,594.6 -123.49,617.5"
         style="fill:#12110f;fill-opacity:1;fill-rule:nonzero;stroke:none"
         id="path803" />
      <path
         d="m 5951.09,11835.3 c 0,18.3 47.45,91.3 47.45,91.3 0,0 266.4,18.2 445.22,-91.3 178.83,-109.4 244.52,-406.9 262.77,-526.4 l 142.32,-126.8 c 0,0 25.55,204.4 14.6,448.9 l 248.17,7.3 c 0,0 40.14,-287.3 58.38,-512.3 18.25,-224.9 -7.3,-484 -51.09,-622.7 -43.79,-138.7 -138.68,-237.2 -197.07,-240.9 -58.39,-3.6 -171.52,113.2 -281,171.5 -109.49,58.4 -361.3,470.8 -361.3,470.8 l -328.45,930.6"
         style="fill:#fbc398;fill-opacity:1;fill-rule:nonzero;stroke:none"
         id="path805" />
      <path
         d="m 5147.27,11835.3 c 0,18.3 -47.45,91.3 -47.45,91.3 0,0 -266.41,18.2 -445.23,-91.3 -178.82,-109.4 -244.51,-406.9 -262.76,-526.4 l -142.33,-126.8 c 0,0 -25.55,204.4 -14.6,448.9 l -248.16,7.3 c 0,0 -40.14,-287.3 -58.39,-512.3 -18.25,-224.9 7.3,-484 51.09,-622.7 43.8,-138.7 138.68,-237.2 197.07,-240.9 58.39,-3.6 171.53,113.2 281.01,171.5 109.48,58.4 367.72,529.3 367.72,529.3 l 322.03,872.1"
         style="fill:#fbc398;fill-opacity:1;fill-rule:nonzero;stroke:none"
         id="path807" />
      <path
         d="m 6295.18,11190.6 c 0,0 93.84,59 166.83,118.3 72.99,59.3 72.99,59.3 72.99,59.3 0,0 -113.13,-242.4 -189.77,-301.8 -76.64,-59.5 -50.05,124.2 -50.05,124.2"
         style="fill:#dc9e75;fill-opacity:1;fill-rule:nonzero;stroke:none"
         id="path809" />
      <path
         d="m 4849.87,11097.9 c 0,0 46.6,-31.2 -26.39,28.1 -72.99,59.3 -260.13,242.2 -260.13,242.2 0,0 113.13,-242.4 189.78,-301.8 76.63,-59.5 96.74,31.5 96.74,31.5"
         style="fill:#dc9e75;fill-opacity:1;fill-rule:nonzero;stroke:none"
         id="path811" />
      <path
         d="m 5123.82,11941.6 -110.64,-22.3 c 0,0 -29.19,-302.9 -91.23,-503.6 -62.04,-200.8 -171.53,-383.6 -182.47,-409 -10.96,-25.3 21.89,-376.8 40.14,-478.4 18.25,-101.7 43.79,-251.3 58.39,-408.2 14.6,-156.9 25.18,-551.5 25.18,-551.5 0,0 528.19,-65.3 877.39,-21.5 349.19,43.8 572.53,80.2 572.53,80.2 0,0 28.47,262.9 32.12,500.1 3.65,237.2 0,939 0,939 l -346.69,860.2 -97.97,18.8 -358.5,-99.1 -418.25,95.3"
         style="fill:#3970c0;fill-opacity:1;fill-rule:nonzero;stroke:none"
         id="path813" />
      <path
         d="m 5223.81,12126.7 -14.54,-119.1 -85.45,-66 c 0,0 -13.81,-241.3 39.71,-396.6 53.51,-155.4 205.4,-248.6 403.91,-234.8 198.5,13.8 293.43,157.1 321.05,303.8 27.62,146.8 12.08,331.4 12.08,331.4 l -79.4,32.8 c 0,0 -24.18,109.5 -39.71,200.6 -15.52,91.1 -289.98,129.1 -329.67,115.3 -39.71,-13.8 -227.98,-167.4 -227.98,-167.4"
         style="fill:#fbc398;fill-opacity:1;fill-rule:nonzero;stroke:none"
         id="path815" />
      <path
         d="m 5470.05,10879.9 c -14.74,0 -23.44,4 -23.44,4 86.3,48.3 141.54,148.4 141.54,148.4 0,0 10.35,-77.6 -44.88,-122.5 -29.92,-24.3 -55.79,-29.9 -73.22,-29.9"
         style="fill:#3268b0;fill-opacity:1;fill-rule:nonzero;stroke:none"
         id="path817" />
      <path
         d="m 5745.23,10877.6 c -51.1,0 -142.32,16.1 -126.01,134 0,0 34.52,-50 67.31,-81.1 32.8,-31.1 91.49,-50.6 91.49,-50.6 0,0 -13.56,-2.3 -32.79,-2.3"
         style="fill:#3268b0;fill-opacity:1;fill-rule:nonzero;stroke:none"
         id="path819" />
      <path
         d="m 5223.81,12126.7 h 563.73 c -9.26,67.3 -17.87,190.5 -17.87,190.5 l -546.43,26.3 c 0,0 4.05,-166.3 0.57,-216.8"
         style="fill:#fbc398;fill-opacity:1;fill-rule:nonzero;stroke:none"
         id="path821" />
      <path
         d="m 6848.85,11182.1 -61.77,55 c 0,0 0,0 0,0 l 61.77,-55"
         style="fill:#f1d4c2;fill-opacity:1;fill-rule:nonzero;stroke:none"
         id="path823" />
      <path
         d="m 6706.53,10623.3 c 0,0 -40.15,219.2 18.25,389 58.37,169.7 62.29,224.8 62.3,224.8 l 61.77,-55 c 0,0 -10.95,-99.6 -69.34,-206.7 -58.39,-107.2 -72.98,-352.1 -72.98,-352.1"
         style="fill:#edb187;fill-opacity:1;fill-rule:nonzero;stroke:none"
         id="path825" />
      <path
         d="m 4249.5,11182.1 61.78,55 v 0 l -61.78,-55"
         style="fill:#f1d4c2;fill-opacity:1;fill-rule:nonzero;stroke:none"
         id="path827" />
      <path
         d="m 4391.83,10623.3 c 0,0 -14.6,244.9 -72.99,352.1 -58.39,107.1 -69.34,206.7 -69.34,206.7 v 0 l 61.78,55 c 0.04,-0.5 4.2,-55.9 62.3,-224.8 58.39,-169.8 18.25,-389 18.25,-389"
         style="fill:#edb187;fill-opacity:1;fill-rule:nonzero;stroke:none"
         id="path829" />
      <path
         d="M 9671.86,11963 H 1166.75 c -25.1,0 -45.44,-20.4 -45.44,-45.5 v -39.8 c 0,-25.1 20.34,-45.4 45.44,-45.4 h 8505.11 c 25.11,0 45.46,20.3 45.46,45.4 v 39.8 c 0,25.1 -20.35,45.5 -45.46,45.5"
         style="fill:#8d8d8d;fill-opacity:1;fill-rule:nonzero;stroke:none"
         id="path831" />
      <path
         d="m 4753.13,11066.4 c 0,0 126.85,-96.5 219.91,-121.8 0,0 -123.47,120.5 -171.16,181.4 l -48.75,-59.6"
         style="fill:#2e63a1;fill-opacity:1;fill-rule:nonzero;stroke:none"
         id="path833" />
      <path
         d="m 6321.19,11126 c 0,0 -53.51,-78.2 -94.56,-113.7 -41.06,-35.5 -95.8,-87.8 -95.8,-87.8 0,0 152.87,37 216.03,100.8 l -1.63,41.1 -24.04,59.6"
         style="fill:#2e63a1;fill-opacity:1;fill-rule:nonzero;stroke:none"
         id="path835" />
      <path
         d="m 2250.7,11729.5 h -58.68 c -12.02,0 -21.75,9.7 -21.75,21.8 v 269.6 c 0,12 9.73,21.8 21.75,21.8 h 58.68 c 12.01,0 21.75,-9.8 21.75,-21.8 v -269.6 c 0,-12.1 -9.74,-21.8 -21.75,-21.8"
         style="fill:#5e6061;fill-opacity:1;fill-rule:nonzero;stroke:none"
         id="path837" />
      <path
         d="m 2433.47,11120.9 h -165.11 c -19.91,0 -36.05,16.1 -36.05,36 v 1492.7 c 0,19.9 16.14,36.1 36.05,36.1 h 165.11 c 19.91,0 36.05,-16.2 36.05,-36.1 v -1492.7 c 0,-19.9 -16.14,-36 -36.05,-36"
         style="fill:#343434;fill-opacity:1;fill-rule:nonzero;stroke:none"
         id="path839" />
      <path
         d="m 8616.87,11729.5 h 58.67 c 12.02,0 21.76,9.7 21.76,21.8 v 269.6 c 0,12 -9.74,21.8 -21.76,21.8 h -58.67 c -12.02,0 -21.76,-9.8 -21.76,-21.8 v -269.6 c 0,-12.1 9.74,-21.8 21.76,-21.8"
         style="fill:#5e6061;fill-opacity:1;fill-rule:nonzero;stroke:none"
         id="path841" />
      <path
         d="m 8434.1,11120.9 h 165.1 c 19.92,0 36.06,16.1 36.06,36 v 1492.7 c 0,19.9 -16.14,36.1 -36.06,36.1 h -165.1 c -19.92,0 -36.06,-16.2 -36.06,-36.1 v -1492.7 c 0,-19.9 16.14,-36 36.06,-36"
         style="fill:#343434;fill-opacity:1;fill-rule:nonzero;stroke:none"
         id="path843" />
      <path
         d="m 6686.45,12017.8 c 0,0 51.1,31 91.24,16.4 0,0 23.72,31.1 58.39,31.1 34.67,0 52.92,-21.9 52.92,-21.9 0,0 47.44,36.5 83.93,-1.9 0,0 65.7,9.2 76.65,-23.7 10.94,-32.8 0,-124.1 -27.38,-133.2 -27.37,-9.1 -47.44,0 -47.44,0 0,0 -36.49,-40.1 -72.99,-16.4 0,0 -31.02,21.9 -63.87,7.3 -32.84,-14.6 -113.12,-18.3 -133.2,3.6 -20.07,21.9 -45.62,48.6 -45.62,48.6 l 27.37,90.1"
         style="fill:#fbc398;fill-opacity:1;fill-rule:nonzero;stroke:none"
         id="path845" />
      <path
         d="m 6997.67,11880.7 c -13.99,0 -22.91,3.9 -22.91,3.9 v 0 c 0,0 0.46,104.9 -1.83,156.9 v 0 c 0,0 0,0 0.01,0 0.28,0.1 8.55,1.2 19.62,1.2 10.49,0 23.5,-1 34.59,-4.9 l -20.71,-156.6 c -3.1,-0.4 -6.03,-0.5 -8.77,-0.5"
         style="fill:#eaae83;fill-opacity:1;fill-rule:nonzero;stroke:none"
         id="path847" />
      <path
         d="m 6777.24,12034.4 c -0.02,0 -0.05,0 -0.07,0 0.02,0 0.04,0 0.07,0"
         style="fill:#edcbb5;fill-opacity:1;fill-rule:nonzero;stroke:none"
         id="path849" />
      <path
         d="m 6802.24,11866.3 c -4.53,22.5 -10.45,52.1 -15.88,79.1 -5.09,25.4 -15.3,61.5 -24.58,92.4 5.22,-0.6 10.38,-1.6 15.39,-3.4 0.02,0 0.05,0 0.07,0 0.15,0 0.3,-0.1 0.45,-0.2 0,0 8.46,10.9 22.42,19.7 11.16,-47.3 25.1,-129.5 32.23,-180.6 -8.36,-3 -18.77,-5.4 -30.1,-7"
         style="fill:#eaae83;fill-opacity:1;fill-rule:nonzero;stroke:none"
         id="path851" />
      <path
         d="m 6906.6,11865.4 c -0.02,0 -0.05,0 -0.08,0 0.03,0 0.05,0 0.08,0 m -0.26,0.1 c -0.07,0.1 -0.15,0.1 -0.22,0.2 0.07,-0.1 0.15,-0.1 0.22,-0.2 m -0.32,0.2 c -1.42,0.7 -2.84,1.6 -4.25,2.5 0,0 -5.65,3.8 -14.4,7.2 0,0 0,0.1 0,0.1 8.87,-3.4 14.4,-7.3 14.4,-7.3 1.42,-0.9 2.84,-1.8 4.25,-2.5"
         style="fill:#b7967f;fill-opacity:1;fill-rule:nonzero;stroke:none"
         id="path853" />
      <path
         d="m 6921.91,11860.9 c -5,0.5 -10.14,1.9 -15.31,4.5 -0.03,0 -0.05,0 -0.08,0 -0.06,0.1 -0.12,0.1 -0.18,0.1 -0.07,0.1 -0.15,0.1 -0.22,0.2 -0.04,0 -0.07,0 -0.1,0 -1.41,0.7 -2.83,1.6 -4.25,2.5 0,0 -5.53,3.9 -14.4,7.3 -2.35,86.8 -24.13,169.6 -28.81,186.4 20.01,-6.1 30.44,-18.5 30.44,-18.5 0,0 4.58,3.5 11.98,7.2 6.29,-32.4 12.8,-68.9 16.76,-99.4 3.69,-28.5 4.52,-61 4.17,-90.3"
         style="fill:#eaae83;fill-opacity:1;fill-rule:nonzero;stroke:none"
         id="path855" />
      <path
         d="m 6863.45,11631 c 0,0 -45.62,49.2 -136.85,89.4 -91.24,40.1 -135.03,113.1 -144.15,140.5 -9.13,27.4 -7.3,104 0,113.1 7.3,9.1 69.33,83.9 107.65,82.1 38.32,-1.8 0,-76.6 -1.82,-91.2 -1.82,-14.6 5.47,-37.2 5.47,-37.2 0,0 93.07,-28.5 144.16,-52.2 51.09,-23.7 72.98,-40.2 72.98,-40.2 l 228.09,-1.8 c 0,0 -9.12,-151.4 -27.36,-195.2 -18.25,-43.8 -102.19,-94.9 -124.09,-87.6 -21.9,7.3 -124.08,80.3 -124.08,80.3"
         style="fill:#fbc398;fill-opacity:1;fill-rule:nonzero;stroke:none"
         id="path857" />
      <path
         d="m 4411.9,12017.8 c 0,0 -51.09,31 -91.24,16.4 0,0 -23.72,31.1 -58.38,31.1 -34.68,0 -52.93,-21.9 -52.93,-21.9 0,0 -47.44,36.5 -83.93,-1.9 0,0 -65.69,9.2 -76.64,-23.7 -10.95,-32.8 0,-124.1 27.37,-133.2 27.38,-9.1 47.44,0 47.44,0 0,0 36.5,-40.1 72.99,-16.4 0,0 31.02,21.9 63.87,7.3 32.85,-14.6 113.13,-18.3 133.2,3.6 20.08,21.9 45.62,48.6 45.62,48.6 l -27.37,90.1"
         style="fill:#fbc398;fill-opacity:1;fill-rule:nonzero;stroke:none"
         id="path859" />
      <path
         d="m 4100.69,11880.7 c -2.74,0 -5.67,0.1 -8.77,0.5 l -20.71,156.6 c 11.08,3.9 24.09,4.9 34.59,4.9 11.07,0 19.34,-1.1 19.61,-1.2 0.01,0 0.01,0 0.01,0 v 0 c -2.28,-52 -1.83,-156.9 -1.83,-156.9 v 0 c 0,0 -8.92,-3.9 -22.9,-3.9"
         style="fill:#eaae83;fill-opacity:1;fill-rule:nonzero;stroke:none"
         id="path861" />
      <path
         d="m 4321.12,12034.4 c 0.02,0 0.05,0 0.07,0 -0.03,0 -0.05,0 -0.07,0"
         style="fill:#edcbb5;fill-opacity:1;fill-rule:nonzero;stroke:none"
         id="path863" />
      <path
         d="m 4296.12,11866.3 c -11.33,1.6 -21.74,4 -30.1,7 7.13,51.1 21.06,133.3 32.22,180.6 13.97,-8.8 22.42,-19.7 22.42,-19.7 0.16,0.1 0.31,0.2 0.46,0.2 0.02,0 0.04,0 0.07,0 5,1.8 10.17,2.8 15.39,3.4 -9.29,-30.9 -19.5,-67 -24.58,-92.4 -5.43,-27 -11.36,-56.6 -15.88,-79.1"
         style="fill:#eaae83;fill-opacity:1;fill-rule:nonzero;stroke:none"
         id="path865" />
      <path
         d="m 4190.08,11864.6 c 0.07,0 0.15,0.1 0.22,0.1 -0.07,0 -0.15,-0.1 -0.22,-0.1 m 0.32,0.2 c 2.06,0.9 4.12,2.1 6.18,3.4 0,0 5.54,3.9 14.41,7.3 0,0 0,-0.1 0,-0.1 -8.76,-3.4 -14.4,-7.2 -14.4,-7.2 -2.07,-1.4 -4.13,-2.5 -6.19,-3.4"
         style="fill:#b7967f;fill-opacity:1;fill-rule:nonzero;stroke:none"
         id="path867" />
      <path
         d="m 4176.44,11860.9 c -0.35,29.3 0.49,61.8 4.18,90.3 3.95,30.5 10.46,67 16.75,99.4 7.27,-3.7 11.82,-7.1 11.98,-7.2 v 0 0 c 0,0 10.43,12.4 30.44,18.5 -4.67,-16.8 -26.46,-99.6 -28.8,-186.4 -8.87,-3.4 -14.41,-7.3 -14.41,-7.3 -2.06,-1.3 -4.12,-2.5 -6.18,-3.4 -0.03,-0.1 -0.07,-0.1 -0.1,-0.1 -0.07,0 -0.15,-0.1 -0.22,-0.1 -4.6,-2.1 -9.17,-3.2 -13.64,-3.7"
         style="fill:#eaae83;fill-opacity:1;fill-rule:nonzero;stroke:none"
         id="path869" />
      <path
         d="m 4234.9,11631 c 0,0 45.62,49.2 136.86,89.4 91.23,40.1 135.03,113.1 144.15,140.5 9.12,27.4 7.3,104 0,113.1 -7.3,9.1 -69.34,83.9 -107.66,82.1 -38.32,-1.8 0,-76.6 1.83,-91.2 1.82,-14.6 -5.48,-37.2 -5.48,-37.2 0,0 -93.06,-28.5 -144.15,-52.2 -51.09,-23.7 -72.99,-40.2 -72.99,-40.2 l -228.09,-1.8 c 0,0 9.13,-151.4 27.37,-195.2 18.25,-43.8 102.19,-94.9 124.08,-87.6 21.9,7.3 124.08,80.3 124.08,80.3"
         style="fill:#fbc398;fill-opacity:1;fill-rule:nonzero;stroke:none"
         id="path871" />
      <path
         d="m 5270.22,12254.6 -42.15,35.3 c 0,0 108.82,-188.5 150.66,-219.4 41.83,-30.9 162.69,-24.3 210.57,-12.1 47.88,12.2 120.25,147.5 159.49,215 39.25,67.4 -478.57,-18.8 -478.57,-18.8"
         style="fill:#dc9e75;fill-opacity:1;fill-rule:nonzero;stroke:none"
         id="path873" />
      <path
         d="m 5135.27,12683.9 c 8.59,16 -29.82,58.7 -39.1,103.1 -9.29,44.4 2.65,221.7 1.16,242.3 -1.48,20.6 34.52,83.8 41.31,102.8 6.79,19 49.93,94.8 76.95,115.3 27.03,20.4 106.28,32.7 139.6,43.6 33.31,10.9 96.79,37.6 155.37,30.9 58.57,-6.6 52.16,-20.8 93.33,-24.2 41.16,-3.3 104.35,-38.5 126.42,-60.8 22.07,-22.2 99.43,-74.9 124.61,-108.3 25.18,-33.3 35.18,-188.6 29.53,-247.2 -5.66,-58.6 -28.25,-145.6 -28.25,-145.6 l -12.87,-39 c 0,0 4.38,-79.7 -0.39,-81.3 -4.76,-1.5 74.26,-38.4 -112.66,-42.2 -186.92,-3.9 -402.3,1.9 -402.3,1.9 0,0 -140.99,-5.6 -172.51,27.8 -31.52,33.4 -20.2,80.9 -20.2,80.9"
         style="fill:#252323;fill-opacity:1;fill-rule:nonzero;stroke:none"
         id="path875" />
      <path
         d="m 5143.86,12699.9 c 0,0 -11.67,3 -32.28,-1.7 -20.62,-4.6 -3.73,-115.6 10.39,-144.1 14.12,-28.6 34.49,-74.7 37.58,-90.5 3.09,-15.9 33.11,-31.9 33.11,-31.9 0,0 7.51,-85.5 20.02,-118.8 12.51,-33.4 97.63,-117.7 136.95,-174.9 39.33,-57.2 140.58,-81.5 211.97,-58.1 71.39,23.4 114.53,102.4 128.87,119.8 14.34,17.3 78.08,97.8 89.32,127.9 11.23,30 17.97,115.5 17.97,115.5 0,0 26.96,6.2 39.77,36.2 12.82,30.1 24.14,77.5 32.13,91.7 7.98,14.3 21.08,101.3 8.48,117.2 -12.59,15.9 -34.81,8.6 -34.81,8.6 0,0 -6.45,-24.2 -9.64,-29 -3.19,-4.7 -22.23,-10.9 -22.23,-10.9 l -2.79,77.6 c 0,0 -17.34,17.5 -25.16,38.1 -7.82,20.6 -9.11,82.4 -9.03,98.3 0.08,15.8 1.77,39.5 -9.13,77.6 -10.9,38.1 -56.69,68.4 -80.42,73.3 -23.74,4.8 -142.51,10.1 -161.51,11.8 -19,1.7 -28.54,-6.2 -79.25,-12.3 -50.72,-6.1 -207.57,-16.4 -225.04,-25.8 -17.47,-9.4 -33.57,-64.8 -36.84,-83.8 -3.25,-19 8.98,-109.3 7.31,-126.7 -1.66,-17.4 -14.42,-36.4 -12.9,-49.1 1.52,-12.6 1.14,-91.8 1.14,-91.8 l -14.28,-4.7 -19.7,60.5"
         style="fill:#fbc398;fill-opacity:1;fill-rule:nonzero;stroke:none"
         id="path877" />
      <path
         d="m 15456.3,7416.7 c -9.3,121.3 -43.6,396.4 27.6,644.2 29.9,104 43.9,179.6 50.2,232.3 h -769.6 c 18.5,-94.9 44,-237.5 53.4,-346.9 15.5,-179.6 173.5,-591.6 176.6,-635 3.1,-43.3 -24.8,-198.2 -46.5,-408.8 -21.6,-210.6 37.2,-402.7 80.6,-539 43.3,-136.2 96,-492.4 102.2,-582.3 6.2,-89.8 9.3,-263.2 9.3,-263.2 0,0 40.2,-196.6 92.9,-201.4 52.7,-4.7 219.9,153.2 219.9,153.2 0,0 -9.3,317.6 0,463.2 9.3,145.6 102.6,627.4 93.4,884.5 -9.3,257.1 -80.7,477.8 -90,599.2"
         style="fill:#fbc398;fill-opacity:1;fill-rule:nonzero;stroke:none"
         id="path879" />
      <path
         d="m 15456.3,5968.3 c -1.5,-12.9 -2.7,-24.8 -3.4,-35.3 -9.3,-145.6 0,-463.2 0,-463.2 0,0 -167.2,-157.9 -219.9,-153.2 -52.7,4.8 -108.6,138.7 -108.6,138.7 0,0 3.7,198.9 -2.5,288.8 -2.3,33.1 -2,139.8 -14.2,221.1 136.6,-1.3 265.1,1 348.6,3.1"
         style="fill:#f7f7f7;fill-opacity:1;fill-rule:nonzero;stroke:none"
         id="path881" />
      <path
         d="m 15418.5,5663.4 c 0,0 26,-22.6 43,-59.4 9.8,-21.1 16.2,-122.9 16.2,-122.9 0,0 67.9,-261.9 106.7,-336.3 38.8,-74.3 77.6,-294.2 45.3,-329.8 -32.4,-35.6 -475.4,-32.3 -504.5,0 -29.1,32.3 -3.2,329.8 0,349.2 3.2,19.4 -3.2,276.5 -0.8,291.1 2.4,14.5 24.3,33.9 24.3,33.9 0,0 0,131 33.9,165 34,33.9 235.9,9.2 235.9,9.2"
         style="fill:#3970c0;fill-opacity:1;fill-rule:nonzero;stroke:none"
         id="path883" />
      <path
         d="m 15180.2,4880.5 c 68.4,-19.4 366.2,-21.8 412.3,0 14.9,7.1 31.3,22.6 46.8,40.3 4.7,-50.2 2.9,-92 -9.6,-105.8 -32.4,-35.6 -475.4,-32.3 -504.5,0 -10.6,11.8 -13.9,59.1 -13.6,115.3 20.8,-23 44.6,-43 68.6,-49.8"
         style="fill:#2d609f;fill-opacity:1;fill-rule:nonzero;stroke:none"
         id="path885" />
      <path
         d="m 14359.9,7946.3 c 9.5,109.4 35,252 53.5,346.9 h -769.6 c 6.2,-52.7 20.3,-128.3 50.2,-232.3 71.2,-247.8 36.9,-522.9 27.6,-644.2 -9.3,-121.4 -80.7,-342.1 -90,-599.2 -9.3,-257.1 84.1,-738.9 93.4,-884.5 9.3,-145.6 0,-463.2 0,-463.2 0,0 167.2,-157.9 219.9,-153.2 52.6,4.8 92.9,201.4 92.9,201.4 0,0 3.1,173.4 9.3,263.2 6.2,89.9 58.8,446.1 102.2,582.3 43.4,136.3 102.2,328.4 80.5,539 -21.6,210.6 -49.5,365.5 -46.4,408.8 3.1,43.4 161,455.4 176.5,635"
         style="fill:#fbc398;fill-opacity:1;fill-rule:nonzero;stroke:none"
         id="path887" />
      <path
         d="m 13721.6,5968.3 c 1.5,-12.9 2.7,-24.8 3.4,-35.3 9.3,-145.6 0,-463.2 0,-463.2 0,0 167.2,-157.9 219.9,-153.2 52.6,4.8 108.6,138.7 108.6,138.7 0,0 -3.7,198.9 2.5,288.8 2.2,33.1 2,139.8 14.2,221.1 -136.6,-1.3 -265.2,1 -348.6,3.1"
         style="fill:#f7f7f7;fill-opacity:1;fill-rule:nonzero;stroke:none"
         id="path889" />
      <path
         d="m 13759.3,5663.4 c 0,0 -26,-22.6 -42.9,-59.4 -9.8,-21.1 -16.2,-122.9 -16.2,-122.9 0,0 -67.9,-261.9 -106.7,-336.3 -38.8,-74.3 -77.6,-294.2 -45.3,-329.8 32.3,-35.6 475.4,-32.3 504.5,0 29.1,32.3 3.2,329.8 0,349.2 -3.3,19.4 3.2,276.5 0.8,291.1 -2.5,14.5 -24.3,33.9 -24.3,33.9 0,0 0,131 -33.9,165 -34,33.9 -236,9.2 -236,9.2"
         style="fill:#3970c0;fill-opacity:1;fill-rule:nonzero;stroke:none"
         id="path891" />
      <path
         d="m 13997.7,4880.5 c -68.4,-19.4 -366.2,-21.8 -412.3,0 -14.9,7.1 -31.4,22.6 -46.8,40.3 -4.8,-50.2 -3,-92 9.6,-105.8 32.3,-35.6 475.4,-32.3 504.5,0 10.6,11.8 13.9,59.1 13.6,115.3 -20.9,-23 -44.6,-43 -68.6,-49.8"
         style="fill:#2d609f;fill-opacity:1;fill-rule:nonzero;stroke:none"
         id="path893" />
      <path
         d="m 13833.1,9561.3 c 0,0 -92.8,-151.2 -130.6,-230.3 -37.8,-79.1 -51.6,-646.3 -89.4,-773.5 -37.8,-127.1 -88.2,-993.3 -77.8,-996.7 10.3,-3.4 53.8,-24.2 297.8,-51.7 244.1,-27.5 649.7,-27.5 663.5,0 13.7,27.5 27.5,450.3 34.3,470.9 6.9,20.7 27.5,168.5 34.4,144.4 6.9,-24 161.6,-622.2 161.6,-622.2 0,0 257.8,-24 481.2,0 223.5,24.1 419.4,110 419.4,110 0,0 -53.7,406.2 -60.6,585 -6.9,178.7 -121.6,838.2 -180,1082.2 -58.5,244.1 -110,340.3 -110,340.3 l -849.1,168.5 -594.7,-226.9"
         style="fill:#1a1918;fill-opacity:1;fill-rule:nonzero;stroke:none"
         id="path895" />
      <path
         d="m 14029.1,9592.2 -196,-30.9 c 0,0 285.3,-99.7 673.8,-99.7 388.4,0 770,158.1 770,158.1 0,0 -220,144.4 -316.3,144.4 -96.2,0 -931.5,-171.9 -931.5,-171.9"
         style="fill:#12110f;fill-opacity:1;fill-rule:nonzero;stroke:none"
         id="path897" />
      <path
         d="m 14716.6,8112.4 c 5.1,30.9 216.5,144.4 216.5,144.4 0,0 0,0 -92.8,-20.7 -92.8,-20.6 -242.3,0 -242.3,0 l -32.7,-111.7 c 6.9,-24 161.6,-622.2 161.6,-622.2 0,0 44.8,-4.1 113.1,-7.3 -43.8,202.9 -127.3,594.6 -123.4,617.5"
         style="fill:#12110f;fill-opacity:1;fill-rule:nonzero;stroke:none"
         id="path899" />
      <path
         d="m 14027,9592.2 -195.9,-30.9 c 0,0 285.3,-99.7 673.8,-99.7 388.4,0 770,158.1 770,158.1 0,0 -220,144.4 -316.3,144.4 -96.2,0 -931.6,-171.9 -931.6,-171.9"
         style="fill:#12110f;fill-opacity:1;fill-rule:nonzero;stroke:none"
         id="path901" />
      <path
         d="m 14891.4,11971.3 c 0,0 142.3,145.2 295.7,234.4 0,0 20.1,255 117.5,456.3 97.5,201.4 191,297.4 191.3,322.2 0.3,24.8 -32.7,166.6 -10.4,509 19,291 39.2,732.6 39.2,732.6 l 233.5,-6.4 c 0,0 21.9,-149.4 67.7,-559.2 41,-366.3 12.2,-699.8 12.2,-699.8 0,0 -24.4,-543.1 -70.3,-824.8 -45.8,-281.7 -256.3,-517 -256.3,-517 0,0 -100.1,-312 -147.8,-572.6 -47.7,-260.6 -339.8,181 -342.6,254.3 -2.7,73.3 -129.7,671 -129.7,671"
         style="fill:#fbc398;fill-opacity:1;fill-rule:nonzero;stroke:none"
         id="path903" />
      <path
         d="m 14260.5,11971.3 c 0,0 -142.2,145.2 -295.7,234.4 0,0 -20.1,255 -117.5,456.3 -97.4,201.4 -191,297.4 -191.3,322.2 -0.2,24.8 32.7,166.6 10.4,509 -19,291 -39.2,732.6 -39.2,732.6 l -233.5,-6.4 c 0,0 -21.9,-149.4 -67.7,-559.2 -41,-366.3 -12.2,-699.8 -12.2,-699.8 0,0 24.5,-543.1 70.3,-824.8 45.8,-281.7 256.3,-517 256.3,-517 0,0 14.5,-382.7 62.2,-643.2 47.7,-260.6 425.4,251.6 428.2,324.9 2.7,73.3 129.7,671 129.7,671"
         style="fill:#fbc398;fill-opacity:1;fill-rule:nonzero;stroke:none"
         id="path905" />
      <path
         d="m 14183.8,12043.4 -117,-242.9 c 0,0 -119.4,-184.1 -181.5,-384.8 -62,-200.8 -171.5,-383.6 -182.4,-409 -11,-25.3 44.6,-285.4 62.8,-387.1 18.3,-101.6 21.1,-342.6 35.7,-499.5 14.6,-156.9 25.2,-551.5 25.2,-551.5 0,0 528.2,-65.3 877.4,-21.5 349.2,43.8 572.5,80.2 572.5,80.2 0,0 18.3,688 22,925.3 3.6,237.2 71.1,519.6 71.1,519.6 l -432.1,943.3 -73.5,-70.1 -358.5,-99.1 -321.7,197.1"
         style="fill:#3970c0;fill-opacity:1;fill-rule:nonzero;stroke:none"
         id="path907" />
      <g
         id="g909">
        <g
           id="g911"
           clip-path="url(#clipPath915)">
          <path
             d="m 14410,10879.9 h 151.898 v 152.43 H 14410 Z"
             style="fill:#3268b0;fill-opacity:1;fill-rule:nonzero;stroke:none"
             id="path917" />
        </g>
      </g>
      <path
         d="m 14708.6,10877.6 c -51.1,0 -142.3,16.1 -126,134 0,0 34.5,-50 67.3,-81.1 32.8,-31.1 91.5,-50.6 91.5,-50.6 0,0 -13.5,-2.3 -32.8,-2.3"
         style="fill:#3268b0;fill-opacity:1;fill-rule:nonzero;stroke:none"
         id="path919" />
      <path
         d="m 18833.2,14487.8 h -8505.1 c -25.1,0 -45.4,-20.4 -45.4,-45.5 v -39.7 c 0,-25.2 20.3,-45.5 45.4,-45.5 h 8505.1 c 25.1,0 45.5,20.3 45.5,45.5 v 39.7 c 0,25.1 -20.4,45.5 -45.5,45.5"
         style="fill:#8d8d8d;fill-opacity:1;fill-rule:nonzero;stroke:none"
         id="path921" />
      <path
         d="m 11412.1,14254.3 h -58.7 c -12,0 -21.7,9.8 -21.7,21.8 v 269.7 c 0,12 9.7,21.7 21.7,21.7 h 58.7 c 12,0 21.7,-9.7 21.7,-21.7 v -269.7 c 0,-12 -9.7,-21.8 -21.7,-21.8"
         style="fill:#5e6061;fill-opacity:1;fill-rule:nonzero;stroke:none"
         id="path923" />
      <path
         d="m 11594.8,13645.7 h -165.1 c -19.9,0 -36,16.1 -36,36 v 1492.7 c 0,19.9 16.1,36.1 36,36.1 h 165.1 c 20,0 36.1,-16.2 36.1,-36.1 v -1492.7 c 0,-19.9 -16.1,-36 -36.1,-36"
         style="fill:#343434;fill-opacity:1;fill-rule:nonzero;stroke:none"
         id="path925" />
      <path
         d="m 17778.3,14254.3 h 58.6 c 12,0 21.8,9.8 21.8,21.8 v 269.7 c 0,12 -9.8,21.7 -21.8,21.7 h -58.6 c -12.1,0 -21.8,-9.7 -21.8,-21.7 v -269.7 c 0,-12 9.7,-21.8 21.8,-21.8"
         style="fill:#5e6061;fill-opacity:1;fill-rule:nonzero;stroke:none"
         id="path927" />
      <path
         d="m 17595.5,13645.7 h 165.1 c 19.9,0 36,16.1 36,36 v 1492.7 c 0,19.9 -16.1,36.1 -36,36.1 h -165.1 c -19.9,0 -36.1,-16.2 -36.1,-36.1 v -1492.7 c 0,-19.9 16.2,-36 36.1,-36"
         style="fill:#343434;fill-opacity:1;fill-rule:nonzero;stroke:none"
         id="path929" />
      <path
         d="m 14244.6,12126.7 c 0,0 -21.8,-123.5 -13.6,-233 8.2,-109.5 128.7,-364 186.1,-446.1 57.5,-82.1 156.1,-150.5 180.7,-145.1 24.6,5.5 123.2,232.7 142.3,260 19.2,27.4 151.3,408.8 151.3,408.8 0,0 -39.1,30.1 -61,72.1 -21.9,41.9 -22.1,83.3 -22.1,83.3 l -280.8,172.1 -282.9,-172.1"
         style="fill:#fbc398;fill-opacity:1;fill-rule:nonzero;stroke:none"
         id="path931" />
      <path
         d="m 14529.7,11603.6 7,-273.7 61.1,-27.4 c 0,0 -38.1,306.6 -25.9,424.3 0,0 -42.2,-63 -42.2,-123.2"
         style="fill:#dc9e75;fill-opacity:1;fill-rule:nonzero;stroke:none"
         id="path933" />
      <path
         d="m 13862.6,11639.1 c 0,0 -1.3,-153.4 22.7,-245.8 l -45.4,-111.5 c 0,0 -35.8,195.5 22.7,357.3"
         style="fill:#dc9e75;fill-opacity:1;fill-rule:nonzero;stroke:none"
         id="path935" />
      <path
         d="m 13837.4,11710.2 c 0,0 -148.9,74.9 -64.7,254.8 0,0 -10.1,-129.4 64.7,-254.8"
         style="fill:#edb187;fill-opacity:1;fill-rule:nonzero;stroke:none"
         id="path937" />
      <path
         d="m 13885.3,11415.7 c 0,0 22.7,-121.4 91.2,-225.4 0,0 -90.4,35 -131.4,111.9 l 40.2,113.5"
         style="fill:#2e63a1;fill-opacity:1;fill-rule:nonzero;stroke:none"
         id="path939" />
      <path
         d="m 15230.3,11376.4 c 0,0 -5.7,-60.2 -24.9,-136.8 -19.1,-76.7 -32.8,-134.1 -27.4,-113.6 5.5,20.5 79.9,83.4 104.1,157.4 l -51.8,93"
         style="fill:#2e63a1;fill-opacity:1;fill-rule:nonzero;stroke:none"
         id="path941" />
      <path
         d="m 14244.6,12126.7 h 563.7 c -9.2,67.3 -17.9,190.5 -17.9,190.5 l -546.4,26.3 c 0,0 4.1,-166.3 0.6,-216.8"
         style="fill:#fbc398;fill-opacity:1;fill-rule:nonzero;stroke:none"
         id="path943" />
      <path
         d="m 13995.8,12050.1 c -7.5,72.7 -31,155.6 -31,155.6 l 56,-35.2 c -6.1,-57.8 -25,-120.4 -25,-120.4"
         style="fill:#edb187;fill-opacity:1;fill-rule:nonzero;stroke:none"
         id="path945" />
      <path
         d="m 13622.3,14153.4 c 0,0 45.6,49.2 136.9,89.4 91.2,40.1 135,113.1 144.1,140.5 9.1,27.3 7.3,104 0,113.1 -7.3,9.1 -69.3,83.9 -107.6,82.1 -38.3,-1.8 0,-76.6 1.8,-91.2 1.8,-14.6 -5.5,-37.2 -5.5,-37.2 0,0 -93,-28.5 -144.1,-52.2 -51.1,-23.8 -73,-40.2 -73,-40.2 l -229.8,-0.6 c 0,0 10.8,-152.7 29.1,-196.4 18.2,-43.8 102.1,-94.9 124,-87.6 21.9,7.3 124.1,80.3 124.1,80.3"
         style="fill:#fbc398;fill-opacity:1;fill-rule:nonzero;stroke:none"
         id="path947" />
      <path
         d="m 13799.3,14540.2 c 0,0 -51.1,31 -91.2,16.4 0,0 -23.7,31 -58.4,31 -34.7,0 -52.9,-21.9 -52.9,-21.9 0,0 -47.5,36.5 -84,-1.8 0,0 -65.7,9.1 -76.6,-23.7 -10.9,-32.8 0,-124.1 27.4,-133.2 27.3,-9.1 47.4,0 47.4,0 0,0 36.5,-40.2 73,-16.4 0,0 31,21.9 63.9,7.3 32.8,-14.6 113.1,-18.3 133.2,3.6 20,21.9 45.6,48.6 45.6,48.6 l -27.4,90.1"
         style="fill:#fbc398;fill-opacity:1;fill-rule:nonzero;stroke:none"
         id="path949" />
      <path
         d="m 13488.1,14403.1 c -2.7,0 -5.7,0.1 -8.8,0.5 l -20.7,156.6 c 11.1,3.9 24.1,4.9 34.6,4.9 11.1,0 19.4,-1.2 19.6,-1.2 v 0 0 c -2.2,-52 -1.8,-156.9 -1.8,-156.9 v 0 c 0,0 -8.9,-3.9 -22.9,-3.9"
         style="fill:#eaae83;fill-opacity:1;fill-rule:nonzero;stroke:none"
         id="path951" />
      <path
         d="m 13708.5,14556.8 c 0.1,0 0.1,0 0.1,0 0,0 0,0 -0.1,0"
         style="fill:#edcbb5;fill-opacity:1;fill-rule:nonzero;stroke:none"
         id="path953" />
      <path
         d="m 13683.5,14388.7 c -11.3,1.6 -21.7,4 -30.1,7 7.2,51.1 21.1,133.3 32.3,180.6 13.9,-8.9 22.4,-19.7 22.4,-19.7 0.1,0.1 0.3,0.1 0.4,0.2 0.1,0 0.1,0 0.1,0 5,1.8 10.2,2.8 15.4,3.3 -9.3,-30.8 -19.5,-67 -24.6,-92.3 -5.4,-27 -11.3,-56.6 -15.9,-79.1"
         style="fill:#eaae83;fill-opacity:1;fill-rule:nonzero;stroke:none"
         id="path955" />
      <path
         d="m 13583,14389.9 c 0,0 0.1,0.1 0.1,0.1 0,0 -0.1,-0.1 -0.1,-0.1 m 0.3,0.2 c 0.1,0.1 0.1,0.1 0.2,0.1 -0.1,0 -0.1,0 -0.2,-0.1 m 0.4,0.2 c 0.1,0.1 0.2,0.2 0.3,0.3 0,0 5.5,3.9 14.4,7.3 0,-0.1 0,-0.1 0,-0.1 -8.8,-3.4 -14.4,-7.2 -14.4,-7.2 -0.1,-0.1 -0.2,-0.2 -0.3,-0.3"
         style="fill:#b7967f;fill-opacity:1;fill-rule:nonzero;stroke:none"
         id="path957" />
      <path
         d="m 13563.9,14383.3 c -0.4,29.3 0.4,61.8 4.1,90.3 4,30.5 10.5,67 16.8,99.3 7.4,-3.6 12,-7.2 12,-7.2 0,0 10.4,12.5 30.4,18.6 -4.7,-16.8 -26.5,-99.6 -28.8,-186.4 -8.9,-3.4 -14.4,-7.3 -14.4,-7.3 -0.1,-0.1 -0.2,-0.2 -0.3,-0.3 -0.1,0 -0.2,0 -0.2,-0.1 -0.1,0 -0.1,0 -0.2,-0.1 -0.1,0 -0.1,-0.1 -0.2,-0.1 0,0 -0.1,-0.1 -0.1,-0.1 -6.4,-4 -12.9,-6 -19.1,-6.6"
         style="fill:#eaae83;fill-opacity:1;fill-rule:nonzero;stroke:none"
         id="path959" />
      <path
         d="m 15327.2,11611.3 c 0,0 -48,-163.5 -88.6,-249.9 l 45.2,-105.5 c 0,0 71.2,185.7 43.4,355.4"
         style="fill:#dc9e75;fill-opacity:1;fill-rule:nonzero;stroke:none"
         id="path961" />
      <path
         d="m 15314.5,11710.2 c 74.8,125.4 64.7,254.8 64.7,254.8 84.2,-179.9 -64.7,-254.8 -64.7,-254.8"
         style="fill:#edb187;fill-opacity:1;fill-rule:nonzero;stroke:none"
         id="path963" />
      <path
         d="m 15156.1,12050.1 c 0,0 -18.9,62.6 -25,120.4 l 56,35.2 c 0,0 -23.5,-82.9 -31,-155.6"
         style="fill:#edb187;fill-opacity:1;fill-rule:nonzero;stroke:none"
         id="path965" />
      <path
         d="m 15529.6,14153.4 c 0,0 -45.6,49.2 -136.9,89.4 -91.2,40.1 -135,113.1 -144.1,140.5 -9.1,27.3 -7.3,104 0,113.1 7.3,9.1 69.3,83.9 107.6,82.1 38.4,-1.8 0,-76.6 -1.8,-91.2 -1.8,-14.6 5.5,-37.2 5.5,-37.2 0,0 93,-28.5 144.1,-52.2 51.1,-23.8 73,-40.2 73,-40.2 l 229.8,-0.6 c 0,0 -10.8,-152.7 -29,-196.4 -18.3,-43.8 -102.2,-94.9 -124.1,-87.6 -21.9,7.3 -124.1,80.3 -124.1,80.3"
         style="fill:#fbc398;fill-opacity:1;fill-rule:nonzero;stroke:none"
         id="path967" />
      <path
         d="m 15352.6,14540.2 c 0,0 51.1,31 91.2,16.4 0,0 23.7,31 58.4,31 34.7,0 52.9,-21.9 52.9,-21.9 0,0 47.5,36.5 84,-1.8 0,0 65.7,9.1 76.6,-23.7 11,-32.8 0,-124.1 -27.4,-133.2 -27.3,-9.1 -47.4,0 -47.4,0 0,0 -36.5,-40.2 -73,-16.4 0,0 -31,21.9 -63.9,7.3 -32.8,-14.6 -113.1,-18.3 -133.2,3.6 -20,21.9 -45.6,48.6 -45.6,48.6 l 27.4,90.1"
         style="fill:#fbc398;fill-opacity:1;fill-rule:nonzero;stroke:none"
         id="path969" />
      <path
         d="m 15663.8,14403.1 c -14,0 -22.9,3.9 -22.9,3.9 v 0 c 0,0 0.5,104.9 -1.8,156.9 v 0 0 c 0.3,0 8.5,1.2 19.6,1.2 10.5,0 23.5,-1 34.6,-4.9 l -20.7,-156.6 c -3.1,-0.4 -6.1,-0.5 -8.8,-0.5"
         style="fill:#eaae83;fill-opacity:1;fill-rule:nonzero;stroke:none"
         id="path971" />
      <path
         d="m 15468.4,14388.7 c -4.5,22.5 -10.5,52.1 -15.9,79.1 -5.1,25.3 -15.3,61.5 -24.6,92.3 5.2,-0.5 10.4,-1.5 15.4,-3.3 0,0 0,0 0.1,0 0.1,-0.1 0.3,-0.1 0.4,-0.2 0,0 8.5,10.8 22.5,19.7 11.1,-47.3 25,-129.5 32.2,-180.6 -8.4,-3 -18.8,-5.4 -30.1,-7"
         style="fill:#eaae83;fill-opacity:1;fill-rule:nonzero;stroke:none"
         id="path973" />
      <path
         d="m 15572.1,14388.1 c -0.1,0 -0.1,0.1 -0.1,0.1 0,0 0,-0.1 0.1,-0.1 m -0.4,0.2 c 0,0 0,0 -0.1,0.1 0.1,-0.1 0.1,-0.1 0.1,-0.1 m -0.4,0.2 c -0.1,0.1 -0.2,0.1 -0.2,0.2 0,-0.1 0.1,-0.1 0.2,-0.2 m -0.3,0.2 c -0.1,0.1 -0.2,0.1 -0.3,0.2 0.1,-0.1 0.2,-0.1 0.3,-0.2 m -0.4,0.2 c -0.1,0.1 -0.2,0.2 -0.3,0.2 0.1,0 0.2,-0.1 0.3,-0.2 m -0.4,0.2 c -0.3,0.3 -0.7,0.5 -1.1,0.7 0.4,-0.2 0.8,-0.4 1.1,-0.7 m -1.1,0.7 c -0.1,0.1 -0.3,0.2 -0.4,0.3 0.1,-0.1 0.3,-0.2 0.4,-0.3 m -0.4,0.3 c -0.1,0.1 -0.3,0.1 -0.4,0.2 0.1,-0.1 0.3,-0.1 0.4,-0.2 m -0.4,0.2 c -0.1,0.1 -0.3,0.2 -0.4,0.3 0,0 -5.6,3.8 -14.4,7.2 0,0 0,0 0,0.1 8.9,-3.4 14.4,-7.3 14.4,-7.3 0.1,-0.1 0.3,-0.2 0.4,-0.3"
         style="fill:#b7967f;fill-opacity:1;fill-rule:nonzero;stroke:none"
         id="path975" />
      <path
         d="m 15588,14383.3 c -5.2,0.5 -10.5,2 -15.9,4.8 -0.1,0 -0.1,0.1 -0.1,0.1 -0.1,0 -0.2,0.1 -0.3,0.1 0,0 0,0 -0.1,0.1 -0.1,0 -0.2,0.1 -0.3,0.1 -0.1,0.1 -0.2,0.1 -0.2,0.2 -0.1,0 -0.1,0 -0.1,0 -0.1,0.1 -0.2,0.1 -0.3,0.2 0,0 -0.1,0 -0.1,0 -0.1,0.1 -0.2,0.2 -0.3,0.2 0,0 -0.1,0 -0.1,0 -0.3,0.3 -0.7,0.5 -1.1,0.7 v 0 c -0.1,0.1 -0.3,0.2 -0.4,0.3 0,0 0,0 0,0 -0.1,0.1 -0.3,0.1 -0.4,0.2 0,0 0,0 0,0 -0.1,0.1 -0.3,0.2 -0.4,0.3 0,0 -5.5,3.9 -14.4,7.3 -2.3,86.8 -24.1,169.6 -28.8,186.4 20,-6.1 30.4,-18.6 30.4,-18.6 0,0 4.6,3.6 12,7.2 6.3,-32.3 12.8,-68.8 16.8,-99.3 3.7,-28.5 4.5,-61 4.1,-90.3"
         style="fill:#eaae83;fill-opacity:1;fill-rule:nonzero;stroke:none"
         id="path977" />
      <path
         d="m 14293,12254.6 -42.2,35.3 c 0,0 108.9,-188.5 150.7,-219.4 41.8,-30.9 162.7,-24.3 210.6,-12.1 47.9,12.2 120.2,147.5 159.5,215 39.2,67.4 -478.6,-18.8 -478.6,-18.8"
         style="fill:#dc9e75;fill-opacity:1;fill-rule:nonzero;stroke:none"
         id="path979" />
      <path
         d="m 14158,12683.9 c 8.6,16 -29.8,58.7 -39.1,103.1 -9.2,44.4 2.7,221.7 1.2,242.3 -1.5,20.6 34.5,83.8 41.3,102.8 6.8,19 49.9,94.8 77,115.3 27,20.4 106.3,32.7 139.6,43.6 33.3,10.9 96.8,37.6 155.3,30.9 58.6,-6.6 52.2,-20.8 93.4,-24.2 41.1,-3.3 104.3,-38.5 126.4,-60.8 22.1,-22.2 99.4,-74.9 124.6,-108.3 25.2,-33.3 35.2,-188.6 29.5,-247.2 -5.6,-58.6 -28.2,-145.6 -28.2,-145.6 l -12.9,-39 c 0,0 4.4,-79.7 -0.4,-81.3 -4.7,-1.5 74.3,-38.4 -112.6,-42.2 -187,-3.9 -402.3,1.9 -402.3,1.9 0,0 -141,-5.6 -172.5,27.8 -31.6,33.4 -20.3,80.9 -20.3,80.9"
         style="fill:#252323;fill-opacity:1;fill-rule:nonzero;stroke:none"
         id="path981" />
      <path
         d="m 14166.6,12699.9 c 0,0 -11.6,3 -32.2,-1.7 -20.6,-4.6 -3.8,-115.6 10.4,-144.1 14.1,-28.6 34.4,-74.7 37.5,-90.5 3.1,-15.9 33.1,-31.9 33.1,-31.9 0,0 7.5,-85.5 20.1,-118.8 12.5,-33.4 97.6,-117.7 136.9,-174.9 39.3,-57.2 140.6,-81.5 212,-58.1 71.4,23.4 114.5,102.4 128.9,119.8 14.3,17.3 78,97.8 89.3,127.9 11.2,30 17.9,115.5 17.9,115.5 0,0 27,6.2 39.8,36.2 12.8,30.1 24.2,77.5 32.1,91.7 8,14.3 21.1,101.3 8.5,117.2 -12.6,15.9 -34.8,8.6 -34.8,8.6 0,0 -6.4,-24.2 -9.6,-29 -3.2,-4.7 -22.3,-10.9 -22.3,-10.9 l -2.7,77.6 c 0,0 -17.4,17.5 -25.2,38.1 -7.8,20.6 -9.1,82.4 -9,98.3 0,15.8 1.7,39.5 -9.2,77.6 -10.9,38.1 -56.7,68.4 -80.4,73.3 -23.7,4.8 -142.5,10.1 -161.5,11.8 -19,1.7 -28.5,-6.2 -79.2,-12.3 -50.8,-6.1 -207.6,-16.4 -225.1,-25.8 -17.5,-9.4 -33.6,-64.8 -36.8,-83.8 -3.3,-19 9,-109.3 7.3,-126.7 -1.7,-17.4 -14.4,-36.4 -12.9,-49.1 1.5,-12.6 1.1,-91.8 1.1,-91.8 l -14.3,-4.7 -19.7,60.5"
         style="fill:#fbc398;fill-opacity:1;fill-rule:nonzero;stroke:none"
         id="path983" />
    </g>
  </g>
</svg>
